<?xml version="1.0" encoding="utf-8" standalone="no"?>
<!DOCTYPE svg PUBLIC "-//W3C//DTD SVG 1.1//EN"
  "http://www.w3.org/Graphics/SVG/1.1/DTD/svg11.dtd">
<svg xmlns:xlink="http://www.w3.org/1999/xlink" width="618.111562pt" height="381.655312pt" viewBox="0 0 618.111562 381.655312" xmlns="http://www.w3.org/2000/svg" version="1.1">
 <metadata>
  <rdf:RDF xmlns:dc="http://purl.org/dc/elements/1.1/" xmlns:cc="http://creativecommons.org/ns#" xmlns:rdf="http://www.w3.org/1999/02/22-rdf-syntax-ns#">
   <cc:Work>
    <dc:type rdf:resource="http://purl.org/dc/dcmitype/StillImage"/>
    <dc:date>2025-08-28T20:34:15.356057</dc:date>
    <dc:format>image/svg+xml</dc:format>
    <dc:creator>
     <cc:Agent>
      <dc:title>Matplotlib v3.9.4, https://matplotlib.org/</dc:title>
     </cc:Agent>
    </dc:creator>
   </cc:Work>
  </rdf:RDF>
 </metadata>
 <defs>
  <style type="text/css">*{stroke-linejoin: round; stroke-linecap: butt}</style>
 </defs>
 <g id="figure_1">
  <g id="patch_1">
   <path d="M 0 381.655312 
L 618.111562 381.655312 
L 618.111562 0 
L 0 0 
z
" style="fill: #ffffff"/>
  </g>
  <g id="axes_1">
   <g id="patch_2">
    <path d="M 52.911563 339.84 
L 610.911563 339.84 
L 610.911563 7.2 
L 52.911563 7.2 
z
" style="fill: #ffffff"/>
   </g>
   <g id="matplotlib.axis_1">
    <g id="xtick_1">
     <g id="line2d_1">
      <path d="M 77.793337 339.84 
L 77.793337 7.2 
" clip-path="url(#p95dc0a7ecc)" style="fill: none; stroke: #808080; stroke-opacity: 0.7; stroke-width: 0.5; stroke-linecap: round"/>
     </g>
     <g id="text_1">
      <!-- 0.0 -->
      <g style="fill: #262626" transform="translate(70.293337 355.1725) scale(0.12 -0.12)">
       <defs>
        <path id="TimesNewRomanPSMT-30" d="M 231 2094 
Q 231 2819 450 3342 
Q 669 3866 1031 4122 
Q 1313 4325 1613 4325 
Q 2100 4325 2488 3828 
Q 2972 3213 2972 2159 
Q 2972 1422 2759 906 
Q 2547 391 2217 158 
Q 1888 -75 1581 -75 
Q 975 -75 572 641 
Q 231 1244 231 2094 
z
M 844 2016 
Q 844 1141 1059 588 
Q 1238 122 1591 122 
Q 1759 122 1940 273 
Q 2122 425 2216 781 
Q 2359 1319 2359 2297 
Q 2359 3022 2209 3506 
Q 2097 3866 1919 4016 
Q 1791 4119 1609 4119 
Q 1397 4119 1231 3928 
Q 1006 3669 925 3112 
Q 844 2556 844 2016 
z
" transform="scale(0.015625)"/>
        <path id="TimesNewRomanPSMT-2e" d="M 800 606 
Q 947 606 1047 504 
Q 1147 403 1147 259 
Q 1147 116 1045 14 
Q 944 -88 800 -88 
Q 656 -88 554 14 
Q 453 116 453 259 
Q 453 406 554 506 
Q 656 606 800 606 
z
" transform="scale(0.015625)"/>
       </defs>
       <use xlink:href="#TimesNewRomanPSMT-30"/>
       <use xlink:href="#TimesNewRomanPSMT-2e" x="50"/>
       <use xlink:href="#TimesNewRomanPSMT-30" x="75"/>
      </g>
     </g>
    </g>
    <g id="xtick_2">
     <g id="line2d_2">
      <path d="M 172.275972 339.84 
L 172.275972 7.2 
" clip-path="url(#p95dc0a7ecc)" style="fill: none; stroke: #808080; stroke-opacity: 0.7; stroke-width: 0.5; stroke-linecap: round"/>
     </g>
     <g id="text_2">
      <!-- 0.5 -->
      <g style="fill: #262626" transform="translate(164.775972 355.1725) scale(0.12 -0.12)">
       <defs>
        <path id="TimesNewRomanPSMT-35" d="M 2778 4238 
L 2534 3706 
L 1259 3706 
L 981 3138 
Q 1809 3016 2294 2522 
Q 2709 2097 2709 1522 
Q 2709 1188 2573 903 
Q 2438 619 2231 419 
Q 2025 219 1772 97 
Q 1413 -75 1034 -75 
Q 653 -75 479 54 
Q 306 184 306 341 
Q 306 428 378 495 
Q 450 563 559 563 
Q 641 563 702 538 
Q 763 513 909 409 
Q 1144 247 1384 247 
Q 1750 247 2026 523 
Q 2303 800 2303 1197 
Q 2303 1581 2056 1914 
Q 1809 2247 1375 2428 
Q 1034 2569 447 2591 
L 1259 4238 
L 2778 4238 
z
" transform="scale(0.015625)"/>
       </defs>
       <use xlink:href="#TimesNewRomanPSMT-30"/>
       <use xlink:href="#TimesNewRomanPSMT-2e" x="50"/>
       <use xlink:href="#TimesNewRomanPSMT-35" x="75"/>
      </g>
     </g>
    </g>
    <g id="xtick_3">
     <g id="line2d_3">
      <path d="M 266.758606 339.84 
L 266.758606 7.2 
" clip-path="url(#p95dc0a7ecc)" style="fill: none; stroke: #808080; stroke-opacity: 0.7; stroke-width: 0.5; stroke-linecap: round"/>
     </g>
     <g id="text_3">
      <!-- 1.0 -->
      <g style="fill: #262626" transform="translate(259.258606 355.1725) scale(0.12 -0.12)">
       <defs>
        <path id="TimesNewRomanPSMT-31" d="M 750 3822 
L 1781 4325 
L 1884 4325 
L 1884 747 
Q 1884 391 1914 303 
Q 1944 216 2037 169 
Q 2131 122 2419 116 
L 2419 0 
L 825 0 
L 825 116 
Q 1125 122 1212 167 
Q 1300 213 1334 289 
Q 1369 366 1369 747 
L 1369 3034 
Q 1369 3497 1338 3628 
Q 1316 3728 1258 3775 
Q 1200 3822 1119 3822 
Q 1003 3822 797 3725 
L 750 3822 
z
" transform="scale(0.015625)"/>
       </defs>
       <use xlink:href="#TimesNewRomanPSMT-31"/>
       <use xlink:href="#TimesNewRomanPSMT-2e" x="50"/>
       <use xlink:href="#TimesNewRomanPSMT-30" x="75"/>
      </g>
     </g>
    </g>
    <g id="xtick_4">
     <g id="line2d_4">
      <path d="M 361.24124 339.84 
L 361.24124 7.2 
" clip-path="url(#p95dc0a7ecc)" style="fill: none; stroke: #808080; stroke-opacity: 0.7; stroke-width: 0.5; stroke-linecap: round"/>
     </g>
     <g id="text_4">
      <!-- 1.5 -->
      <g style="fill: #262626" transform="translate(353.74124 355.1725) scale(0.12 -0.12)">
       <use xlink:href="#TimesNewRomanPSMT-31"/>
       <use xlink:href="#TimesNewRomanPSMT-2e" x="50"/>
       <use xlink:href="#TimesNewRomanPSMT-35" x="75"/>
      </g>
     </g>
    </g>
    <g id="xtick_5">
     <g id="line2d_5">
      <path d="M 455.723874 339.84 
L 455.723874 7.2 
" clip-path="url(#p95dc0a7ecc)" style="fill: none; stroke: #808080; stroke-opacity: 0.7; stroke-width: 0.5; stroke-linecap: round"/>
     </g>
     <g id="text_5">
      <!-- 2.0 -->
      <g style="fill: #262626" transform="translate(448.223874 355.1725) scale(0.12 -0.12)">
       <defs>
        <path id="TimesNewRomanPSMT-32" d="M 2934 816 
L 2638 0 
L 138 0 
L 138 116 
Q 1241 1122 1691 1759 
Q 2141 2397 2141 2925 
Q 2141 3328 1894 3587 
Q 1647 3847 1303 3847 
Q 991 3847 742 3664 
Q 494 3481 375 3128 
L 259 3128 
Q 338 3706 661 4015 
Q 984 4325 1469 4325 
Q 1984 4325 2329 3994 
Q 2675 3663 2675 3213 
Q 2675 2891 2525 2569 
Q 2294 2063 1775 1497 
Q 997 647 803 472 
L 1909 472 
Q 2247 472 2383 497 
Q 2519 522 2628 598 
Q 2738 675 2819 816 
L 2934 816 
z
" transform="scale(0.015625)"/>
       </defs>
       <use xlink:href="#TimesNewRomanPSMT-32"/>
       <use xlink:href="#TimesNewRomanPSMT-2e" x="50"/>
       <use xlink:href="#TimesNewRomanPSMT-30" x="75"/>
      </g>
     </g>
    </g>
    <g id="xtick_6">
     <g id="line2d_6">
      <path d="M 550.206508 339.84 
L 550.206508 7.2 
" clip-path="url(#p95dc0a7ecc)" style="fill: none; stroke: #808080; stroke-opacity: 0.7; stroke-width: 0.5; stroke-linecap: round"/>
     </g>
     <g id="text_6">
      <!-- 2.5 -->
      <g style="fill: #262626" transform="translate(542.706508 355.1725) scale(0.12 -0.12)">
       <use xlink:href="#TimesNewRomanPSMT-32"/>
       <use xlink:href="#TimesNewRomanPSMT-2e" x="50"/>
       <use xlink:href="#TimesNewRomanPSMT-35" x="75"/>
      </g>
     </g>
    </g>
    <g id="text_7">
     <!-- Step (×10⁶) -->
     <g style="fill: #262626" transform="translate(300.009063 371.460625) scale(0.14 -0.14)">
      <defs>
       <path id="TimesNewRomanPSMT-53" d="M 2934 4334 
L 2934 2869 
L 2819 2869 
Q 2763 3291 2617 3541 
Q 2472 3791 2203 3937 
Q 1934 4084 1647 4084 
Q 1322 4084 1109 3886 
Q 897 3688 897 3434 
Q 897 3241 1031 3081 
Q 1225 2847 1953 2456 
Q 2547 2138 2764 1967 
Q 2981 1797 3098 1565 
Q 3216 1334 3216 1081 
Q 3216 600 2842 251 
Q 2469 -97 1881 -97 
Q 1697 -97 1534 -69 
Q 1438 -53 1133 45 
Q 828 144 747 144 
Q 669 144 623 97 
Q 578 50 556 -97 
L 441 -97 
L 441 1356 
L 556 1356 
Q 638 900 775 673 
Q 913 447 1195 297 
Q 1478 147 1816 147 
Q 2206 147 2432 353 
Q 2659 559 2659 841 
Q 2659 997 2573 1156 
Q 2488 1316 2306 1453 
Q 2184 1547 1640 1851 
Q 1097 2156 867 2337 
Q 638 2519 519 2737 
Q 400 2956 400 3219 
Q 400 3675 750 4004 
Q 1100 4334 1641 4334 
Q 1978 4334 2356 4169 
Q 2531 4091 2603 4091 
Q 2684 4091 2736 4139 
Q 2788 4188 2819 4334 
L 2934 4334 
z
" transform="scale(0.015625)"/>
       <path id="TimesNewRomanPSMT-74" d="M 1031 3803 
L 1031 2863 
L 1700 2863 
L 1700 2644 
L 1031 2644 
L 1031 788 
Q 1031 509 1111 412 
Q 1191 316 1316 316 
Q 1419 316 1516 380 
Q 1613 444 1666 569 
L 1788 569 
Q 1678 263 1478 108 
Q 1278 -47 1066 -47 
Q 922 -47 784 33 
Q 647 113 581 261 
Q 516 409 516 719 
L 516 2644 
L 63 2644 
L 63 2747 
Q 234 2816 414 2980 
Q 594 3144 734 3369 
Q 806 3488 934 3803 
L 1031 3803 
z
" transform="scale(0.015625)"/>
       <path id="TimesNewRomanPSMT-65" d="M 681 1784 
Q 678 1147 991 784 
Q 1303 422 1725 422 
Q 2006 422 2214 576 
Q 2422 731 2563 1106 
L 2659 1044 
Q 2594 616 2278 264 
Q 1963 -88 1488 -88 
Q 972 -88 605 314 
Q 238 716 238 1394 
Q 238 2128 614 2539 
Q 991 2950 1559 2950 
Q 2041 2950 2350 2633 
Q 2659 2316 2659 1784 
L 681 1784 
z
M 681 1966 
L 2006 1966 
Q 1991 2241 1941 2353 
Q 1863 2528 1708 2628 
Q 1553 2728 1384 2728 
Q 1125 2728 920 2526 
Q 716 2325 681 1966 
z
" transform="scale(0.015625)"/>
       <path id="TimesNewRomanPSMT-70" d="M -6 2578 
L 875 2934 
L 994 2934 
L 994 2266 
Q 1216 2644 1439 2795 
Q 1663 2947 1909 2947 
Q 2341 2947 2628 2609 
Q 2981 2197 2981 1534 
Q 2981 794 2556 309 
Q 2206 -88 1675 -88 
Q 1444 -88 1275 -22 
Q 1150 25 994 166 
L 994 -706 
Q 994 -1000 1030 -1079 
Q 1066 -1159 1155 -1206 
Q 1244 -1253 1478 -1253 
L 1478 -1369 
L -22 -1369 
L -22 -1253 
L 56 -1253 
Q 228 -1256 350 -1188 
Q 409 -1153 442 -1076 
Q 475 -1000 475 -688 
L 475 2019 
Q 475 2297 450 2372 
Q 425 2447 370 2484 
Q 316 2522 222 2522 
Q 147 2522 31 2478 
L -6 2578 
z
M 994 2081 
L 994 1013 
Q 994 666 1022 556 
Q 1066 375 1236 237 
Q 1406 100 1666 100 
Q 1978 100 2172 344 
Q 2425 663 2425 1241 
Q 2425 1897 2138 2250 
Q 1938 2494 1663 2494 
Q 1513 2494 1366 2419 
Q 1253 2363 994 2081 
z
" transform="scale(0.015625)"/>
       <path id="TimesNewRomanPSMT-20" transform="scale(0.015625)"/>
       <path id="TimesNewRomanPSMT-28" d="M 1988 -1253 
L 1988 -1369 
Q 1516 -1131 1200 -813 
Q 750 -359 506 256 
Q 263 872 263 1534 
Q 263 2503 741 3301 
Q 1219 4100 1988 4444 
L 1988 4313 
Q 1603 4100 1356 3731 
Q 1109 3363 987 2797 
Q 866 2231 866 1616 
Q 866 947 969 400 
Q 1050 -31 1165 -292 
Q 1281 -553 1476 -793 
Q 1672 -1034 1988 -1253 
z
" transform="scale(0.015625)"/>
       <path id="TimesNewRomanPSMT-d7" d="M 516 1025 
L 1619 2128 
L 519 3228 
L 700 3409 
L 1800 2309 
L 2900 3409 
L 3075 3231 
L 1975 2131 
L 3081 1025 
L 2903 844 
L 1797 1950 
L 694 847 
L 516 1025 
z
" transform="scale(0.015625)"/>
       <path id="TimesNewRomanPSMT-2076" d="M 1734 4222 
Q 1322 4209 1050 3976 
Q 778 3744 628 3359 
Q 719 3403 826 3442 
Q 934 3481 1094 3481 
Q 1231 3481 1357 3437 
Q 1484 3394 1579 3309 
Q 1675 3225 1733 3098 
Q 1791 2972 1791 2809 
Q 1791 2644 1733 2503 
Q 1675 2363 1565 2256 
Q 1456 2150 1300 2089 
Q 1144 2028 947 2028 
Q 763 2028 613 2104 
Q 463 2181 355 2309 
Q 247 2438 187 2605 
Q 128 2772 128 2950 
Q 128 3184 228 3428 
Q 328 3672 528 3872 
Q 728 4072 1029 4198 
Q 1331 4325 1734 4325 
L 1734 4222 
z
M 581 3181 
Q 572 3131 564 3065 
Q 556 3000 556 2919 
Q 556 2809 579 2678 
Q 603 2547 656 2433 
Q 709 2319 798 2241 
Q 888 2163 1016 2163 
Q 1078 2163 1145 2184 
Q 1213 2206 1267 2259 
Q 1322 2313 1358 2405 
Q 1394 2497 1394 2638 
Q 1394 2716 1375 2831 
Q 1356 2947 1307 3053 
Q 1259 3159 1173 3234 
Q 1088 3309 953 3309 
Q 838 3309 748 3267 
Q 659 3225 581 3181 
z
" transform="scale(0.015625)"/>
       <path id="TimesNewRomanPSMT-29" d="M 144 4313 
L 144 4444 
Q 619 4209 934 3891 
Q 1381 3434 1625 2820 
Q 1869 2206 1869 1541 
Q 1869 572 1392 -226 
Q 916 -1025 144 -1369 
L 144 -1253 
Q 528 -1038 776 -670 
Q 1025 -303 1145 264 
Q 1266 831 1266 1447 
Q 1266 2113 1163 2663 
Q 1084 3094 967 3353 
Q 850 3613 656 3853 
Q 463 4094 144 4313 
z
" transform="scale(0.015625)"/>
      </defs>
      <use xlink:href="#TimesNewRomanPSMT-53"/>
      <use xlink:href="#TimesNewRomanPSMT-74" x="55.615234"/>
      <use xlink:href="#TimesNewRomanPSMT-65" x="83.398438"/>
      <use xlink:href="#TimesNewRomanPSMT-70" x="127.783203"/>
      <use xlink:href="#TimesNewRomanPSMT-20" x="177.783203"/>
      <use xlink:href="#TimesNewRomanPSMT-28" x="202.783203"/>
      <use xlink:href="#TimesNewRomanPSMT-d7" x="236.083984"/>
      <use xlink:href="#TimesNewRomanPSMT-31" x="292.480469"/>
      <use xlink:href="#TimesNewRomanPSMT-30" x="342.480469"/>
      <use xlink:href="#TimesNewRomanPSMT-2076" x="392.480469"/>
      <use xlink:href="#TimesNewRomanPSMT-29" x="422.460938"/>
     </g>
    </g>
   </g>
   <g id="matplotlib.axis_2">
    <g id="ytick_1">
     <g id="line2d_7">
      <path d="M 52.911563 334.576957 
L 610.911563 334.576957 
" clip-path="url(#p95dc0a7ecc)" style="fill: none; stroke: #808080; stroke-opacity: 0.7; stroke-width: 0.5; stroke-linecap: round"/>
     </g>
     <g id="text_8">
      <!-- -100 -->
      <g style="fill: #262626" transform="translate(23.915938 338.743207) scale(0.12 -0.12)">
       <defs>
        <path id="TimesNewRomanPSMT-2d" d="M 259 1672 
L 1875 1672 
L 1875 1200 
L 259 1200 
L 259 1672 
z
" transform="scale(0.015625)"/>
       </defs>
       <use xlink:href="#TimesNewRomanPSMT-2d"/>
       <use xlink:href="#TimesNewRomanPSMT-31" x="33.300781"/>
       <use xlink:href="#TimesNewRomanPSMT-30" x="83.300781"/>
       <use xlink:href="#TimesNewRomanPSMT-30" x="133.300781"/>
      </g>
     </g>
    </g>
    <g id="ytick_2">
     <g id="line2d_8">
      <path d="M 52.911563 277.183826 
L 610.911563 277.183826 
" clip-path="url(#p95dc0a7ecc)" style="fill: none; stroke: #808080; stroke-opacity: 0.7; stroke-width: 0.5; stroke-linecap: round"/>
     </g>
     <g id="text_9">
      <!-- -50 -->
      <g style="fill: #262626" transform="translate(29.915938 281.350076) scale(0.12 -0.12)">
       <use xlink:href="#TimesNewRomanPSMT-2d"/>
       <use xlink:href="#TimesNewRomanPSMT-35" x="33.300781"/>
       <use xlink:href="#TimesNewRomanPSMT-30" x="83.300781"/>
      </g>
     </g>
    </g>
    <g id="ytick_3">
     <g id="line2d_9">
      <path d="M 52.911563 219.790694 
L 610.911563 219.790694 
" clip-path="url(#p95dc0a7ecc)" style="fill: none; stroke: #808080; stroke-opacity: 0.7; stroke-width: 0.5; stroke-linecap: round"/>
     </g>
     <g id="text_10">
      <!-- 0 -->
      <g style="fill: #262626" transform="translate(39.911563 223.956944) scale(0.12 -0.12)">
       <use xlink:href="#TimesNewRomanPSMT-30"/>
      </g>
     </g>
    </g>
    <g id="ytick_4">
     <g id="line2d_10">
      <path d="M 52.911563 162.397563 
L 610.911563 162.397563 
" clip-path="url(#p95dc0a7ecc)" style="fill: none; stroke: #808080; stroke-opacity: 0.7; stroke-width: 0.5; stroke-linecap: round"/>
     </g>
     <g id="text_11">
      <!-- 50 -->
      <g style="fill: #262626" transform="translate(33.911563 166.563813) scale(0.12 -0.12)">
       <use xlink:href="#TimesNewRomanPSMT-35"/>
       <use xlink:href="#TimesNewRomanPSMT-30" x="50"/>
      </g>
     </g>
    </g>
    <g id="ytick_5">
     <g id="line2d_11">
      <path d="M 52.911563 105.004432 
L 610.911563 105.004432 
" clip-path="url(#p95dc0a7ecc)" style="fill: none; stroke: #808080; stroke-opacity: 0.7; stroke-width: 0.5; stroke-linecap: round"/>
     </g>
     <g id="text_12">
      <!-- 100 -->
      <g style="fill: #262626" transform="translate(27.911563 109.170682) scale(0.12 -0.12)">
       <use xlink:href="#TimesNewRomanPSMT-31"/>
       <use xlink:href="#TimesNewRomanPSMT-30" x="50"/>
       <use xlink:href="#TimesNewRomanPSMT-30" x="100"/>
      </g>
     </g>
    </g>
    <g id="ytick_6">
     <g id="line2d_12">
      <path d="M 52.911563 47.611301 
L 610.911563 47.611301 
" clip-path="url(#p95dc0a7ecc)" style="fill: none; stroke: #808080; stroke-opacity: 0.7; stroke-width: 0.5; stroke-linecap: round"/>
     </g>
     <g id="text_13">
      <!-- 150 -->
      <g style="fill: #262626" transform="translate(27.911563 51.777551) scale(0.12 -0.12)">
       <use xlink:href="#TimesNewRomanPSMT-31"/>
       <use xlink:href="#TimesNewRomanPSMT-35" x="50"/>
       <use xlink:href="#TimesNewRomanPSMT-30" x="100"/>
      </g>
     </g>
    </g>
    <g id="text_14">
     <!-- Reward -->
     <g style="fill: #262626" transform="translate(16.92125 195.29) rotate(-90) scale(0.14 -0.14)">
      <defs>
       <path id="TimesNewRomanPSMT-52" d="M 4325 0 
L 3194 0 
L 1759 1981 
Q 1600 1975 1500 1975 
Q 1459 1975 1412 1976 
Q 1366 1978 1316 1981 
L 1316 750 
Q 1316 350 1403 253 
Q 1522 116 1759 116 
L 1925 116 
L 1925 0 
L 109 0 
L 109 116 
L 269 116 
Q 538 116 653 291 
Q 719 388 719 750 
L 719 3488 
Q 719 3888 631 3984 
Q 509 4122 269 4122 
L 109 4122 
L 109 4238 
L 1653 4238 
Q 2328 4238 2648 4139 
Q 2969 4041 3192 3777 
Q 3416 3513 3416 3147 
Q 3416 2756 3161 2468 
Q 2906 2181 2372 2063 
L 3247 847 
Q 3547 428 3762 290 
Q 3978 153 4325 116 
L 4325 0 
z
M 1316 2178 
Q 1375 2178 1419 2176 
Q 1463 2175 1491 2175 
Q 2097 2175 2405 2437 
Q 2713 2700 2713 3106 
Q 2713 3503 2464 3751 
Q 2216 4000 1806 4000 
Q 1625 4000 1316 3941 
L 1316 2178 
z
" transform="scale(0.015625)"/>
       <path id="TimesNewRomanPSMT-77" d="M 41 2863 
L 1241 2863 
L 1241 2747 
Q 1075 2734 1023 2687 
Q 972 2641 972 2553 
Q 972 2456 1025 2319 
L 1638 672 
L 2253 2013 
L 2091 2434 
Q 2016 2622 1894 2694 
Q 1825 2738 1638 2747 
L 1638 2863 
L 3000 2863 
L 3000 2747 
Q 2775 2738 2681 2666 
Q 2619 2616 2619 2506 
Q 2619 2444 2644 2378 
L 3294 734 
L 3897 2319 
Q 3959 2488 3959 2588 
Q 3959 2647 3898 2694 
Q 3838 2741 3659 2747 
L 3659 2863 
L 4563 2863 
L 4563 2747 
Q 4291 2706 4163 2378 
L 3206 -88 
L 3078 -88 
L 2363 1741 
L 1528 -88 
L 1413 -88 
L 494 2319 
Q 403 2547 315 2626 
Q 228 2706 41 2747 
L 41 2863 
z
" transform="scale(0.015625)"/>
       <path id="TimesNewRomanPSMT-61" d="M 1822 413 
Q 1381 72 1269 19 
Q 1100 -59 909 -59 
Q 613 -59 420 144 
Q 228 347 228 678 
Q 228 888 322 1041 
Q 450 1253 767 1440 
Q 1084 1628 1822 1897 
L 1822 2009 
Q 1822 2438 1686 2597 
Q 1550 2756 1291 2756 
Q 1094 2756 978 2650 
Q 859 2544 859 2406 
L 866 2225 
Q 866 2081 792 2003 
Q 719 1925 600 1925 
Q 484 1925 411 2006 
Q 338 2088 338 2228 
Q 338 2497 613 2722 
Q 888 2947 1384 2947 
Q 1766 2947 2009 2819 
Q 2194 2722 2281 2516 
Q 2338 2381 2338 1966 
L 2338 994 
Q 2338 584 2353 492 
Q 2369 400 2405 369 
Q 2441 338 2488 338 
Q 2538 338 2575 359 
Q 2641 400 2828 588 
L 2828 413 
Q 2478 -56 2159 -56 
Q 2006 -56 1915 50 
Q 1825 156 1822 413 
z
M 1822 616 
L 1822 1706 
Q 1350 1519 1213 1441 
Q 966 1303 859 1153 
Q 753 1003 753 825 
Q 753 600 887 451 
Q 1022 303 1197 303 
Q 1434 303 1822 616 
z
" transform="scale(0.015625)"/>
       <path id="TimesNewRomanPSMT-72" d="M 1038 2947 
L 1038 2303 
Q 1397 2947 1775 2947 
Q 1947 2947 2059 2842 
Q 2172 2738 2172 2600 
Q 2172 2478 2090 2393 
Q 2009 2309 1897 2309 
Q 1788 2309 1652 2417 
Q 1516 2525 1450 2525 
Q 1394 2525 1328 2463 
Q 1188 2334 1038 2041 
L 1038 669 
Q 1038 431 1097 309 
Q 1138 225 1241 169 
Q 1344 113 1538 113 
L 1538 0 
L 72 0 
L 72 113 
Q 291 113 397 181 
Q 475 231 506 341 
Q 522 394 522 644 
L 522 1753 
Q 522 2253 501 2348 
Q 481 2444 426 2487 
Q 372 2531 291 2531 
Q 194 2531 72 2484 
L 41 2597 
L 906 2947 
L 1038 2947 
z
" transform="scale(0.015625)"/>
       <path id="TimesNewRomanPSMT-64" d="M 2222 322 
Q 2013 103 1813 7 
Q 1613 -88 1381 -88 
Q 913 -88 563 304 
Q 213 697 213 1313 
Q 213 1928 600 2439 
Q 988 2950 1597 2950 
Q 1975 2950 2222 2709 
L 2222 3238 
Q 2222 3728 2198 3840 
Q 2175 3953 2125 3993 
Q 2075 4034 2000 4034 
Q 1919 4034 1784 3984 
L 1744 4094 
L 2597 4444 
L 2738 4444 
L 2738 1134 
Q 2738 631 2761 520 
Q 2784 409 2836 365 
Q 2888 322 2956 322 
Q 3041 322 3181 375 
L 3216 266 
L 2366 -88 
L 2222 -88 
L 2222 322 
z
M 2222 541 
L 2222 2016 
Q 2203 2228 2109 2403 
Q 2016 2578 1861 2667 
Q 1706 2756 1559 2756 
Q 1284 2756 1069 2509 
Q 784 2184 784 1559 
Q 784 928 1059 592 
Q 1334 256 1672 256 
Q 1956 256 2222 541 
z
" transform="scale(0.015625)"/>
      </defs>
      <use xlink:href="#TimesNewRomanPSMT-52"/>
      <use xlink:href="#TimesNewRomanPSMT-65" x="66.699219"/>
      <use xlink:href="#TimesNewRomanPSMT-77" x="111.083984"/>
      <use xlink:href="#TimesNewRomanPSMT-61" x="183.300781"/>
      <use xlink:href="#TimesNewRomanPSMT-72" x="227.685547"/>
      <use xlink:href="#TimesNewRomanPSMT-64" x="260.986328"/>
     </g>
    </g>
   </g>
   <g id="PolyCollection_1"/>
   <g id="PolyCollection_2"/>
   <g id="line2d_13">
    <path d="M 78.275199 313.413669 
L 79.31961 322.324938 
L 79.724562 312.59268 
L 81.057146 85.792428 
L 81.23156 307.92574 
L 81.493277 82.339452 
L 82.130468 85.792463 
L 82.345133 45.763188 
L 83.526544 306.081744 
L 83.756136 71.35009 
L 85.332485 78.867893 
L 85.978368 304.275089 
L 86.299609 90.68314 
L 87.924521 92.174962 
L 88.90544 304.402397 
L 89.829291 87.284644 
L 90.20382 88.245499 
L 90.451365 70.50937 
L 91.148647 299.494057 
L 92.005037 48.637031 
L 92.389015 88.921735 
L 92.515055 84.817386 
L 92.586106 295.905821 
L 92.875978 74.829872 
L 93.500131 86.463734 
L 94.19231 88.104004 
L 94.584791 87.91197 
L 95.930035 69.129188 
L 96.312879 295.317992 
L 97.487676 25.763588 
L 97.891683 283.146113 
L 98.299092 89.121249 
L 98.881861 75.826747 
L 99.201213 84.173964 
L 99.347283 57.863982 
L 101.148878 89.940609 
L 101.652281 77.505121 
L 102.073674 93.1021 
L 102.2496 302.030561 
L 102.968235 294.469854 
L 103.892842 83.325231 
L 104.584644 318.495005 
L 105.23374 59.496397 
L 106.505287 77.342643 
L 106.801963 313.7216 
L 107.579366 83.165328 
L 111.157045 77.506312 
L 111.245103 31.274365 
L 112.573529 83.992053 
L 112.78517 72.307739 
L 113.064461 81.673103 
L 114.229998 76.506136 
L 114.496817 266.700125 
L 114.589599 30.400665 
L 115.375884 83.992053 
L 116.748905 278.209552 
L 116.929367 92.174962 
L 118.475292 312.737853 
L 118.609835 91.36442 
L 118.890449 90.682737 
L 119.553339 23.1235 
L 120.016871 306.078661 
L 120.186939 291.920438 
L 120.428437 300.19393 
L 120.891969 302.721974 
L 121.28804 84.817386 
L 122.042012 73.337647 
L 122.526141 85.792428 
L 122.969075 74.702564 
L 123.264617 76.685822 
L 123.697536 299.278754 
L 123.869306 78.353153 
L 124.269912 85.792428 
L 124.350033 83.325345 
L 124.772182 291.669513 
L 125.427324 47.547704 
L 126.875176 297.553851 
L 127.03882 89.872204 
L 127.990827 92.297786 
L 128.588335 301.76231 
L 128.649938 90.682746 
L 128.830022 88.921727 
L 129.037884 284.864334 
L 129.17186 81.352018 
L 130.107805 309.296638 
L 130.334752 86.281613 
L 130.622735 311.7712 
L 130.837967 95.396363 
L 131.040538 43.169673 
L 131.345905 318.303899 
L 131.740087 75.538818 
L 132.138237 320.723297 
L 134.202871 76.372251 
L 134.559638 75.850427 
L 134.935868 90.682737 
L 135.515802 85.792472 
L 136.223477 22.32 
L 136.525066 85.79248 
L 136.794152 83.325301 
L 137.183421 294.263291 
L 137.529227 27.600158 
L 138.205534 90.552066 
L 138.515437 88.921928 
L 138.588944 80.848873 
L 138.665097 306.078836 
L 138.883541 27.600158 
L 139.362379 73.990168 
L 139.711587 94.01154 
L 139.863893 75.827447 
L 140.24976 74.176309 
L 140.41775 92.388566 
L 140.727653 88.10509 
L 141.014313 86.463778 
L 141.374859 89.940565 
L 141.451579 309.587142 
L 141.533023 93.790002 
L 143.426455 59.791262 
L 143.75979 300.958809 
L 146.429491 304.586462 
L 146.809689 300.081886 
L 146.957838 94.594325 
L 147.457084 73.149449 
L 148.513589 88.725217 
L 148.838798 75.668569 
L 149.372058 305.974324 
L 149.526821 324.72 
L 149.945001 287.412424 
L 150.12225 73.337647 
L 151.22354 309.588193 
L 151.326715 91.364429 
L 152.109598 80.848926 
L 152.328798 72.189793 
L 153.028347 78.037165 
L 153.319165 50.989452 
L 153.616596 93.790002 
L 154.409494 79.185028 
L 154.892868 312.086365 
L 155.252846 285.944291 
L 156.18898 307.750581 
L 156.61453 62.136485 
L 156.843745 81.352062 
L 157.504179 85.642298 
L 157.745676 88.9217 
L 158.377576 308.58482 
L 159.323914 297.657478 
L 159.911596 24.271363 
L 160.92086 311.909788 
L 161.392328 83.992053 
L 161.580159 91.491299 
L 161.758921 78.353153 
L 162.086586 83.325161 
L 162.374569 90.343436 
L 162.497208 81.673103 
L 162.89498 322.324938 
L 162.985494 315.866819 
L 163.661234 77.505121 
L 164.101901 80.848873 
L 164.449597 81.683367 
L 164.5129 92.388566 
L 165.268384 306.238976 
L 165.657652 87.284714 
L 166.838874 91.491299 
L 168.578488 72.307739 
L 168.971158 83.167342 
L 169.032005 91.491299 
L 170.400491 79.012295 
L 171.343428 88.104022 
L 171.431108 80.677253 
L 171.891049 88.106027 
L 172.026348 85.00216 
L 172.442828 82.337403 
L 174.594008 30.400665 
L 174.729686 87.284644 
L 175.452667 81.673199 
L 176.265595 86.611771 
L 176.530525 86.611954 
L 176.766353 80.845055 
L 178.271084 62.347908 
L 178.733104 48.403276 
L 179.254837 84.149075 
L 179.717235 295.113101 
L 180.558319 80.015668 
L 181.007301 25.763588 
L 181.238783 77.520088 
L 181.89317 82.499933 
L 182.147706 278.209552 
L 182.401864 86.282778 
L 182.632024 84.971702 
L 182.714224 70.815532 
L 184.220466 64.690766 
L 185.375233 282.286 
L 186.624293 80.845038 
L 186.891868 316.037861 
L 186.98654 90.682754 
L 187.114091 88.9217 
L 187.180418 89.737715 
L 188.940252 74.144318 
L 189.353708 310.417563 
L 189.596717 81.673103 
L 189.893959 94.01154 
L 190.038329 293.412658 
L 190.359381 77.342748 
L 190.664749 80.848873 
L 191.02983 65.540576 
L 193.025303 81.507989 
L 193.096165 89.737715 
L 193.862986 91.36442 
L 194.600139 295.962079 
L 194.814048 306.258347 
L 194.966921 299.545349 
L 195.780416 88.9217 
L 196.264734 90.682737 
L 197.402872 298.701713 
L 197.491875 77.52007 
L 197.713909 45.763188 
L 199.509646 307.092595 
L 199.596948 90.682746 
L 200.876054 90.551979 
L 200.962789 70.621413 
L 201.676322 271.048113 
L 202.144011 94.594325 
L 202.481692 86.611771 
L 203.143448 83.992053 
L 203.644395 301.185935 
L 203.729807 87.477878 
L 204.109061 82.337263 
L 204.749086 84.174235 
L 205.452226 94.820102 
L 205.871729 71.46504 
L 206.265343 67.377164 
L 206.922942 89.121231 
L 207.154236 22.32 
L 207.489838 305.399272 
L 208.12325 91.36442 
L 208.733608 277.975805 
L 209.289732 73.149449 
L 209.800506 90.758279 
L 210.484371 78.342714 
L 210.793707 312.086356 
L 210.955839 68.864152 
L 211.126286 84.173841 
L 211.386869 81.681948 
L 211.986834 89.737715 
L 212.653125 27.600158 
L 213.387255 93.200999 
L 213.722858 90.759847 
L 213.867605 85.6413 
L 214.064507 83.165328 
L 214.436957 312.91711 
L 214.662204 28.393236 
L 214.763867 291.70901 
L 214.823391 83.165328 
L 216.348341 290.984318 
L 217.023136 308.751755 
L 217.48081 87.477878 
L 218.049028 96.43093 
L 218.105529 88.103987 
L 218.825298 80.848873 
L 219.372919 94.01154 
L 220.340043 73.99171 
L 221.02731 90.682737 
L 221.314726 92.388566 
L 222.032983 79.012295 
L 222.384837 57.22775 
L 222.826259 306.806286 
L 223.174144 90.682746 
L 224.238775 74.829872 
L 224.483863 307.094373 
L 224.888626 79.012295 
L 224.967992 89.121266 
L 225.069088 67.377164 
L 227.662636 88.103987 
L 228.144498 76.506136 
L 228.708748 88.9217 
L 229.221222 89.737724 
L 229.537361 49.266573 
L 229.700816 306.915256 
L 229.867105 93.790002 
L 230.363328 87.284644 
L 230.573835 91.574294 
L 230.712536 91.491334 
L 230.937405 94.01154 
L 232.08518 318.304188 
L 232.256004 42.343561 
L 233.139228 308.46641 
L 233.21368 305.145287 
L 233.301738 83.165328 
L 234.404539 82.337263 
L 234.691766 79.697867 
L 234.973703 312.737888 
L 235.613161 80.845038 
L 235.937237 91.36442 
L 236.70727 304.306975 
L 236.95009 82.337289 
L 237.164377 77.342976 
L 237.409087 92.983524 
L 237.783805 73.341431 
L 239.290803 35.424806 
L 240.194057 307.750563 
L 240.273989 294.263291 
L 240.627921 55.291818 
L 240.778905 68.226133 
L 240.941604 303.748834 
L 241.290245 73.990168 
L 241.581062 76.68584 
L 241.945576 83.325161 
L 242.082576 77.520237 
L 243.21221 70.81667 
L 243.516822 77.521603 
L 244.021549 294.469854 
L 245.520421 88.724946 
L 245.722047 299.545349 
L 245.806515 283.372114 
L 246.209389 27.575094 
L 246.566344 77.207095 
L 247.190307 288.510028 
L 247.512304 79.697175 
L 247.832411 24.271363 
L 248.125118 79.186368 
L 248.853013 78.353153 
L 249.000217 23.1235 
L 249.13117 22.32 
L 249.208078 71.35009 
L 249.494361 53.509807 
L 249.714505 73.337647 
L 250.310502 49.212626 
L 250.622294 83.32517 
L 251.603591 288.265422 
L 251.963948 282.278836 
L 252.099625 78.353153 
L 252.461115 86.611771 
L 252.52782 61.200046 
L 252.682961 84.149092 
L 252.908774 29.526474 
L 253.086779 71.657233 
L 253.34415 41.718749 
L 253.911046 89.060218 
L 254.138371 87.9119 
L 254.52386 89.872257 
L 255.958863 86.463751 
L 256.633091 87.284662 
L 257.113251 90.551996 
L 257.597758 74.830126 
L 257.978712 91.36442 
L 258.788617 72.457983 
L 258.882911 305.399281 
L 259.054492 93.200999 
L 260.109863 311.254473 
L 260.834544 312.916996 
L 261.569808 73.149449 
L 262.934704 83.99207 
L 264.38369 281.425235 
L 264.449072 94.594325 
L 264.608559 77.520526 
L 265.271449 35.424806 
L 265.420732 87.284653 
L 265.737815 88.9217 
L 266.481016 93.790002 
L 267.057927 87.477887 
L 267.124064 68.284615 
L 267.96496 305.141915 
L 268.594025 89.739292 
L 269.012394 80.033384 
L 269.076832 93.200999 
L 269.224602 22.32 
L 269.401852 258.895519 
L 269.827779 92.388566 
L 271.802278 74.176782 
L 271.866526 81.507901 
L 272.572122 81.508532 
L 272.697973 90.551979 
L 272.989357 63.840133 
L 274.178705 294.263291 
L 274.661889 80.015668 
L 275.040575 88.921735 
L 275.166237 78.178249 
L 275.332905 85.792454 
L 275.492769 76.506565 
L 276.533212 80.014617 
L 276.834612 83.992053 
L 276.979926 83.16644 
L 277.189488 85.6413 
L 277.891683 309.417894 
L 277.952908 85.641983 
L 278.716517 84.973514 
L 278.865043 295.962079 
L 279.805146 82.337263 
L 279.890558 94.820102 
L 279.961609 89.940574 
L 280.283984 89.940565 
L 280.620153 82.51384 
L 281.101636 87.286308 
L 282.457462 73.990168 
L 282.940079 94.01154 
L 283.017933 83.992228 
L 283.667974 25.763588 
L 284.086343 79.012295 
L 284.498665 93.790002 
L 284.890579 73.338252 
L 286.678568 88.103987 
L 286.841645 78.342714 
L 287.242252 27.600158 
L 287.66988 83.992053 
L 288.605258 90.758279 
L 289.13455 91.364429 
L 290.357155 48.511449 
L 291.253984 25.763588 
L 291.503796 90.551979 
L 291.954101 84.817386 
L 292.609999 297.657478 
L 292.692388 84.173841 
L 292.77232 294.397807 
L 292.851875 88.104066 
L 293.578068 88.105913 
L 295.335823 91.364429 
L 295.392891 307.750563 
L 295.474902 91.574294 
L 295.969991 92.983524 
L 296.792934 286.700913 
L 296.923698 267.665517 
L 297.887043 301.185935 
L 297.958283 52.713471 
L 298.353787 88.9217 
L 298.431074 90.758279 
L 298.567885 81.682605 
L 300.043326 73.992472 
L 300.646125 76.666451 
L 301.563929 72.457983 
L 301.63876 306.078889 
L 302.282564 316.226489 
L 302.35456 79.845369 
L 302.773118 89.940565 
L 303.023119 92.983524 
L 303.463408 74.144318 
L 303.792397 89.940565 
L 305.048449 79.179379 
L 305.408617 95.626589 
L 306.268409 304.558552 
L 307.677145 46.911051 
L 309.116682 299.349365 
L 309.693782 316.226489 
L 309.790154 94.820102 
L 310.029762 278.948483 
L 311.395603 79.845369 
L 311.703806 73.301663 
L 312.091184 77.520815 
L 312.234609 91.364534 
L 312.357626 313.746366 
L 312.519191 27.600158 
L 312.668473 83.992053 
L 313.039601 89.121301 
L 313.927738 295.249245 
L 314.240286 96.430904 
L 314.893917 89.739204 
L 315.106503 91.36442 
L 315.187947 313.746366 
L 315.753709 306.078687 
L 316.905642 81.507919 
L 317.184176 86.463734 
L 317.331569 85.828631 
L 318.482746 94.820102 
L 319.445146 82.513831 
L 321.156604 88.300312 
L 322.276035 289.273095 
L 322.360124 85.828631 
L 322.859559 75.85048 
L 322.954798 93.201156 
L 323.305517 75.828682 
L 323.663984 296.09987 
L 323.962172 80.015081 
L 324.111643 315.401927 
L 325.320076 27.600158 
L 326.167396 86.463734 
L 326.691208 79.847375 
L 326.761314 75.66856 
L 327.30081 68.284615 
L 327.515286 312.086356 
L 329.359587 297.798675 
L 329.609021 80.015799 
L 330.153241 74.829872 
L 330.381322 299.494057 
L 330.47108 74.986045 
L 330.62263 34.554678 
L 330.6848 269.407365 
L 332.203892 315.402365 
L 332.573697 314.574431 
L 333.203329 304.558552 
L 333.366406 73.301636 
L 333.541199 74.829872 
L 334.077104 68.084962 
L 335.105453 29.526474 
L 335.257948 71.46504 
L 335.664602 86.611771 
L 336.289699 71.351281 
L 336.704478 44.077808 
L 336.779308 85.6413 
L 337.15327 29.268864 
L 337.523831 88.9217 
L 338.028557 67.237692 
L 338.97395 85.792428 
L 339.284987 73.150465 
L 340.31806 67.237692 
L 340.475468 77.52007 
L 340.618515 70.815514 
L 340.854155 92.174962 
L 341.211866 22.32 
L 342.458281 86.611771 
L 342.824307 77.52007 
L 344.175975 74.176309 
L 344.466415 89.872204 
L 344.703566 277.1119 
L 345.088489 76.685822 
L 345.599073 93.1021 
L 345.918235 83.325318 
L 346.053156 71.657233 
L 346.488343 62.988712 
L 346.566386 76.685919 
L 347.034831 65.745467 
L 347.594546 311.770324 
L 348.049574 92.983524 
L 348.289371 315.365032 
L 348.717756 76.372208 
L 349.523881 295.113101 
L 349.693761 79.185028 
L 350.447544 89.737715 
L 350.67468 56.986131 
L 350.837757 288.292491 
L 351.203972 65.540594 
L 352.429789 315.401174 
L 352.578883 314.390375 
L 353.068303 82.499907 
L 353.328886 295.113101 
L 353.471744 85.792437 
L 354.502171 84.817386 
L 355.433014 310.250154 
L 355.832109 94.594325 
L 356.760684 309.417894 
L 356.837404 75.850427 
L 357.247459 303.562693 
L 357.325123 88.245499 
L 358.400147 22.32 
L 358.702113 79.185142 
L 358.830988 316.226489 
L 358.986317 80.525494 
L 359.228571 290.12907 
L 359.460809 87.284644 
L 360.706657 78.178056 
L 361.518074 73.337674 
L 361.572685 67.439114 
L 362.040941 72.497952 
L 362.535085 27.575094 
L 364.27092 290.002248 
L 364.737853 52.713471 
L 364.906599 79.012505 
L 366.496931 75.850427 
L 366.701391 79.697175 
L 367.013373 76.372785 
L 367.091604 79.845545 
L 367.164545 74.702564 
L 367.611259 56.131627 
L 368.007141 90.551987 
L 368.662851 84.644565 
L 369.191198 92.174962 
L 369.518485 87.429493 
L 370.066674 91.491492 
L 370.360515 81.507893 
L 370.65908 84.971509 
L 371.612409 73.149449 
L 371.776809 89.059762 
L 371.983348 74.829872 
L 372.873564 73.337647 
L 373.178365 92.297786 
L 373.504708 77.342652 
L 373.648699 89.872204 
L 374.458982 82.501474 
L 374.599572 306.915177 
L 374.746398 80.015764 
L 375.760953 73.149633 
L 376.910807 70.621659 
L 377.271919 73.149449 
L 377.814061 91.491299 
L 379.765316 285.722424 
L 379.820305 312.737958 
L 379.884175 52.65173 
L 380.382666 84.173841 
L 381.141928 25.763588 
L 381.727342 70.815514 
L 382.287246 81.507893 
L 382.574852 92.983524 
L 383.428408 81.352789 
L 383.838084 69.129188 
L 384.281208 83.823681 
L 385.645915 68.284615 
L 386.788021 79.697333 
L 387.205257 92.983524 
L 387.568448 86.464382 
L 387.934662 75.85048 
L 388.825634 84.644574 
L 388.887803 79.179327 
L 389.681835 80.014652 
L 389.851148 83.166676 
L 389.925601 92.983524 
L 390.441854 87.284644 
L 390.686753 82.513945 
L 390.775377 67.237709 
L 390.839248 25.763588 
L 391.283316 50.129992 
L 392.953769 78.342714 
L 394.304682 91.36442 
L 394.770859 74.830275 
L 394.913339 317.872837 
L 395.537113 83.165433 
L 400.094577 89.534874 
L 401.140122 85.001906 
L 401.233471 314.389911 
L 402.185478 84.971509 
L 402.256718 94.594325 
L 402.408268 76.666451 
L 402.563031 88.245499 
L 402.830606 94.820102 
L 402.904113 60.556545 
L 403.074182 302.601006 
L 404.807182 298.503864 
L 405.183412 76.506136 
L 405.400722 84.174051 
L 405.666785 66.389563 
L 406.052652 83.001212 
L 406.877864 86.611806 
L 407.531495 298.503864 
L 407.834595 24.271363 
L 408.494084 73.990168 
L 408.94042 321.5253 
L 410.197606 86.613636 
L 410.733511 77.342652 
L 411.039446 87.429484 
L 411.702903 82.337263 
L 411.86409 32.81283 
L 412.558727 90.551979 
L 412.857859 88.103987 
L 413.303817 87.284644 
L 413.682125 316.857178 
L 414.146224 71.465058 
L 414.807602 88.246112 
L 415.355979 309.588193 
L 415.630735 69.129188 
L 416.247895 89.872204 
L 417.397371 76.685831 
L 417.899263 82.499828 
L 418.318199 80.677253 
L 418.654746 92.174962 
L 418.738458 25.763588 
L 420.311405 77.520228 
L 420.371873 85.792428 
L 420.512653 314.545172 
L 421.003017 75.013911 
L 421.209557 264.957239 
L 423.205219 78.178038 
L 423.633414 85.641501 
L 423.939727 22.32 
L 424.785157 70.621413 
L 424.936141 81.673112 
L 426.217136 79.845369 
L 426.291211 83.32517 
L 427.693711 85.792428 
L 427.787815 76.506136 
L 428.019865 22.32 
L 428.568809 310.249769 
L 428.721304 74.82989 
L 429.349046 29.268864 
L 429.524784 86.463997 
L 429.588465 86.463734 
L 430.570707 73.99157 
L 430.737374 308.58482 
L 431.505896 93.1021 
L 431.722828 293.36662 
L 432.644412 22.32 
L 432.840558 80.845038 
L 433.00817 83.992167 
L 433.180317 256.213119 
L 434.209233 74.176309 
L 435.559012 76.506136 
L 436.729274 311.909788 
L 437.192995 84.971518 
L 437.706224 88.104827 
L 438.309213 300.19393 
L 438.622895 87.429476 
L 439.148029 291.669513 
L 439.288053 79.18565 
L 440.041646 85.641309 
L 441.575855 88.245517 
L 441.909379 301.229749 
L 442.256697 78.355632 
L 442.706623 302.070468 
L 443.532591 299.545402 
L 443.899939 24.271363 
L 444.372163 302.600971 
L 444.692459 80.01657 
L 444.773525 88.245499 
L 445.333996 85.792428 
L 445.541102 84.150721 
L 445.751232 93.904138 
L 445.975723 86.612962 
L 446.046773 73.337647 
L 446.135965 90.551979 
L 446.924517 71.657233 
L 446.996513 302.070468 
L 447.160157 86.611928 
L 447.296023 91.149923 
L 447.507286 87.097636 
L 447.587218 87.9119 
L 448.029775 78.353153 
L 448.491039 86.282856 
L 448.612166 77.205291 
L 448.848939 313.413581 
L 450.40847 92.174962 
L 450.55454 287.436512 
L 451.020339 87.284644 
L 451.545096 308.585056 
L 452.397896 71.613445 
L 453.858787 75.668534 
L 454.006368 89.059762 
L 455.279616 79.187445 
L 455.517335 81.673252 
L 455.727275 47.489169 
L 457.266964 76.506171 
L 459.16701 73.990168 
L 459.407374 85.792428 
L 460.358625 85.6413 
L 460.994871 91.36442 
L 461.630361 79.845501 
L 461.70368 292.561228 
L 461.932517 316.226507 
L 462.182518 78.17986 
L 463.32538 311.254473 
L 463.953689 81.507893 
L 466.138695 93.200999 
L 466.387562 89.737715 
L 467.018706 69.074279 
L 468.021922 90.551979 
L 468.147584 89.121652 
L 468.215045 22.32 
L 468.763989 317.676669 
L 470.132664 316.857187 
L 471.368875 306.238976 
L 471.921221 317.872837 
L 472.29575 75.668534 
L 472.376627 307.077637 
L 472.873606 22.32 
L 474.105281 83.994575 
L 474.56201 66.389563 
L 474.779887 88.9217 
L 476.610016 302.030525 
L 477.025362 87.284679 
L 478.028767 69.921637 
L 478.34415 307.915239 
L 479.744194 77.505112 
L 480.363622 315.214858 
L 480.706594 72.457983 
L 482.161249 79.179292 
L 482.402179 299.494057 
L 482.464538 82.337263 
L 482.59568 290.984318 
L 482.752332 91.574294 
L 482.805809 93.790002 
L 483.099839 296.09987 
L 484.013675 34.554678 
L 484.43469 36.294408 
L 484.743459 305.399272 
L 486.432997 92.983524 
L 487.38576 88.9217 
L 487.993662 293.545588 
L 488.614979 92.983524 
L 489.42753 80.849425 
L 489.496691 89.05978 
L 490.60913 83.992053 
L 490.823794 74.176318 
L 491.590049 85.792428 
L 491.671871 32.744626 
L 491.88011 76.506153 
L 493.221764 272.783486 
L 493.508613 90.682737 
L 494.516743 83.325161 
L 494.879745 51.10316 
L 495.027138 88.9217 
L 495.164705 89.059762 
L 495.846113 312.89787 
L 496.172456 74.144318 
L 496.503335 87.429476 
L 497.607459 87.284644 
L 497.686635 77.342643 
L 497.849334 89.872204 
L 498.265058 87.285003 
L 500.493147 89.060113 
L 501.142054 86.611771 
L 501.682495 69.776823 
L 501.96821 22.32 
L 502.438923 83.825065 
L 502.878834 82.177324 
L 503.526607 73.990168 
L 503.680424 92.297786 
L 504.767164 89.872204 
L 505.416826 83.32517 
L 506.006209 86.611771 
L 506.415886 80.677244 
L 506.761503 87.429598 
L 507.306668 76.685822 
L 507.685732 77.52007 
L 507.824433 86.282103 
L 507.981463 65.444874 
L 508.058372 79.697727 
L 508.732789 89.872204 
L 508.8696 83.325161 
L 509.339178 77.52007 
L 510.239598 312.072353 
L 510.671572 88.72435 
L 511.26738 82.178726 
L 511.3989 300.388039 
L 512.169122 308.58482 
L 512.317838 24.271363 
L 513.495658 81.673103 
L 514.338632 25.763588 
L 514.477522 76.685822 
L 514.816337 80.015668 
L 514.951069 92.174962 
L 515.715433 277.975805 
L 515.940113 80.848873 
L 518.51741 311.080418 
L 519.03801 311.909788 
L 519.290845 82.337271 
L 519.606039 91.491325 
L 520.733217 88.103987 
L 521.579026 89.737715 
L 522.130426 64.690766 
L 522.745508 75.013911 
L 523.53047 82.499828 
L 523.753449 85.792428 
L 524.135726 85.792428 
L 524.500051 83.823664 
L 524.932214 82.337263 
L 525.097937 76.685822 
L 525.867592 86.281989 
L 525.938643 89.534909 
L 527.291824 89.059832 
L 527.536912 76.687258 
L 528.017639 90.551979 
L 528.959064 73.990168 
L 529.880081 88.103987 
L 530.082841 310.249769 
L 530.237603 89.737715 
L 530.790705 75.014069 
L 531.517843 77.505112 
L 532.145774 83.992053 
L 532.332661 89.940565 
L 532.473629 314.574431 
L 532.74007 87.284644 
L 532.870645 85.6413 
L 533.628774 72.457983 
L 534.419216 82.500958 
L 534.501604 57.007289 
L 535.162416 89.873395 
L 535.457013 54.550058 
L 535.537701 85.792542 
L 536.924328 88.103987 
L 537.288086 77.523275 
L 537.428299 78.867998 
L 537.509743 68.284615 
L 537.752563 86.463734 
L 538.433216 82.500459 
L 539.815497 71.61341 
L 540.540556 33.6398 
L 541.248987 301.880256 
L 541.641846 87.097636 
L 541.941734 85.463917 
L 542.018832 69.668195 
L 542.332892 89.872204 
L 542.790755 67.136753 
L 542.868231 38.868394 
L 542.935124 69.972833 
L 543.166418 89.737715 
L 543.389586 66.592772 
L 544.400739 290.856012 
L 544.796054 296.709269 
L 545.02149 89.059762 
L 546.223687 85.792428 
L 546.285479 87.911961 
L 546.596893 314.217931 
L 546.978603 80.015852 
L 547.536807 23.1235 
L 548.167195 90.682737 
L 548.319501 88.245499 
L 549.102762 24.073566 
L 549.525477 80.015668 
L 549.661532 73.990168 
L 550.087271 87.429476 
L 550.236742 78.039941 
L 550.393584 284.005561 
L 550.907191 62.988712 
L 551.302695 64.690766 
L 551.476354 310.417668 
L 551.642455 78.353153 
L 552.260749 276.483607 
L 553.403233 88.245674 
L 553.725419 74.176309 
L 554.130183 82.337271 
L 554.378672 71.35009 
L 555.521345 90.682754 
L 556.326148 78.353153 
L 556.400034 314.544288 
L 556.525695 74.702564 
L 556.984881 79.845369 
L 557.063869 302.070468 
L 557.44898 303.748834 
L 557.96939 25.763588 
L 558.399286 303.748948 
L 558.654011 83.325424 
L 558.927255 84.644784 
L 559.387196 79.845369 
L 560.400239 89.059762 
L 560.945782 76.686479 
L 562.388532 266.078566 
L 563.896475 78.353425 
L 564.126067 312.897703 
L 564.528941 28.651793 
L 565.075807 88.245499 
L 566.336394 63.749476 
L 567.150457 69.972833 
L 567.973967 83.992053 
L 568.505338 304.275124 
L 568.957531 88.245613 
L 570.786148 78.353258 
L 572.483623 306.258347 
L 573.151427 52.940815 
L 574.347955 24.271363 
L 574.428832 91.491807 
L 575.021994 84.81757 
L 575.339644 89.059841 
L 576.117425 73.337656 
L 576.351553 83.001212 
L 576.425439 80.015992 
L 577.174308 77.52007 
L 577.446796 316.857169 
L 578.146157 82.499828 
L 578.476846 89.872204 
L 579.211921 83.325353 
L 579.280137 72.189793 
L 580.026739 85.792428 
L 580.195107 52.65173 
L 580.790914 287.655519 
L 581.198324 83.824049 
L 582.337217 75.540412 
L 582.933025 73.337647 
L 583.960618 73.338689 
L 584.175282 300.38825 
L 584.447959 88.245849 
L 584.623697 84.149075 
L 584.693236 290.216785 
L 584.904121 77.205291 
L 585.136549 44.317536 
L 585.547926 72.189793 
L 585.547926 72.189793 
" clip-path="url(#p95dc0a7ecc)" style="fill: none; stroke: #1f77b4; stroke-opacity: 0.1; stroke-width: 1.5; stroke-linecap: round"/>
   </g>
   <g id="line2d_14">
    <path d="M 78.275199 313.413669 
L 79.724562 313.544958 
L 81.057146 309.780453 
L 81.23156 309.749797 
L 81.493277 305.990948 
L 82.130468 302.351304 
L 82.345133 298.110178 
L 83.526544 298.241939 
L 83.756136 294.491661 
L 85.332485 290.927631 
L 85.978368 291.148251 
L 86.299609 287.834778 
L 87.924521 284.600731 
L 88.90544 284.928031 
L 89.829291 281.661199 
L 90.20382 278.464245 
L 90.451365 275.026974 
L 91.148647 275.431389 
L 92.005037 271.682722 
L 92.389015 268.661879 
L 92.515055 265.623127 
L 92.586106 266.123667 
L 92.875978 262.961787 
L 94.19231 257.202472 
L 94.584791 254.404282 
L 95.462913 251.452588 
L 95.930035 248.438978 
L 96.312879 249.213837 
L 97.487676 245.520445 
L 97.891683 246.142357 
L 98.299092 243.546966 
L 98.881861 240.774731 
L 99.201213 238.186289 
L 99.347283 235.205755 
L 100.796457 232.706355 
L 101.148878 230.346591 
L 102.073674 225.593538 
L 102.2496 226.85696 
L 102.968235 227.974529 
L 103.892842 225.583631 
L 104.584644 227.119356 
L 105.23374 224.348729 
L 106.505287 221.918876 
L 106.801963 223.436277 
L 107.579366 221.117749 
L 111.157045 218.744006 
L 111.245103 215.645334 
L 112.573529 213.469247 
L 113.064461 206.782181 
L 114.229998 204.628858 
L 114.496817 205.654829 
L 114.589599 202.758066 
L 115.375884 200.794991 
L 116.748905 202.074571 
L 116.929367 200.258048 
L 118.475292 202.117219 
L 118.609835 200.286594 
L 118.890449 198.47496 
L 119.553339 195.576589 
L 120.016871 197.403069 
L 120.428437 200.63854 
L 120.891969 202.325869 
L 121.28804 200.38358 
L 122.042012 198.283647 
L 122.969075 194.412359 
L 123.264617 192.466466 
L 123.697536 194.231958 
L 123.869306 192.316606 
L 124.269912 190.555876 
L 124.350033 188.78347 
L 124.772182 190.484066 
L 125.427324 188.121482 
L 126.875176 189.930281 
L 127.03882 188.276429 
L 127.990827 186.690005 
L 128.588335 188.592026 
L 128.649938 186.973691 
L 128.830022 185.352998 
L 129.037884 186.997813 
L 129.17186 185.251602 
L 130.107805 187.301933 
L 130.334752 185.632175 
L 130.622735 187.717118 
L 130.837967 186.191155 
L 131.040538 183.827164 
L 131.345905 186.04992 
L 131.740087 184.22329 
L 132.138237 186.479488 
L 134.202871 184.659534 
L 134.86425 181.270139 
L 134.935868 179.772827 
L 135.515802 178.219433 
L 136.525066 174.157457 
L 136.794152 172.656099 
L 137.183421 174.666135 
L 137.529227 172.235292 
L 138.205534 170.885157 
L 138.515437 169.530392 
L 138.588944 168.064582 
L 138.665097 170.34581 
L 138.883541 165.708145 
L 139.711587 163.032135 
L 139.863893 161.590735 
L 140.24976 160.145869 
L 140.41775 157.80441 
L 141.374859 154.408715 
L 141.451579 156.973648 
L 141.533023 155.92929 
L 143.426455 154.340232 
L 143.75979 156.763679 
L 146.429491 159.207031 
L 146.809689 161.535541 
L 146.957838 160.429075 
L 147.457084 158.986436 
L 148.513589 156.56831 
L 148.838798 155.231124 
L 149.372058 157.722747 
L 149.526821 160.483032 
L 149.945001 162.581039 
L 150.12225 161.105941 
L 151.22354 163.560194 
L 151.326715 162.366875 
L 152.109598 161.019471 
L 152.328798 159.551212 
L 153.028347 158.203872 
L 153.319165 156.431733 
L 153.616596 155.396333 
L 154.326539 154.150371 
L 154.409494 152.911275 
L 154.830887 155.468731 
L 154.892868 158.057452 
L 155.252846 160.171284 
L 156.18898 162.610611 
L 156.843745 159.634215 
L 157.504179 158.411208 
L 157.745676 157.262621 
L 158.377576 159.763815 
L 159.323914 162.043049 
L 159.911596 159.765831 
L 160.92086 162.280607 
L 161.392328 160.986581 
L 162.086586 157.248633 
L 162.374569 156.142762 
L 162.497208 154.911858 
L 162.89498 157.679016 
L 162.985494 160.293691 
L 163.661234 158.925285 
L 164.449597 156.379371 
L 164.5129 155.321671 
L 165.268384 157.816172 
L 165.657652 156.650363 
L 166.838874 155.573354 
L 168.492887 154.224871 
L 168.578488 152.870869 
L 168.896706 151.680359 
L 169.032005 149.57177 
L 170.400491 148.405498 
L 171.343428 147.40878 
L 171.431108 146.305779 
L 171.891049 145.3438 
L 172.026348 144.346417 
L 172.442828 143.321475 
L 174.594008 141.455015 
L 174.729686 140.559637 
L 175.452667 139.586308 
L 176.265595 138.710695 
L 176.766353 136.907336 
L 178.271084 135.674949 
L 178.733104 134.232442 
L 179.254837 133.404618 
L 179.717235 136.077485 
L 180.558319 135.150843 
L 181.238783 132.4201 
L 181.89317 131.594974 
L 182.147706 134.018355 
L 182.632024 132.43169 
L 182.714224 131.413241 
L 184.220466 130.310391 
L 185.375233 132.822384 
L 186.624293 131.963254 
L 186.891868 135.00581 
L 187.180418 132.799853 
L 188.940252 131.83034 
L 189.353708 134.782195 
L 189.893959 133.244973 
L 190.038329 135.892373 
L 191.02983 132.898727 
L 193.025303 132.049293 
L 193.096165 131.349928 
L 193.862986 130.689011 
L 194.525309 133.368053 
L 194.600139 136.055557 
L 194.966921 141.524637 
L 195.780416 140.655167 
L 196.264734 139.829176 
L 197.402872 142.455169 
L 197.713909 139.801387 
L 199.509646 142.566531 
L 199.596948 141.708948 
L 200.876054 140.863378 
L 200.962789 139.702354 
L 201.676322 141.873358 
L 202.144011 141.091887 
L 202.481692 140.191389 
L 203.143448 139.262474 
L 203.644395 141.938895 
L 203.729807 141.038713 
L 204.109061 140.068441 
L 204.749086 139.14457 
L 205.452226 138.411934 
L 206.265343 136.149536 
L 206.529895 135.152471 
L 206.922942 134.391624 
L 207.154236 132.5392 
L 207.489838 135.396392 
L 208.12325 134.668591 
L 208.733608 137.037305 
L 209.800506 135.233819 
L 210.484371 134.29347 
L 210.793707 137.232196 
L 211.126286 134.445341 
L 211.386869 133.573219 
L 211.986834 132.848665 
L 212.653125 131.10902 
L 213.387255 130.482441 
L 213.722858 129.825869 
L 214.064507 128.336369 
L 214.436957 131.38729 
L 214.662204 129.684909 
L 214.763867 132.362993 
L 214.823391 131.549809 
L 216.348341 134.18509 
L 217.023136 137.070489 
L 217.48081 136.250777 
L 218.049028 135.592598 
L 218.105529 134.807662 
L 219.372919 133.256207 
L 221.02731 131.589126 
L 221.314726 130.941183 
L 222.032983 130.082854 
L 222.384837 128.878638 
L 222.826259 131.81959 
L 223.174144 131.139643 
L 224.238775 130.208903 
L 224.483863 133.132629 
L 224.888626 132.238078 
L 225.069088 130.465102 
L 227.662636 129.764919 
L 228.144498 128.884608 
L 229.221222 127.587926 
L 229.537361 126.293358 
L 229.700816 129.278844 
L 229.867105 128.692252 
L 230.363328 128.007829 
L 230.937405 126.269841 
L 232.08518 129.443962 
L 232.256004 128.004286 
L 233.139228 130.987131 
L 233.21368 133.865778 
L 233.301738 133.027754 
L 234.404539 132.189895 
L 234.691766 131.322258 
L 234.973703 134.320863 
L 235.613161 133.436966 
L 235.937237 132.741552 
L 236.70727 135.577344 
L 237.783805 132.088181 
L 239.290803 130.49044 
L 240.194057 133.420359 
L 240.273989 136.07892 
L 240.525502 135.24524 
L 240.778905 132.837786 
L 240.941604 135.662762 
L 241.945576 132.853004 
L 242.082576 131.938412 
L 243.21221 130.928136 
L 243.516822 130.045383 
L 244.021549 132.763143 
L 245.520421 132.035239 
L 245.806515 137.259672 
L 246.078247 136.476408 
L 246.209389 134.676387 
L 246.566344 133.726481 
L 247.190307 136.284887 
L 247.512304 135.349553 
L 247.832411 133.513549 
L 248.125118 132.615579 
L 248.853013 131.71868 
L 249.208078 127.206383 
L 249.714505 125.118 
L 250.622294 123.193313 
L 251.603591 125.921777 
L 251.963948 128.506192 
L 252.099625 127.677216 
L 252.461115 126.998448 
L 252.52782 125.910871 
L 252.682961 125.220594 
L 253.34415 120.220557 
L 253.911046 119.70551 
L 254.138371 119.179996 
L 254.52386 118.69557 
L 255.958863 118.162813 
L 257.113251 117.204489 
L 257.908417 116.075126 
L 257.978712 115.666685 
L 258.788617 114.952491 
L 258.882911 118.100372 
L 259.054492 117.688812 
L 260.109863 120.888245 
L 260.834544 124.062273 
L 261.569808 123.220739 
L 262.934704 122.572331 
L 264.38369 125.197999 
L 264.608559 123.912457 
L 265.737815 121.324031 
L 266.481016 120.868923 
L 267.057927 120.317005 
L 267.124064 119.456966 
L 267.96496 122.526139 
L 268.594025 121.984207 
L 269.012394 121.290805 
L 269.224602 119.198304 
L 269.401852 121.507349 
L 269.827779 121.026047 
L 271.802278 120.251679 
L 271.866526 119.611286 
L 272.572122 118.981488 
L 273.084029 117.022289 
L 274.178705 119.951892 
L 275.040575 118.789805 
L 275.492769 116.905254 
L 276.533212 116.295492 
L 276.834612 115.761551 
L 277.189488 114.733838 
L 277.891683 117.951756 
L 277.952908 117.417711 
L 278.716517 116.881443 
L 278.865043 119.841453 
L 279.805146 119.221549 
L 279.961609 118.340903 
L 281.101636 116.791172 
L 282.940079 115.718888 
L 283.017933 115.194481 
L 283.667974 113.716284 
L 284.086343 113.142665 
L 284.498665 112.822786 
L 284.890579 112.170149 
L 286.678568 111.772361 
L 287.242252 109.837662 
L 287.66988 109.410462 
L 288.605258 109.102161 
L 289.13455 108.808976 
L 290.357155 107.812322 
L 291.503796 106.193266 
L 291.954101 105.839946 
L 292.609999 109.010484 
L 292.692388 108.59996 
L 292.77232 111.670999 
L 292.851875 111.281463 
L 293.578068 110.898396 
L 295.335823 110.575521 
L 295.392891 113.834612 
L 295.474902 113.466673 
L 295.969991 113.128109 
L 296.792934 115.997081 
L 296.923698 118.503997 
L 297.887043 121.523533 
L 297.958283 120.386177 
L 298.353787 119.23694 
L 298.567885 118.153266 
L 300.043326 117.423335 
L 300.646125 116.749668 
L 301.563929 116.017574 
L 301.63876 119.159083 
L 302.282564 122.416396 
L 302.35456 121.712742 
L 303.023119 120.7214 
L 303.792397 119.455481 
L 305.048449 118.789761 
L 305.408617 117.503278 
L 306.268409 120.595101 
L 307.677145 119.377183 
L 309.116682 122.35193 
L 309.693782 125.556468 
L 309.790154 125.048429 
L 310.029762 127.592231 
L 311.395603 126.803027 
L 312.234609 124.560821 
L 312.357626 127.687855 
L 312.668473 125.338613 
L 312.957968 124.712816 
L 313.039601 124.124526 
L 313.927738 126.953034 
L 314.240286 126.448536 
L 314.893917 125.84177 
L 315.106503 125.271896 
L 315.187947 128.387177 
L 315.753709 131.324227 
L 316.905642 130.500817 
L 317.184176 129.772931 
L 317.331569 129.046579 
L 318.482746 128.480852 
L 319.445146 127.721067 
L 321.156604 127.069484 
L 322.276035 129.750535 
L 322.360124 129.024553 
L 322.859559 128.145643 
L 322.954798 127.568048 
L 323.305517 126.712852 
L 323.663984 129.512638 
L 323.962172 128.694496 
L 324.111643 131.780569 
L 325.320076 130.058579 
L 326.167396 129.338003 
L 326.691208 128.519976 
L 326.761314 127.646399 
L 327.30081 126.665213 
L 327.515286 129.730025 
L 329.359587 132.508019 
L 329.609021 131.640379 
L 330.153241 130.701362 
L 330.381322 133.491324 
L 330.62263 130.904962 
L 330.6848 133.194258 
L 332.203892 136.205963 
L 332.573697 139.154202 
L 333.203329 141.888158 
L 333.541199 139.664833 
L 334.077104 138.481695 
L 335.105453 136.680782 
L 335.257948 135.602836 
L 336.289699 133.744442 
L 336.704478 132.262349 
L 336.779308 131.491753 
L 337.15327 129.802118 
L 338.028557 128.103455 
L 338.97395 127.404099 
L 339.284987 126.507345 
L 340.31806 125.527681 
L 340.854155 123.319512 
L 341.211866 121.650098 
L 342.458281 121.070952 
L 342.824307 120.351103 
L 344.175975 119.587883 
L 344.466415 119.096715 
L 344.703566 121.708536 
L 345.088489 120.964359 
L 345.599073 120.503826 
L 345.918235 119.889305 
L 346.053156 119.092081 
L 346.488343 118.164752 
L 346.566386 117.479152 
L 347.034831 116.62405 
L 347.594546 119.849608 
L 348.049574 119.40554 
L 348.289371 122.64454 
L 348.717756 121.879708 
L 349.523881 124.74307 
L 349.693761 123.990045 
L 350.447544 123.42389 
L 350.67468 122.325746 
L 350.837757 125.068998 
L 351.203972 124.085057 
L 352.429789 127.247307 
L 352.578883 130.340581 
L 353.068303 129.549826 
L 353.328886 132.286409 
L 353.471744 131.517914 
L 354.502171 130.746004 
L 355.433014 133.713015 
L 355.832109 133.066425 
L 356.760684 135.981325 
L 356.837404 134.987426 
L 357.247459 137.773794 
L 357.325123 136.955145 
L 358.400147 135.060349 
L 358.702113 134.136792 
L 358.830988 137.146539 
L 358.986317 136.210654 
L 359.228571 138.75476 
L 359.460809 137.904014 
L 360.706657 136.916808 
L 361.518074 135.865913 
L 361.572685 134.734892 
L 362.040941 133.706182 
L 362.535085 131.951949 
L 364.27092 134.564351 
L 364.737853 133.211444 
L 364.906599 132.315594 
L 366.496931 131.382285 
L 367.091604 128.809928 
L 367.164545 127.915591 
L 367.842741 125.943277 
L 368.007141 125.358297 
L 369.191198 124.147982 
L 369.518485 123.541064 
L 370.066674 123.011319 
L 370.65908 121.707894 
L 371.612409 120.905275 
L 371.983348 119.626026 
L 372.873564 118.860929 
L 373.178365 118.421869 
L 373.648699 117.282202 
L 374.458982 116.707313 
L 374.599572 119.851245 
L 374.746398 119.192807 
L 376.910807 117.641514 
L 377.271919 116.906107 
L 377.814061 116.486028 
L 379.765316 119.283324 
L 379.820305 122.480921 
L 379.884175 121.32672 
L 380.382666 120.712622 
L 381.141928 119.143217 
L 382.574852 117.32642 
L 383.428408 116.731814 
L 383.838084 115.944994 
L 384.281208 115.414063 
L 385.645915 114.635064 
L 385.968668 113.924706 
L 387.205257 113.02218 
L 387.568448 112.583208 
L 387.868525 111.976057 
L 387.934662 111.37894 
L 388.825634 110.93705 
L 388.887803 110.412129 
L 389.681835 109.909691 
L 389.925601 109.195193 
L 390.441854 108.833035 
L 390.686753 108.398008 
L 390.775377 107.717673 
L 390.839248 106.36306 
L 391.283316 105.433588 
L 392.953769 104.985805 
L 394.304682 104.760658 
L 394.699808 104.32417 
L 394.770859 103.836668 
L 394.913339 107.374456 
L 395.537113 106.974307 
L 400.094577 106.686052 
L 401.140122 106.327636 
L 401.233471 109.766682 
L 402.185478 109.356844 
L 402.563031 108.240482 
L 402.830606 108.018657 
L 402.904113 107.234159 
L 403.074182 110.463364 
L 404.807182 113.571471 
L 405.400722 112.483039 
L 405.666785 111.721164 
L 406.052652 111.246454 
L 406.877864 110.83927 
L 407.531495 113.941164 
L 407.754096 113.483981 
L 407.834595 112.009392 
L 408.494084 111.380975 
L 408.94042 114.854435 
L 410.197606 114.387645 
L 411.702903 112.827423 
L 411.86409 111.504868 
L 412.558727 111.158539 
L 413.303817 110.389161 
L 413.682125 113.801855 
L 414.146224 113.102074 
L 414.807602 112.691231 
L 415.355979 115.945727 
L 415.630735 115.171899 
L 416.247895 114.753723 
L 417.397371 114.124501 
L 418.654746 112.712405 
L 418.738458 111.275235 
L 420.311405 110.717301 
L 420.371873 110.305319 
L 420.512653 113.681185 
L 421.003017 113.042056 
L 421.209557 115.553051 
L 423.205219 114.935282 
L 423.633414 114.451087 
L 424.180091 111.636292 
L 424.785157 110.95836 
L 424.936141 110.474306 
L 426.217136 109.968043 
L 426.291211 109.527664 
L 427.693711 109.135347 
L 428.019865 107.169971 
L 428.568809 110.526662 
L 428.721304 109.936632 
L 429.588465 107.877448 
L 430.570707 107.317351 
L 430.737374 110.644086 
L 431.505896 110.354136 
L 431.722828 113.379135 
L 432.840558 111.36115 
L 433.00817 110.90877 
L 433.180317 113.310495 
L 434.209233 112.663649 
L 435.559012 112.066004 
L 436.729274 115.369207 
L 437.706224 114.42442 
L 438.309213 117.49499 
L 438.622895 116.998039 
L 439.148029 119.885171 
L 439.288053 118.65825 
L 440.041646 118.112515 
L 441.575855 117.618846 
L 441.909379 120.653737 
L 442.256697 119.954595 
L 442.706623 122.964774 
L 443.532591 125.883462 
L 443.899939 124.203924 
L 444.372163 127.152635 
L 444.692459 126.373527 
L 444.773525 125.743311 
L 445.333996 125.082966 
L 445.541102 124.4064 
L 445.751232 123.29575 
L 445.975723 122.689423 
L 446.135965 121.355976 
L 446.688122 120.642293 
L 446.924517 119.832622 
L 446.996513 122.844818 
L 447.587218 120.609929 
L 448.491039 119.355625 
L 448.612166 118.658925 
L 448.848939 121.878011 
L 450.40847 121.387051 
L 450.55454 124.13167 
L 451.020339 123.522629 
L 451.545096 126.581512 
L 452.397896 125.672949 
L 453.858787 124.846429 
L 454.006368 124.254914 
L 455.279616 123.509997 
L 455.517335 122.818481 
L 455.727275 120.673138 
L 457.266964 119.943105 
L 459.16701 119.183552 
L 459.407374 118.631633 
L 460.994871 117.644654 
L 461.630361 117.019874 
L 461.70368 119.921384 
L 461.932517 123.166097 
L 462.102018 122.559446 
L 462.182518 121.8259 
L 463.32538 124.95695 
L 463.953689 124.238784 
L 465.670061 123.681977 
L 466.138695 123.17816 
L 466.387562 122.625425 
L 467.018706 121.740282 
L 468.021922 121.224773 
L 468.147584 120.694143 
L 468.215045 119.068124 
L 468.763989 122.35091 
L 471.368875 128.552222 
L 471.921221 131.681488 
L 472.29575 130.755654 
L 472.376627 133.670067 
L 472.873606 131.82957 
L 473.927087 130.970327 
L 474.105281 130.193868 
L 474.779887 128.474499 
L 476.610016 131.343194 
L 477.025362 130.614954 
L 478.028767 129.611758 
L 478.34415 132.558923 
L 479.744194 131.648943 
L 480.363622 134.68309 
L 480.706594 133.654576 
L 482.161249 132.754158 
L 482.402179 135.51019 
L 482.464538 134.631298 
L 482.59568 137.215646 
L 482.805809 135.755933 
L 483.099839 138.406246 
L 484.013675 136.689692 
L 484.43469 135.030265 
L 484.743459 137.846282 
L 486.432997 137.104749 
L 487.38576 136.308335 
L 487.993662 138.907298 
L 489.42753 137.201139 
L 489.496691 136.405414 
L 490.60913 135.539078 
L 490.823794 134.524817 
L 491.590049 133.719323 
L 491.671871 132.05032 
L 491.88011 131.132235 
L 493.221764 133.473578 
L 493.508613 132.766291 
L 494.516743 131.949082 
L 495.164705 129.248241 
L 495.846113 132.283772 
L 496.503335 130.59728 
L 497.607459 129.881368 
L 497.849334 128.366005 
L 498.265058 127.68698 
L 500.493147 127.04852 
L 501.142054 126.380143 
L 501.682495 125.444551 
L 501.96821 123.740013 
L 502.878834 122.404181 
L 503.281519 121.648505 
L 503.680424 120.388649 
L 504.767164 119.884245 
L 506.006209 118.739992 
L 507.824433 115.78027 
L 508.058372 114.365627 
L 508.732789 113.960777 
L 508.8696 113.454403 
L 509.339178 112.860447 
L 510.239598 116.153206 
L 511.26738 115.145768 
L 511.3989 118.207624 
L 512.169122 121.354355 
L 512.317838 119.749677 
L 513.495658 119.120312 
L 514.338632 117.577226 
L 514.477522 116.901335 
L 514.951069 115.893031 
L 515.715433 118.572085 
L 515.940113 117.948561 
L 518.51741 121.140823 
L 519.03801 124.294029 
L 519.290845 123.600529 
L 519.606039 123.069799 
L 521.579026 121.950461 
L 522.130426 121.004019 
L 522.745508 120.243852 
L 523.53047 119.619984 
L 523.753449 119.060851 
L 524.932214 117.34918 
L 525.097937 116.677059 
L 525.867592 116.174661 
L 525.938643 115.734334 
L 527.291824 115.293434 
L 527.536912 114.655315 
L 528.959064 113.591347 
L 529.880081 113.170068 
L 530.082841 116.427584 
L 530.237603 115.986429 
L 530.790705 115.3092 
L 532.145774 114.177028 
L 532.332661 113.776426 
L 532.473629 117.095401 
L 532.74007 116.602661 
L 532.870645 116.090903 
L 533.628774 115.369698 
L 534.419216 114.826413 
L 534.501604 113.870725 
L 535.162416 113.474075 
L 535.537701 112.058676 
L 536.924328 111.662731 
L 537.288086 111.098443 
L 537.752563 109.480019 
L 538.433216 109.034076 
L 539.815497 108.415552 
L 540.540556 107.179589 
L 541.248987 110.397782 
L 541.941734 109.606891 
L 542.018832 108.946748 
L 542.332892 108.631466 
L 542.790755 107.945603 
L 542.935124 106.195054 
L 543.166418 105.923032 
L 543.389586 105.272945 
L 544.400739 108.340434 
L 544.796054 111.453968 
L 545.02149 111.083816 
L 546.223687 110.665777 
L 546.285479 110.28968 
L 546.596893 113.660395 
L 546.978603 113.104287 
L 547.536807 111.617001 
L 548.167195 111.270981 
L 548.319501 110.890394 
L 549.102762 109.455405 
L 549.525477 108.968798 
L 549.661532 108.390639 
L 550.087271 108.044173 
L 550.236742 107.548236 
L 550.393584 110.464886 
L 551.302695 108.936529 
L 551.476354 112.266796 
L 551.642455 111.70624 
L 552.260749 114.429833 
L 553.403233 113.997037 
L 553.725419 113.338843 
L 554.130183 112.82642 
L 554.378672 112.140861 
L 555.521345 111.786182 
L 556.326148 111.233569 
L 556.400034 114.594077 
L 556.525695 113.934713 
L 556.984881 113.371253 
L 557.063869 116.490248 
L 557.44898 119.585432 
L 557.96939 118.034657 
L 558.399286 121.104315 
L 558.927255 119.887555 
L 559.387196 119.225701 
L 560.400239 118.72709 
L 560.945782 118.032204 
L 562.388532 120.479251 
L 563.896475 119.782957 
L 564.126067 122.974936 
L 564.446553 122.354919 
L 564.528941 120.806107 
L 565.075807 120.267915 
L 566.336394 119.333726 
L 567.150457 118.517844 
L 567.973967 117.947169 
L 568.505338 121.02697 
L 568.957531 120.48513 
L 570.786148 119.788735 
L 572.483623 122.870877 
L 573.151427 121.715009 
L 574.347955 120.10437 
L 574.428832 119.631435 
L 575.021994 119.055999 
L 575.339644 118.560195 
L 576.117425 117.812715 
L 576.351553 117.237318 
L 576.425439 116.62209 
L 577.174308 115.975775 
L 577.446796 119.296129 
L 578.07983 118.769409 
L 578.146157 118.169912 
L 578.476846 117.702181 
L 579.211921 117.133969 
L 579.280137 116.39109 
L 580.026739 115.885327 
L 580.195107 114.107501 
L 580.790914 116.976064 
L 581.117257 116.554828 
L 581.198324 116.013823 
L 582.337217 115.344841 
L 582.933025 114.650507 
L 583.960618 113.967667 
L 584.175282 117.048999 
L 584.447959 116.572914 
L 584.623697 116.036983 
L 584.693236 118.915988 
L 584.904121 118.226555 
L 585.136549 117.004918 
L 585.547926 116.264172 
L 585.547926 116.264172 
" clip-path="url(#p95dc0a7ecc)" style="fill: none; stroke: #1f77b4; stroke-width: 1.5; stroke-linecap: round"/>
   </g>
   <g id="patch_3">
    <path d="M 52.911563 339.84 
L 52.911563 7.2 
" style="fill: none; stroke: #000000; stroke-linejoin: miter; stroke-linecap: square"/>
   </g>
   <g id="patch_4">
    <path d="M 610.911563 339.84 
L 610.911563 7.2 
" style="fill: none; stroke: #000000; stroke-linejoin: miter; stroke-linecap: square"/>
   </g>
   <g id="patch_5">
    <path d="M 52.911563 339.84 
L 610.911563 339.84 
" style="fill: none; stroke: #000000; stroke-linejoin: miter; stroke-linecap: square"/>
   </g>
   <g id="patch_6">
    <path d="M 52.911563 7.2 
L 610.911563 7.2 
" style="fill: none; stroke: #000000; stroke-linejoin: miter; stroke-linecap: square"/>
   </g>
   <g id="legend_1">
    <g id="patch_7">
     <path d="M 59.911563 43.496875 
L 165.495938 43.496875 
Q 167.495938 43.496875 167.495938 41.496875 
L 167.495938 14.2 
Q 167.495938 12.2 165.495938 12.2 
L 59.911563 12.2 
Q 57.911563 12.2 57.911563 14.2 
L 57.911563 41.496875 
Q 57.911563 43.496875 59.911563 43.496875 
z
" style="fill: #ffffff; opacity: 0.8; stroke: #000000; stroke-linejoin: miter"/>
    </g>
    <g id="line2d_15">
     <path d="M 61.911563 19.7 
L 71.911563 19.7 
L 81.911563 19.7 
" style="fill: none; stroke: #1f77b4; stroke-opacity: 0.1; stroke-width: 1.5; stroke-linecap: round"/>
    </g>
    <g id="text_15">
     <!-- Reward (Original) -->
     <g style="fill: #262626" transform="translate(89.911563 23.2) scale(0.1 -0.1)">
      <defs>
       <path id="TimesNewRomanPSMT-4f" d="M 2341 4334 
Q 3166 4334 3770 3707 
Q 4375 3081 4375 2144 
Q 4375 1178 3765 540 
Q 3156 -97 2291 -97 
Q 1416 -97 820 525 
Q 225 1147 225 2134 
Q 225 3144 913 3781 
Q 1509 4334 2341 4334 
z
M 2281 4106 
Q 1713 4106 1369 3684 
Q 941 3159 941 2147 
Q 941 1109 1384 550 
Q 1725 125 2284 125 
Q 2881 125 3270 590 
Q 3659 1056 3659 2059 
Q 3659 3147 3231 3681 
Q 2888 4106 2281 4106 
z
" transform="scale(0.015625)"/>
       <path id="TimesNewRomanPSMT-69" d="M 928 4444 
Q 1059 4444 1151 4351 
Q 1244 4259 1244 4128 
Q 1244 3997 1151 3903 
Q 1059 3809 928 3809 
Q 797 3809 703 3903 
Q 609 3997 609 4128 
Q 609 4259 701 4351 
Q 794 4444 928 4444 
z
M 1188 2947 
L 1188 647 
Q 1188 378 1227 289 
Q 1266 200 1342 156 
Q 1419 113 1622 113 
L 1622 0 
L 231 0 
L 231 113 
Q 441 113 512 153 
Q 584 194 626 287 
Q 669 381 669 647 
L 669 1750 
Q 669 2216 641 2353 
Q 619 2453 572 2492 
Q 525 2531 444 2531 
Q 356 2531 231 2484 
L 188 2597 
L 1050 2947 
L 1188 2947 
z
" transform="scale(0.015625)"/>
       <path id="TimesNewRomanPSMT-67" d="M 966 1044 
Q 703 1172 562 1401 
Q 422 1631 422 1909 
Q 422 2334 742 2640 
Q 1063 2947 1563 2947 
Q 1972 2947 2272 2747 
L 2878 2747 
Q 3013 2747 3034 2739 
Q 3056 2731 3066 2713 
Q 3084 2684 3084 2613 
Q 3084 2531 3069 2500 
Q 3059 2484 3036 2475 
Q 3013 2466 2878 2466 
L 2506 2466 
Q 2681 2241 2681 1891 
Q 2681 1491 2375 1206 
Q 2069 922 1553 922 
Q 1341 922 1119 984 
Q 981 866 932 777 
Q 884 688 884 625 
Q 884 572 936 522 
Q 988 472 1138 450 
Q 1225 438 1575 428 
Q 2219 413 2409 384 
Q 2700 344 2873 169 
Q 3047 -6 3047 -263 
Q 3047 -616 2716 -925 
Q 2228 -1381 1444 -1381 
Q 841 -1381 425 -1109 
Q 191 -953 191 -784 
Q 191 -709 225 -634 
Q 278 -519 444 -313 
Q 466 -284 763 25 
Q 600 122 533 198 
Q 466 275 466 372 
Q 466 481 555 628 
Q 644 775 966 1044 
z
M 1509 2797 
Q 1278 2797 1122 2612 
Q 966 2428 966 2047 
Q 966 1553 1178 1281 
Q 1341 1075 1591 1075 
Q 1828 1075 1981 1253 
Q 2134 1431 2134 1813 
Q 2134 2309 1919 2591 
Q 1759 2797 1509 2797 
z
M 934 0 
Q 788 -159 713 -296 
Q 638 -434 638 -550 
Q 638 -700 819 -813 
Q 1131 -1006 1722 -1006 
Q 2284 -1006 2551 -807 
Q 2819 -609 2819 -384 
Q 2819 -222 2659 -153 
Q 2497 -84 2016 -72 
Q 1313 -53 934 0 
z
" transform="scale(0.015625)"/>
       <path id="TimesNewRomanPSMT-6e" d="M 1034 2341 
Q 1538 2947 1994 2947 
Q 2228 2947 2397 2830 
Q 2566 2713 2666 2444 
Q 2734 2256 2734 1869 
L 2734 647 
Q 2734 375 2778 278 
Q 2813 200 2889 156 
Q 2966 113 3172 113 
L 3172 0 
L 1756 0 
L 1756 113 
L 1816 113 
Q 2016 113 2095 173 
Q 2175 234 2206 353 
Q 2219 400 2219 647 
L 2219 1819 
Q 2219 2209 2117 2386 
Q 2016 2563 1775 2563 
Q 1403 2563 1034 2156 
L 1034 647 
Q 1034 356 1069 288 
Q 1113 197 1189 155 
Q 1266 113 1500 113 
L 1500 0 
L 84 0 
L 84 113 
L 147 113 
Q 366 113 442 223 
Q 519 334 519 647 
L 519 1709 
Q 519 2225 495 2337 
Q 472 2450 423 2490 
Q 375 2531 294 2531 
Q 206 2531 84 2484 
L 38 2597 
L 900 2947 
L 1034 2947 
L 1034 2341 
z
" transform="scale(0.015625)"/>
       <path id="TimesNewRomanPSMT-6c" d="M 1184 4444 
L 1184 647 
Q 1184 378 1223 290 
Q 1263 203 1344 158 
Q 1425 113 1647 113 
L 1647 0 
L 244 0 
L 244 113 
Q 441 113 512 153 
Q 584 194 625 287 
Q 666 381 666 647 
L 666 3247 
Q 666 3731 644 3842 
Q 622 3953 573 3993 
Q 525 4034 450 4034 
Q 369 4034 244 3984 
L 191 4094 
L 1044 4444 
L 1184 4444 
z
" transform="scale(0.015625)"/>
      </defs>
      <use xlink:href="#TimesNewRomanPSMT-52"/>
      <use xlink:href="#TimesNewRomanPSMT-65" x="66.699219"/>
      <use xlink:href="#TimesNewRomanPSMT-77" x="111.083984"/>
      <use xlink:href="#TimesNewRomanPSMT-61" x="183.300781"/>
      <use xlink:href="#TimesNewRomanPSMT-72" x="227.685547"/>
      <use xlink:href="#TimesNewRomanPSMT-64" x="260.986328"/>
      <use xlink:href="#TimesNewRomanPSMT-20" x="310.986328"/>
      <use xlink:href="#TimesNewRomanPSMT-28" x="335.986328"/>
      <use xlink:href="#TimesNewRomanPSMT-4f" x="369.287109"/>
      <use xlink:href="#TimesNewRomanPSMT-72" x="441.503906"/>
      <use xlink:href="#TimesNewRomanPSMT-69" x="474.804688"/>
      <use xlink:href="#TimesNewRomanPSMT-67" x="502.587891"/>
      <use xlink:href="#TimesNewRomanPSMT-69" x="552.587891"/>
      <use xlink:href="#TimesNewRomanPSMT-6e" x="580.371094"/>
      <use xlink:href="#TimesNewRomanPSMT-61" x="630.371094"/>
      <use xlink:href="#TimesNewRomanPSMT-6c" x="674.755859"/>
      <use xlink:href="#TimesNewRomanPSMT-29" x="702.539062"/>
     </g>
    </g>
    <g id="line2d_16">
     <path d="M 61.911563 33.857812 
L 71.911563 33.857812 
L 81.911563 33.857812 
" style="fill: none; stroke: #1f77b4; stroke-width: 1.5; stroke-linecap: round"/>
    </g>
    <g id="text_16">
     <!-- Reward (Smooth) -->
     <g style="fill: #262626" transform="translate(89.911563 37.357812) scale(0.1 -0.1)">
      <defs>
       <path id="TimesNewRomanPSMT-6d" d="M 1050 2338 
Q 1363 2650 1419 2697 
Q 1559 2816 1721 2881 
Q 1884 2947 2044 2947 
Q 2313 2947 2506 2790 
Q 2700 2634 2766 2338 
Q 3088 2713 3309 2830 
Q 3531 2947 3766 2947 
Q 3994 2947 4170 2830 
Q 4347 2713 4450 2447 
Q 4519 2266 4519 1878 
L 4519 647 
Q 4519 378 4559 278 
Q 4591 209 4675 161 
Q 4759 113 4950 113 
L 4950 0 
L 3538 0 
L 3538 113 
L 3597 113 
Q 3781 113 3884 184 
Q 3956 234 3988 344 
Q 4000 397 4000 647 
L 4000 1878 
Q 4000 2228 3916 2372 
Q 3794 2572 3525 2572 
Q 3359 2572 3192 2489 
Q 3025 2406 2788 2181 
L 2781 2147 
L 2788 2013 
L 2788 647 
Q 2788 353 2820 281 
Q 2853 209 2943 161 
Q 3034 113 3253 113 
L 3253 0 
L 1806 0 
L 1806 113 
Q 2044 113 2133 169 
Q 2222 225 2256 338 
Q 2272 391 2272 647 
L 2272 1878 
Q 2272 2228 2169 2381 
Q 2031 2581 1784 2581 
Q 1616 2581 1450 2491 
Q 1191 2353 1050 2181 
L 1050 647 
Q 1050 366 1089 281 
Q 1128 197 1204 155 
Q 1281 113 1516 113 
L 1516 0 
L 100 0 
L 100 113 
Q 297 113 375 155 
Q 453 197 493 289 
Q 534 381 534 647 
L 534 1741 
Q 534 2213 506 2350 
Q 484 2453 437 2492 
Q 391 2531 309 2531 
Q 222 2531 100 2484 
L 53 2597 
L 916 2947 
L 1050 2947 
L 1050 2338 
z
" transform="scale(0.015625)"/>
       <path id="TimesNewRomanPSMT-6f" d="M 1600 2947 
Q 2250 2947 2644 2453 
Q 2978 2031 2978 1484 
Q 2978 1100 2793 706 
Q 2609 313 2286 112 
Q 1963 -88 1566 -88 
Q 919 -88 538 428 
Q 216 863 216 1403 
Q 216 1797 411 2186 
Q 606 2575 925 2761 
Q 1244 2947 1600 2947 
z
M 1503 2744 
Q 1338 2744 1170 2645 
Q 1003 2547 900 2300 
Q 797 2053 797 1666 
Q 797 1041 1045 587 
Q 1294 134 1700 134 
Q 2003 134 2200 384 
Q 2397 634 2397 1244 
Q 2397 2006 2069 2444 
Q 1847 2744 1503 2744 
z
" transform="scale(0.015625)"/>
       <path id="TimesNewRomanPSMT-68" d="M 1041 4444 
L 1041 2350 
Q 1388 2731 1591 2839 
Q 1794 2947 1997 2947 
Q 2241 2947 2416 2812 
Q 2591 2678 2675 2391 
Q 2734 2191 2734 1659 
L 2734 647 
Q 2734 375 2778 275 
Q 2809 200 2884 156 
Q 2959 113 3159 113 
L 3159 0 
L 1753 0 
L 1753 113 
L 1819 113 
Q 2019 113 2097 173 
Q 2175 234 2206 353 
Q 2216 403 2216 647 
L 2216 1659 
Q 2216 2128 2167 2275 
Q 2119 2422 2012 2495 
Q 1906 2569 1756 2569 
Q 1603 2569 1437 2487 
Q 1272 2406 1041 2159 
L 1041 647 
Q 1041 353 1073 281 
Q 1106 209 1195 161 
Q 1284 113 1503 113 
L 1503 0 
L 84 0 
L 84 113 
Q 275 113 384 172 
Q 447 203 484 290 
Q 522 378 522 647 
L 522 3238 
Q 522 3728 498 3840 
Q 475 3953 426 3993 
Q 378 4034 297 4034 
Q 231 4034 84 3984 
L 41 4094 
L 897 4444 
L 1041 4444 
z
" transform="scale(0.015625)"/>
      </defs>
      <use xlink:href="#TimesNewRomanPSMT-52"/>
      <use xlink:href="#TimesNewRomanPSMT-65" x="66.699219"/>
      <use xlink:href="#TimesNewRomanPSMT-77" x="111.083984"/>
      <use xlink:href="#TimesNewRomanPSMT-61" x="183.300781"/>
      <use xlink:href="#TimesNewRomanPSMT-72" x="227.685547"/>
      <use xlink:href="#TimesNewRomanPSMT-64" x="260.986328"/>
      <use xlink:href="#TimesNewRomanPSMT-20" x="310.986328"/>
      <use xlink:href="#TimesNewRomanPSMT-28" x="335.986328"/>
      <use xlink:href="#TimesNewRomanPSMT-53" x="369.287109"/>
      <use xlink:href="#TimesNewRomanPSMT-6d" x="424.902344"/>
      <use xlink:href="#TimesNewRomanPSMT-6f" x="502.685547"/>
      <use xlink:href="#TimesNewRomanPSMT-6f" x="552.685547"/>
      <use xlink:href="#TimesNewRomanPSMT-74" x="602.685547"/>
      <use xlink:href="#TimesNewRomanPSMT-68" x="630.46875"/>
      <use xlink:href="#TimesNewRomanPSMT-29" x="680.46875"/>
     </g>
    </g>
   </g>
  </g>
 </g>
 <defs>
  <clipPath id="p95dc0a7ecc">
   <rect x="52.911563" y="7.2" width="558" height="332.64"/>
  </clipPath>
 </defs>
</svg>
