<?xml version="1.0" encoding="utf-8" standalone="no"?>
<!DOCTYPE svg PUBLIC "-//W3C//DTD SVG 1.1//EN"
  "http://www.w3.org/Graphics/SVG/1.1/DTD/svg11.dtd">
<svg xmlns:xlink="http://www.w3.org/1999/xlink" width="611.525pt" height="374.368125pt" viewBox="0 0 611.525 374.368125" xmlns="http://www.w3.org/2000/svg" version="1.1">
 <metadata>
  <rdf:RDF xmlns:dc="http://purl.org/dc/elements/1.1/" xmlns:cc="http://creativecommons.org/ns#" xmlns:rdf="http://www.w3.org/1999/02/22-rdf-syntax-ns#">
   <cc:Work>
    <dc:type rdf:resource="http://purl.org/dc/dcmitype/StillImage"/>
    <dc:date>2025-08-28T17:50:42.681220</dc:date>
    <dc:format>image/svg+xml</dc:format>
    <dc:creator>
     <cc:Agent>
      <dc:title>Matplotlib v3.9.4, https://matplotlib.org/</dc:title>
     </cc:Agent>
    </dc:creator>
   </cc:Work>
  </rdf:RDF>
 </metadata>
 <defs>
  <style type="text/css">*{stroke-linejoin: round; stroke-linecap: butt}</style>
 </defs>
 <g id="figure_1">
  <g id="patch_1">
   <path d="M 0 374.368125 
L 611.525 374.368125 
L 611.525 0 
L 0 0 
z
" style="fill: #ffffff"/>
  </g>
  <g id="axes_1">
   <g id="patch_2">
    <path d="M 46.325 339.84 
L 604.325 339.84 
L 604.325 7.2 
L 46.325 7.2 
z
" style="fill: #ffffff"/>
   </g>
   <g id="matplotlib.axis_1">
    <g id="xtick_1">
     <g id="line2d_1">
      <path d="M 71.206775 339.84 
L 71.206775 7.2 
" clip-path="url(#p934609c4ef)" style="fill: none; stroke: #808080; stroke-opacity: 0.7; stroke-width: 0.5; stroke-linecap: round"/>
     </g>
     <g id="text_1">
      <!-- 0.0 -->
      <g style="fill: #262626" transform="translate(63.706775 353.715) scale(0.1 -0.1)">
       <defs>
        <path id="SimHei-30" d="M 225 2537 
Q 250 3200 412 3587 
Q 575 3975 875 4225 
Q 1175 4475 1612 4475 
Q 2050 4475 2375 4112 
Q 2700 3750 2800 3200 
Q 2900 2650 2862 1937 
Q 2825 1225 2612 775 
Q 2400 325 1975 150 
Q 1550 -25 1125 187 
Q 700 400 525 750 
Q 350 1100 275 1487 
Q 200 1875 225 2537 
z
M 750 2687 
Q 675 2000 800 1462 
Q 925 925 1212 700 
Q 1500 475 1800 612 
Q 2100 750 2237 1162 
Q 2375 1575 2375 2062 
Q 2375 2550 2337 2950 
Q 2300 3350 2112 3675 
Q 1925 4000 1612 4012 
Q 1300 4025 1062 3700 
Q 825 3375 750 2687 
z
" transform="scale(0.015625)"/>
        <path id="SimHei-2e" d="M 1075 125 
L 500 125 
L 500 675 
L 1075 675 
L 1075 125 
z
" transform="scale(0.015625)"/>
       </defs>
       <use xlink:href="#SimHei-30"/>
       <use xlink:href="#SimHei-2e" x="50"/>
       <use xlink:href="#SimHei-30" x="100"/>
      </g>
     </g>
    </g>
    <g id="xtick_2">
     <g id="line2d_2">
      <path d="M 165.689409 339.84 
L 165.689409 7.2 
" clip-path="url(#p934609c4ef)" style="fill: none; stroke: #808080; stroke-opacity: 0.7; stroke-width: 0.5; stroke-linecap: round"/>
     </g>
     <g id="text_2">
      <!-- 0.5 -->
      <g style="fill: #262626" transform="translate(158.189409 353.715) scale(0.1 -0.1)">
       <defs>
        <path id="SimHei-35" d="M 550 1325 
Q 725 650 1150 575 
Q 1575 500 1837 662 
Q 2100 825 2212 1087 
Q 2325 1350 2312 1675 
Q 2300 2000 2137 2225 
Q 1975 2450 1725 2525 
Q 1475 2600 1162 2525 
Q 850 2450 650 2175 
L 225 2225 
Q 275 2375 700 4375 
L 2675 4375 
L 2675 3925 
L 1075 3925 
Q 950 3250 825 2850 
Q 1200 3025 1525 3012 
Q 1850 3000 2150 2862 
Q 2450 2725 2587 2487 
Q 2725 2250 2787 2012 
Q 2850 1775 2837 1500 
Q 2825 1225 2725 937 
Q 2625 650 2425 462 
Q 2225 275 1937 162 
Q 1650 50 1275 75 
Q 900 100 562 350 
Q 225 600 100 1200 
L 550 1325 
z
" transform="scale(0.015625)"/>
       </defs>
       <use xlink:href="#SimHei-30"/>
       <use xlink:href="#SimHei-2e" x="50"/>
       <use xlink:href="#SimHei-35" x="100"/>
      </g>
     </g>
    </g>
    <g id="xtick_3">
     <g id="line2d_3">
      <path d="M 260.172043 339.84 
L 260.172043 7.2 
" clip-path="url(#p934609c4ef)" style="fill: none; stroke: #808080; stroke-opacity: 0.7; stroke-width: 0.5; stroke-linecap: round"/>
     </g>
     <g id="text_3">
      <!-- 1.0 -->
      <g style="fill: #262626" transform="translate(252.672043 353.715) scale(0.1 -0.1)">
       <defs>
        <path id="SimHei-31" d="M 1400 3600 
Q 1075 3275 575 2975 
L 575 3450 
Q 1200 3875 1600 4450 
L 1900 4450 
L 1900 150 
L 1400 150 
L 1400 3600 
z
" transform="scale(0.015625)"/>
       </defs>
       <use xlink:href="#SimHei-31"/>
       <use xlink:href="#SimHei-2e" x="50"/>
       <use xlink:href="#SimHei-30" x="100"/>
      </g>
     </g>
    </g>
    <g id="xtick_4">
     <g id="line2d_4">
      <path d="M 354.654677 339.84 
L 354.654677 7.2 
" clip-path="url(#p934609c4ef)" style="fill: none; stroke: #808080; stroke-opacity: 0.7; stroke-width: 0.5; stroke-linecap: round"/>
     </g>
     <g id="text_4">
      <!-- 1.5 -->
      <g style="fill: #262626" transform="translate(347.154677 353.715) scale(0.1 -0.1)">
       <use xlink:href="#SimHei-31"/>
       <use xlink:href="#SimHei-2e" x="50"/>
       <use xlink:href="#SimHei-35" x="100"/>
      </g>
     </g>
    </g>
    <g id="xtick_5">
     <g id="line2d_5">
      <path d="M 449.137311 339.84 
L 449.137311 7.2 
" clip-path="url(#p934609c4ef)" style="fill: none; stroke: #808080; stroke-opacity: 0.7; stroke-width: 0.5; stroke-linecap: round"/>
     </g>
     <g id="text_5">
      <!-- 2.0 -->
      <g style="fill: #262626" transform="translate(441.637311 353.715) scale(0.1 -0.1)">
       <defs>
        <path id="SimHei-32" d="M 300 250 
Q 325 625 650 925 
Q 975 1225 1475 1862 
Q 1975 2500 2125 2850 
Q 2275 3200 2237 3450 
Q 2200 3700 2000 3862 
Q 1800 4025 1537 4000 
Q 1275 3975 1037 3800 
Q 800 3625 675 3275 
L 200 3350 
Q 400 3925 712 4187 
Q 1025 4450 1450 4475 
Q 1700 4500 1900 4462 
Q 2100 4425 2312 4287 
Q 2525 4150 2662 3875 
Q 2800 3600 2762 3212 
Q 2725 2825 2375 2287 
Q 2025 1750 1025 600 
L 2825 600 
L 2825 150 
L 300 150 
L 300 250 
z
" transform="scale(0.015625)"/>
       </defs>
       <use xlink:href="#SimHei-32"/>
       <use xlink:href="#SimHei-2e" x="50"/>
       <use xlink:href="#SimHei-30" x="100"/>
      </g>
     </g>
    </g>
    <g id="xtick_6">
     <g id="line2d_6">
      <path d="M 543.619945 339.84 
L 543.619945 7.2 
" clip-path="url(#p934609c4ef)" style="fill: none; stroke: #808080; stroke-opacity: 0.7; stroke-width: 0.5; stroke-linecap: round"/>
     </g>
     <g id="text_6">
      <!-- 2.5 -->
      <g style="fill: #262626" transform="translate(536.119945 353.715) scale(0.1 -0.1)">
       <use xlink:href="#SimHei-32"/>
       <use xlink:href="#SimHei-2e" x="50"/>
       <use xlink:href="#SimHei-35" x="100"/>
      </g>
     </g>
    </g>
    <g id="text_7">
     <!-- Step -->
     <g style="fill: #262626" transform="translate(315.325 365.918125) scale(0.1 -0.1)">
      <defs>
       <path id="SimHei-53" d="M 2900 1325 
Q 2900 750 2537 412 
Q 2175 75 1550 75 
Q 925 75 575 425 
Q 225 775 225 1300 
L 225 1475 
L 800 1475 
L 800 1325 
Q 800 950 1025 750 
Q 1250 550 1550 550 
Q 1950 550 2137 762 
Q 2325 975 2325 1275 
Q 2325 1525 2100 1737 
Q 1875 1950 1450 2125 
Q 850 2350 587 2625 
Q 325 2900 325 3275 
Q 325 3800 687 4125 
Q 1050 4450 1550 4450 
Q 2200 4450 2487 4062 
Q 2775 3675 2775 3225 
L 2200 3225 
Q 2225 3500 2050 3725 
Q 1875 3950 1550 3950 
Q 1250 3950 1075 3787 
Q 900 3625 900 3350 
Q 900 3125 1037 2962 
Q 1175 2800 1750 2575 
Q 2300 2350 2600 2037 
Q 2900 1725 2900 1325 
z
" transform="scale(0.015625)"/>
       <path id="SimHei-74" d="M 2750 200 
Q 2625 150 2462 112 
Q 2300 75 2025 75 
Q 1575 75 1300 325 
Q 1025 575 1025 1025 
L 1025 2525 
L 175 2525 
L 175 2925 
L 1025 2925 
L 1025 3900 
L 1525 3900 
L 1525 2925 
L 2550 2925 
L 2550 2525 
L 1525 2525 
L 1525 1000 
Q 1525 800 1625 662 
Q 1725 525 2000 525 
Q 2275 525 2450 575 
Q 2625 625 2750 700 
L 2750 200 
z
" transform="scale(0.015625)"/>
       <path id="SimHei-65" d="M 2850 1075 
Q 2800 625 2450 350 
Q 2100 75 1625 75 
Q 1025 75 637 462 
Q 250 850 250 1525 
Q 250 2200 637 2587 
Q 1025 2975 1625 2975 
Q 2150 2975 2487 2637 
Q 2825 2300 2825 1525 
L 800 1525 
Q 800 975 1037 750 
Q 1275 525 1625 525 
Q 1900 525 2075 662 
Q 2250 800 2300 1075 
L 2850 1075 
z
M 2250 1925 
Q 2200 2275 2025 2412 
Q 1850 2550 1575 2550 
Q 1325 2550 1125 2412 
Q 925 2275 825 1925 
L 2250 1925 
z
" transform="scale(0.015625)"/>
       <path id="SimHei-70" d="M 2825 1525 
Q 2825 800 2475 425 
Q 2125 50 1625 50 
Q 1350 50 1150 162 
Q 950 275 800 500 
L 800 -800 
L 300 -800 
L 300 2925 
L 800 2925 
L 800 2550 
Q 950 2775 1150 2875 
Q 1350 2975 1625 2975 
Q 2125 2975 2475 2612 
Q 2825 2250 2825 1525 
z
M 2275 1525 
Q 2275 2000 2087 2262 
Q 1900 2525 1525 2525 
Q 1225 2525 1012 2262 
Q 800 2000 800 1525 
Q 800 1050 1012 775 
Q 1225 500 1525 500 
Q 1900 500 2087 775 
Q 2275 1050 2275 1525 
z
" transform="scale(0.015625)"/>
      </defs>
      <use xlink:href="#SimHei-53"/>
      <use xlink:href="#SimHei-74" x="50"/>
      <use xlink:href="#SimHei-65" x="100"/>
      <use xlink:href="#SimHei-70" x="150"/>
     </g>
    </g>
    <g id="text_8">
     <!-- 1e6 -->
     <g style="fill: #262626" transform="translate(589.325 364.84) scale(0.1 -0.1)">
      <defs>
       <path id="SimHei-36" d="M 250 1612 
Q 275 1975 387 2225 
Q 500 2475 725 2850 
L 1750 4450 
L 2325 4450 
L 1275 2800 
Q 1950 2975 2350 2750 
Q 2750 2525 2887 2237 
Q 3025 1950 3037 1612 
Q 3050 1275 2937 950 
Q 2825 625 2537 362 
Q 2250 100 1737 75 
Q 1225 50 862 262 
Q 500 475 362 862 
Q 225 1250 250 1612 
z
M 1025 787 
Q 1250 550 1625 525 
Q 2000 500 2250 775 
Q 2500 1050 2500 1575 
Q 2500 2100 2187 2300 
Q 1875 2500 1487 2450 
Q 1100 2400 925 2075 
Q 750 1750 775 1387 
Q 800 1025 1025 787 
z
" transform="scale(0.015625)"/>
      </defs>
      <use xlink:href="#SimHei-31"/>
      <use xlink:href="#SimHei-65" x="50"/>
      <use xlink:href="#SimHei-36" x="100"/>
     </g>
    </g>
   </g>
   <g id="matplotlib.axis_2">
    <g id="ytick_1">
     <g id="line2d_7">
      <path d="M 46.325 334.576957 
L 604.325 334.576957 
" clip-path="url(#p934609c4ef)" style="fill: none; stroke: #808080; stroke-opacity: 0.7; stroke-width: 0.5; stroke-linecap: round"/>
     </g>
     <g id="text_9">
      <!-- -100 -->
      <g style="fill: #262626" transform="translate(19.325 338.014457) scale(0.1 -0.1)">
       <defs>
        <path id="SimHei-2d" d="M 2975 2125 
L 125 2125 
L 125 2525 
L 2975 2525 
L 2975 2125 
z
" transform="scale(0.015625)"/>
       </defs>
       <use xlink:href="#SimHei-2d"/>
       <use xlink:href="#SimHei-31" x="50"/>
       <use xlink:href="#SimHei-30" x="100"/>
       <use xlink:href="#SimHei-30" x="150"/>
      </g>
     </g>
    </g>
    <g id="ytick_2">
     <g id="line2d_8">
      <path d="M 46.325 277.183826 
L 604.325 277.183826 
" clip-path="url(#p934609c4ef)" style="fill: none; stroke: #808080; stroke-opacity: 0.7; stroke-width: 0.5; stroke-linecap: round"/>
     </g>
     <g id="text_10">
      <!-- -50 -->
      <g style="fill: #262626" transform="translate(24.325 280.621326) scale(0.1 -0.1)">
       <use xlink:href="#SimHei-2d"/>
       <use xlink:href="#SimHei-35" x="50"/>
       <use xlink:href="#SimHei-30" x="100"/>
      </g>
     </g>
    </g>
    <g id="ytick_3">
     <g id="line2d_9">
      <path d="M 46.325 219.790694 
L 604.325 219.790694 
" clip-path="url(#p934609c4ef)" style="fill: none; stroke: #808080; stroke-opacity: 0.7; stroke-width: 0.5; stroke-linecap: round"/>
     </g>
     <g id="text_11">
      <!-- 0 -->
      <g style="fill: #262626" transform="translate(34.325 223.228194) scale(0.1 -0.1)">
       <use xlink:href="#SimHei-30"/>
      </g>
     </g>
    </g>
    <g id="ytick_4">
     <g id="line2d_10">
      <path d="M 46.325 162.397563 
L 604.325 162.397563 
" clip-path="url(#p934609c4ef)" style="fill: none; stroke: #808080; stroke-opacity: 0.7; stroke-width: 0.5; stroke-linecap: round"/>
     </g>
     <g id="text_12">
      <!-- 50 -->
      <g style="fill: #262626" transform="translate(29.325 165.835063) scale(0.1 -0.1)">
       <use xlink:href="#SimHei-35"/>
       <use xlink:href="#SimHei-30" x="50"/>
      </g>
     </g>
    </g>
    <g id="ytick_5">
     <g id="line2d_11">
      <path d="M 46.325 105.004432 
L 604.325 105.004432 
" clip-path="url(#p934609c4ef)" style="fill: none; stroke: #808080; stroke-opacity: 0.7; stroke-width: 0.5; stroke-linecap: round"/>
     </g>
     <g id="text_13">
      <!-- 100 -->
      <g style="fill: #262626" transform="translate(24.325 108.441932) scale(0.1 -0.1)">
       <use xlink:href="#SimHei-31"/>
       <use xlink:href="#SimHei-30" x="50"/>
       <use xlink:href="#SimHei-30" x="100"/>
      </g>
     </g>
    </g>
    <g id="ytick_6">
     <g id="line2d_12">
      <path d="M 46.325 47.611301 
L 604.325 47.611301 
" clip-path="url(#p934609c4ef)" style="fill: none; stroke: #808080; stroke-opacity: 0.7; stroke-width: 0.5; stroke-linecap: round"/>
     </g>
     <g id="text_14">
      <!-- 150 -->
      <g style="fill: #262626" transform="translate(24.325 51.048801) scale(0.1 -0.1)">
       <use xlink:href="#SimHei-31"/>
       <use xlink:href="#SimHei-35" x="50"/>
       <use xlink:href="#SimHei-30" x="100"/>
      </g>
     </g>
    </g>
    <g id="text_15">
     <!-- Reward -->
     <g style="fill: #262626" transform="translate(14.075 188.52) rotate(-90) scale(0.1 -0.1)">
      <defs>
       <path id="SimHei-52" d="M 3000 125 
L 2400 125 
L 1500 1975 
L 850 1975 
L 850 125 
L 275 125 
L 275 4400 
L 1525 4400 
Q 2125 4400 2500 4112 
Q 2875 3825 2875 3175 
Q 2875 2675 2625 2400 
Q 2375 2125 2050 2050 
L 3000 125 
z
M 2300 3175 
Q 2300 3525 2087 3725 
Q 1875 3925 1400 3925 
L 850 3925 
L 850 2450 
L 1550 2450 
Q 1850 2450 2075 2612 
Q 2300 2775 2300 3175 
z
" transform="scale(0.015625)"/>
       <path id="SimHei-77" d="M 3075 2925 
L 2450 75 
L 1975 75 
L 1575 2250 
L 1525 2250 
L 1125 75 
L 650 75 
L 25 2925 
L 550 2925 
L 875 1050 
L 925 1050 
L 1275 2925 
L 1825 2925 
L 2175 1050 
L 2225 1050 
L 2550 2925 
L 3075 2925 
z
" transform="scale(0.015625)"/>
       <path id="SimHei-61" d="M 2875 125 
L 2275 125 
Q 2225 175 2200 262 
Q 2175 350 2175 475 
Q 2000 275 1750 175 
Q 1500 75 1225 75 
Q 825 75 550 275 
Q 275 475 275 850 
Q 275 1225 525 1450 
Q 775 1675 1300 1750 
Q 1650 1800 1912 1875 
Q 2175 1950 2175 2075 
Q 2175 2225 2062 2375 
Q 1950 2525 1575 2525 
Q 1275 2525 1137 2412 
Q 1000 2300 950 2100 
L 400 2100 
Q 450 2500 762 2737 
Q 1075 2975 1575 2975 
Q 2125 2975 2400 2725 
Q 2675 2475 2675 2025 
L 2675 650 
Q 2675 500 2725 375 
Q 2775 250 2875 125 
z
M 2175 1050 
L 2175 1550 
Q 2025 1500 1887 1462 
Q 1750 1425 1425 1375 
Q 1050 1325 937 1200 
Q 825 1075 825 900 
Q 825 750 937 637 
Q 1050 525 1275 525 
Q 1500 525 1762 650 
Q 2025 775 2175 1050 
z
" transform="scale(0.015625)"/>
       <path id="SimHei-72" d="M 2500 2425 
Q 2025 2500 1700 2287 
Q 1375 2075 1150 1550 
L 1150 125 
L 650 125 
L 650 2925 
L 1150 2925 
L 1150 2200 
Q 1375 2600 1712 2787 
Q 2050 2975 2500 2975 
L 2500 2425 
z
" transform="scale(0.015625)"/>
       <path id="SimHei-64" d="M 2750 125 
L 2250 125 
L 2250 500 
Q 2100 275 1900 175 
Q 1700 75 1425 75 
Q 925 75 575 437 
Q 225 800 225 1525 
Q 225 2250 575 2625 
Q 925 3000 1425 3000 
Q 1700 3000 1900 2887 
Q 2100 2775 2250 2550 
L 2250 4400 
L 2750 4400 
L 2750 125 
z
M 2250 1525 
Q 2250 2000 2037 2275 
Q 1825 2550 1525 2550 
Q 1150 2550 962 2275 
Q 775 2000 775 1525 
Q 775 1050 962 787 
Q 1150 525 1525 525 
Q 1825 525 2037 787 
Q 2250 1050 2250 1525 
z
" transform="scale(0.015625)"/>
      </defs>
      <use xlink:href="#SimHei-52"/>
      <use xlink:href="#SimHei-65" x="50"/>
      <use xlink:href="#SimHei-77" x="100"/>
      <use xlink:href="#SimHei-61" x="150"/>
      <use xlink:href="#SimHei-72" x="200"/>
      <use xlink:href="#SimHei-64" x="250"/>
     </g>
    </g>
   </g>
   <g id="PolyCollection_1"/>
   <g id="PolyCollection_2"/>
   <g id="line2d_13">
    <path d="M 71.688636 313.413669 
L 72.733047 322.324938 
L 73.138 312.59268 
L 74.470583 85.792428 
L 74.644998 307.92574 
L 74.906715 82.339452 
L 75.543906 85.792463 
L 75.75857 45.763188 
L 76.939981 306.081744 
L 77.169574 71.35009 
L 78.745922 78.867893 
L 79.391806 304.275089 
L 79.713046 90.68314 
L 81.337959 92.174962 
L 82.318878 304.402397 
L 83.242729 87.284644 
L 83.617258 88.245499 
L 83.864802 70.50937 
L 84.562084 299.494057 
L 85.418475 48.637031 
L 85.802452 88.921735 
L 85.928492 84.817386 
L 85.999543 295.905821 
L 86.289416 74.829872 
L 86.913568 86.463734 
L 87.605748 88.104004 
L 87.998229 87.91197 
L 89.343472 69.129188 
L 89.726316 295.317992 
L 90.901113 25.763588 
L 91.305121 283.146113 
L 91.71253 89.121249 
L 92.295299 75.826747 
L 92.61465 84.173964 
L 92.76072 57.863982 
L 94.562315 89.940609 
L 95.065719 77.505121 
L 95.487111 93.1021 
L 95.663038 302.030561 
L 96.381673 294.469854 
L 97.30628 83.325231 
L 97.998082 318.495005 
L 98.647177 59.496397 
L 99.918725 77.342643 
L 100.2154 313.7216 
L 100.992803 83.165328 
L 104.570483 77.506312 
L 104.65854 31.274365 
L 105.986966 83.992053 
L 106.198607 72.307739 
L 106.477898 81.673103 
L 107.643436 76.506136 
L 107.910255 266.700125 
L 108.003037 30.400665 
L 108.789321 83.992053 
L 110.162343 278.209552 
L 110.342805 92.174962 
L 111.88873 312.737853 
L 112.023273 91.36442 
L 112.303886 90.682737 
L 112.966776 23.1235 
L 113.430308 306.078661 
L 113.600377 291.920438 
L 113.841875 300.19393 
L 114.305406 302.721974 
L 114.701478 84.817386 
L 115.455449 73.337647 
L 115.939578 85.792428 
L 116.382513 74.702564 
L 116.678054 76.685822 
L 117.110974 299.278754 
L 117.282743 78.353153 
L 117.68335 85.792428 
L 117.763471 83.325345 
L 118.185619 291.669513 
L 118.840762 47.547704 
L 120.288614 297.553851 
L 120.452258 89.872204 
L 121.404265 92.297786 
L 122.001773 301.76231 
L 122.063375 90.682746 
L 122.243459 88.921727 
L 122.451321 284.864334 
L 122.585298 81.352018 
L 123.521243 309.296638 
L 123.74819 86.281613 
L 124.036173 311.7712 
L 124.251404 95.396363 
L 124.453975 43.169673 
L 124.759343 318.303899 
L 125.153525 75.538818 
L 125.551674 320.723297 
L 127.616309 76.372251 
L 127.973075 75.850427 
L 128.349305 90.682737 
L 128.92924 85.792472 
L 129.636914 22.32 
L 129.938503 85.79248 
L 130.20759 83.325301 
L 130.596858 294.263291 
L 130.942664 27.600158 
L 131.618971 90.552066 
L 131.928874 88.921928 
L 132.002382 80.848873 
L 132.078535 306.078836 
L 132.296979 27.600158 
L 132.775817 73.990168 
L 133.125024 94.01154 
L 133.27733 75.827447 
L 133.663197 74.176309 
L 133.831188 92.388566 
L 134.141091 88.10509 
L 134.427751 86.463778 
L 134.788297 89.940565 
L 134.865017 309.587142 
L 134.946461 93.790002 
L 136.839893 59.791262 
L 137.173227 300.958809 
L 139.842929 304.586462 
L 140.223127 300.081886 
L 140.371275 94.594325 
L 140.870522 73.149449 
L 141.927027 88.725217 
L 142.252236 75.668569 
L 142.785496 305.974324 
L 142.940258 324.72 
L 143.358438 287.412424 
L 143.535688 73.337647 
L 144.636977 309.588193 
L 144.740152 91.364429 
L 145.523036 80.848926 
L 145.742235 72.189793 
L 146.441785 78.037165 
L 146.732602 50.989452 
L 147.030034 93.790002 
L 147.822932 79.185028 
L 148.306305 312.086365 
L 148.666284 285.944291 
L 149.602418 307.750581 
L 150.027968 62.136485 
L 150.257182 81.352062 
L 150.917616 85.642298 
L 151.159114 88.9217 
L 151.791014 308.58482 
L 152.737352 297.657478 
L 153.325034 24.271363 
L 154.334297 311.909788 
L 154.805765 83.992053 
L 154.993597 91.491299 
L 155.172358 78.353153 
L 155.500024 83.325161 
L 155.788007 90.343436 
L 155.910645 81.673103 
L 156.308417 322.324938 
L 156.398932 315.866819 
L 157.074671 77.505121 
L 157.515338 80.848873 
L 157.863035 81.683367 
L 157.926338 92.388566 
L 158.681821 306.238976 
L 159.071089 87.284714 
L 160.252311 91.491299 
L 161.991926 72.307739 
L 162.384595 83.167342 
L 162.445442 91.491299 
L 163.813929 79.012295 
L 164.756865 88.104022 
L 164.844545 80.677253 
L 165.304487 88.106027 
L 165.439786 85.00216 
L 165.856265 82.337403 
L 168.007446 30.400665 
L 168.143123 87.284644 
L 168.866104 81.673199 
L 169.679033 86.611771 
L 169.943962 86.611954 
L 170.179791 80.845055 
L 171.684521 62.347908 
L 172.146541 48.403276 
L 172.668274 84.149075 
L 173.130672 295.113101 
L 173.971757 80.015668 
L 174.420738 25.763588 
L 174.652221 77.520088 
L 175.306607 82.499933 
L 175.561144 278.209552 
L 175.815302 86.282778 
L 176.045462 84.971702 
L 176.127661 70.815532 
L 177.633904 64.690766 
L 178.78867 282.286 
L 180.037731 80.845038 
L 180.305306 316.037861 
L 180.399977 90.682754 
L 180.527529 88.9217 
L 180.593856 89.737715 
L 182.353689 74.144318 
L 182.767145 310.417563 
L 183.010154 81.673103 
L 183.307397 94.01154 
L 183.451766 293.412658 
L 183.772818 77.342748 
L 184.078186 80.848873 
L 184.443267 65.540576 
L 186.43874 81.507989 
L 186.509602 89.737715 
L 187.276423 91.36442 
L 188.013577 295.962079 
L 188.227486 306.258347 
L 188.380358 299.545349 
L 189.193854 88.9217 
L 189.678172 90.682737 
L 190.81631 298.701713 
L 190.905312 77.52007 
L 191.127347 45.763188 
L 192.923083 307.092595 
L 193.010385 90.682746 
L 194.289491 90.551979 
L 194.376226 70.621413 
L 195.089759 271.048113 
L 195.557448 94.594325 
L 195.895129 86.611771 
L 196.556886 83.992053 
L 197.057833 301.185935 
L 197.143245 87.477878 
L 197.522498 82.337263 
L 198.162523 84.174235 
L 198.865663 94.820102 
L 199.285166 71.46504 
L 199.678781 67.377164 
L 200.33638 89.121231 
L 200.567673 22.32 
L 200.903276 305.399272 
L 201.536687 91.36442 
L 202.147045 277.975805 
L 202.70317 73.149449 
L 203.213943 90.758279 
L 203.897808 78.342714 
L 204.207144 312.086356 
L 204.369277 68.864152 
L 204.539723 84.173841 
L 204.800306 81.681948 
L 205.400271 89.737715 
L 206.066563 27.600158 
L 206.800693 93.200999 
L 207.136295 90.759847 
L 207.281042 85.6413 
L 207.477944 83.165328 
L 207.850395 312.91711 
L 208.075641 28.393236 
L 208.177305 291.70901 
L 208.236829 83.165328 
L 209.761779 290.984318 
L 210.436573 308.751755 
L 210.894247 87.477878 
L 211.462466 96.43093 
L 211.518967 88.103987 
L 212.238735 80.848873 
L 212.786357 94.01154 
L 213.753481 73.99171 
L 214.440748 90.682737 
L 214.728164 92.388566 
L 215.446421 79.012295 
L 215.798274 57.22775 
L 216.239697 306.806286 
L 216.587582 90.682746 
L 217.652212 74.829872 
L 217.8973 307.094373 
L 218.302064 79.012295 
L 218.381429 89.121266 
L 218.482526 67.377164 
L 221.076074 88.103987 
L 221.557935 76.506136 
L 222.122186 88.9217 
L 222.634659 89.737724 
L 222.950798 49.266573 
L 223.114253 306.915256 
L 223.280543 93.790002 
L 223.776766 87.284644 
L 223.987273 91.574294 
L 224.125973 91.491334 
L 224.350842 94.01154 
L 225.498617 318.304188 
L 225.669442 42.343561 
L 226.552665 308.46641 
L 226.627118 305.145287 
L 226.715175 83.165328 
L 227.817977 82.337263 
L 228.105204 79.697867 
L 228.38714 312.737888 
L 229.026599 80.845038 
L 229.350674 91.36442 
L 230.120708 304.306975 
L 230.363528 82.337289 
L 230.577815 77.342976 
L 230.822525 92.983524 
L 231.197243 73.341431 
L 232.704241 35.424806 
L 233.607495 307.750563 
L 233.687427 294.263291 
L 234.041359 55.291818 
L 234.192342 68.226133 
L 234.355041 303.748834 
L 234.703682 73.990168 
L 234.9945 76.68584 
L 235.359014 83.325161 
L 235.496014 77.520237 
L 236.625648 70.81667 
L 236.93026 77.521603 
L 237.434986 294.469854 
L 238.933859 88.724946 
L 239.135485 299.545349 
L 239.219952 283.372114 
L 239.622826 27.575094 
L 239.979781 77.207095 
L 240.603745 288.510028 
L 240.925742 79.697175 
L 241.245849 24.271363 
L 241.538556 79.186368 
L 242.26645 78.353153 
L 242.413654 23.1235 
L 242.544607 22.32 
L 242.621516 71.35009 
L 242.907798 53.509807 
L 243.127943 73.337647 
L 243.723939 49.212626 
L 244.035732 83.32517 
L 245.017029 288.265422 
L 245.377385 282.278836 
L 245.513062 78.353153 
L 245.874553 86.611771 
L 245.941258 61.200046 
L 246.096398 84.149092 
L 246.322212 29.526474 
L 246.500217 71.657233 
L 246.757588 41.718749 
L 247.324483 89.060218 
L 247.551809 87.9119 
L 247.937298 89.872257 
L 249.3723 86.463751 
L 250.046528 87.284662 
L 250.526689 90.551996 
L 251.011196 74.830126 
L 251.39215 91.36442 
L 252.202055 72.457983 
L 252.296349 305.399281 
L 252.467929 93.200999 
L 253.5233 311.254473 
L 254.247982 312.916996 
L 254.983246 73.149449 
L 256.348142 83.99207 
L 257.797128 281.425235 
L 257.86251 94.594325 
L 258.021996 77.520526 
L 258.684886 35.424806 
L 258.834169 87.284653 
L 259.151253 88.9217 
L 259.894453 93.790002 
L 260.471364 87.477887 
L 260.537502 68.284615 
L 261.378397 305.141915 
L 262.007463 89.739292 
L 262.425832 80.033384 
L 262.490269 93.200999 
L 262.63804 22.32 
L 262.815289 258.895519 
L 263.241217 92.388566 
L 265.215715 74.176782 
L 265.279963 81.507901 
L 265.98556 81.508532 
L 266.11141 90.551979 
L 266.402795 63.840133 
L 267.592142 294.263291 
L 268.075326 80.015668 
L 268.454013 88.921735 
L 268.579675 78.178249 
L 268.746342 85.792454 
L 268.906207 76.506565 
L 269.94665 80.014617 
L 270.248049 83.992053 
L 270.393363 83.16644 
L 270.602926 85.6413 
L 271.305121 309.417894 
L 271.366346 85.641983 
L 272.129954 84.973514 
L 272.278481 295.962079 
L 273.218583 82.337263 
L 273.303995 94.820102 
L 273.375046 89.940574 
L 273.697421 89.940565 
L 274.03359 82.51384 
L 274.515074 87.286308 
L 275.8709 73.990168 
L 276.353517 94.01154 
L 276.431371 83.992228 
L 277.081411 25.763588 
L 277.49978 79.012295 
L 277.912102 93.790002 
L 278.304016 73.338252 
L 280.092006 88.103987 
L 280.255083 78.342714 
L 280.655689 27.600158 
L 281.083318 83.992053 
L 282.018696 90.758279 
L 282.547987 91.364429 
L 283.770593 48.511449 
L 284.667422 25.763588 
L 284.917234 90.551979 
L 285.367538 84.817386 
L 286.023437 297.657478 
L 286.105825 84.173841 
L 286.185758 294.397807 
L 286.265312 88.104066 
L 286.991506 88.105913 
L 288.749261 91.364429 
L 288.806328 307.750563 
L 288.888339 91.574294 
L 289.383428 92.983524 
L 290.206372 286.700913 
L 290.337136 267.665517 
L 291.300481 301.185935 
L 291.371721 52.713471 
L 291.767225 88.9217 
L 291.844512 90.758279 
L 291.981323 81.682605 
L 293.456763 73.992472 
L 294.059563 76.666451 
L 294.977367 72.457983 
L 295.052197 306.078889 
L 295.696002 316.226489 
L 295.767998 79.845369 
L 296.186556 89.940565 
L 296.436557 92.983524 
L 296.876846 74.144318 
L 297.205834 89.940565 
L 298.461886 79.179379 
L 298.822054 95.626589 
L 299.681846 304.558552 
L 301.090582 46.911051 
L 302.53012 299.349365 
L 303.10722 316.226489 
L 303.203592 94.820102 
L 303.4432 278.948483 
L 304.809041 79.845369 
L 305.117243 73.301663 
L 305.504622 77.520815 
L 305.648047 91.364534 
L 305.771063 313.746366 
L 305.932628 27.600158 
L 306.081911 83.992053 
L 306.453039 89.121301 
L 307.341175 295.249245 
L 307.653724 96.430904 
L 308.307355 89.739204 
L 308.519941 91.36442 
L 308.601385 313.746366 
L 309.167147 306.078687 
L 310.319079 81.507919 
L 310.597614 86.463734 
L 310.745007 85.828631 
L 311.896183 94.820102 
L 312.858583 82.513831 
L 314.570042 88.300312 
L 315.689472 289.273095 
L 315.773562 85.828631 
L 316.272997 75.85048 
L 316.368235 93.201156 
L 316.718955 75.828682 
L 317.077422 296.09987 
L 317.375609 80.015081 
L 317.525081 315.401927 
L 318.733514 27.600158 
L 319.580834 86.463734 
L 320.104646 79.847375 
L 320.174752 75.66856 
L 320.714247 68.284615 
L 320.928723 312.086356 
L 322.773024 297.798675 
L 323.022458 80.015799 
L 323.566678 74.829872 
L 323.794759 299.494057 
L 323.884518 74.986045 
L 324.036068 34.554678 
L 324.098237 269.407365 
L 325.617329 315.402365 
L 325.987134 314.574431 
L 326.616767 304.558552 
L 326.779844 73.301636 
L 326.954636 74.829872 
L 327.490542 68.084962 
L 328.518891 29.526474 
L 328.671386 71.46504 
L 329.078039 86.611771 
L 329.703136 71.351281 
L 330.117915 44.077808 
L 330.192745 85.6413 
L 330.566708 29.268864 
L 330.937268 88.9217 
L 331.441995 67.237692 
L 332.387388 85.792428 
L 332.698425 73.150465 
L 333.731498 67.237692 
L 333.888906 77.52007 
L 334.031953 70.815514 
L 334.267592 92.174962 
L 334.625304 22.32 
L 335.871719 86.611771 
L 336.237744 77.52007 
L 337.589413 74.176309 
L 337.879852 89.872204 
L 338.117004 277.1119 
L 338.501926 76.685822 
L 339.01251 93.1021 
L 339.331673 83.325318 
L 339.466594 71.657233 
L 339.901781 62.988712 
L 339.979823 76.685919 
L 340.448268 65.745467 
L 341.007983 311.770324 
L 341.463012 92.983524 
L 341.702809 315.365032 
L 342.131193 76.372208 
L 342.937319 295.113101 
L 343.107199 79.185028 
L 343.860981 89.737715 
L 344.088117 56.986131 
L 344.251194 288.292491 
L 344.617409 65.540594 
L 345.843227 315.401174 
L 345.99232 314.390375 
L 346.48174 82.499907 
L 346.742323 295.113101 
L 346.885181 85.792437 
L 347.915609 84.817386 
L 348.846452 310.250154 
L 349.245546 94.594325 
L 350.174122 309.417894 
L 350.250842 75.850427 
L 350.660896 303.562693 
L 350.738561 88.245499 
L 351.813584 22.32 
L 352.115551 79.185142 
L 352.244425 316.226489 
L 352.399755 80.525494 
L 352.642008 290.12907 
L 352.874246 87.284644 
L 354.120094 78.178056 
L 354.931511 73.337674 
L 354.986122 67.439114 
L 355.454378 72.497952 
L 355.948522 27.575094 
L 357.684357 290.002248 
L 358.151291 52.713471 
L 358.320037 79.012505 
L 359.910368 75.850427 
L 360.114829 79.697175 
L 360.42681 76.372785 
L 360.505042 79.845545 
L 360.577983 74.702564 
L 361.024696 56.131627 
L 361.420579 90.551987 
L 362.076288 84.644565 
L 362.604635 92.174962 
L 362.931923 87.429493 
L 363.480111 91.491492 
L 363.773952 81.507893 
L 364.072517 84.971509 
L 365.025847 73.149449 
L 365.190247 89.059762 
L 365.396786 74.829872 
L 366.287001 73.337647 
L 366.591802 92.297786 
L 366.918145 77.342652 
L 367.062137 89.872204 
L 367.87242 82.501474 
L 368.01301 306.915177 
L 368.159836 80.015764 
L 369.17439 73.149633 
L 370.324244 70.621659 
L 370.685357 73.149449 
L 371.227498 91.491299 
L 373.178753 285.722424 
L 373.233742 312.737958 
L 373.297613 52.65173 
L 373.796103 84.173841 
L 374.555365 25.763588 
L 375.14078 70.815514 
L 375.700684 81.507893 
L 375.988289 92.983524 
L 376.841845 81.352789 
L 377.251522 69.129188 
L 377.694645 83.823681 
L 379.059353 68.284615 
L 380.201459 79.697333 
L 380.618694 92.983524 
L 380.981885 86.464382 
L 381.3481 75.85048 
L 382.239071 84.644574 
L 382.301241 79.179327 
L 383.095273 80.014652 
L 383.264586 83.166676 
L 383.339038 92.983524 
L 383.855291 87.284644 
L 384.10019 82.513945 
L 384.188815 67.237709 
L 384.252685 25.763588 
L 384.696753 50.129992 
L 386.367206 78.342714 
L 387.718119 91.36442 
L 388.184296 74.830275 
L 388.326776 317.872837 
L 388.950551 83.165433 
L 393.508015 89.534874 
L 394.55356 85.001906 
L 394.646909 314.389911 
L 395.598916 84.971509 
L 395.670156 94.594325 
L 395.821706 76.666451 
L 395.976468 88.245499 
L 396.244043 94.820102 
L 396.317551 60.556545 
L 396.487619 302.601006 
L 398.22062 298.503864 
L 398.59685 76.506136 
L 398.81416 84.174051 
L 399.080223 66.389563 
L 399.46609 83.001212 
L 400.291301 86.611806 
L 400.944932 298.503864 
L 401.248032 24.271363 
L 401.907521 73.990168 
L 402.353857 321.5253 
L 403.611043 86.613636 
L 404.146949 77.342652 
L 404.452883 87.429484 
L 405.11634 82.337263 
L 405.277528 32.81283 
L 405.972164 90.551979 
L 406.271296 88.103987 
L 406.717254 87.284644 
L 407.095563 316.857178 
L 407.559661 71.465058 
L 408.22104 88.246112 
L 408.769417 309.588193 
L 409.044172 69.129188 
L 409.661333 89.872204 
L 410.810809 76.685831 
L 411.3127 82.499828 
L 411.731636 80.677253 
L 412.068184 92.174962 
L 412.151895 25.763588 
L 413.724842 77.520228 
L 413.785311 85.792428 
L 413.92609 314.545172 
L 414.416455 75.013911 
L 414.622994 264.957239 
L 416.618656 78.178038 
L 417.046852 85.641501 
L 417.353164 22.32 
L 418.198595 70.621413 
L 418.349578 81.673112 
L 419.630574 79.845369 
L 419.704648 83.32517 
L 421.107148 85.792428 
L 421.201253 76.506136 
L 421.433302 22.32 
L 421.982246 310.249769 
L 422.134741 74.82989 
L 422.762484 29.268864 
L 422.938222 86.463997 
L 423.001903 86.463734 
L 423.984144 73.99157 
L 424.150812 308.58482 
L 424.919334 93.1021 
L 425.136266 293.36662 
L 426.057849 22.32 
L 426.253995 80.845038 
L 426.421607 83.992167 
L 426.593755 256.213119 
L 427.622671 74.176309 
L 428.97245 76.506136 
L 430.142712 311.909788 
L 430.606432 84.971518 
L 431.119662 88.104827 
L 431.72265 300.19393 
L 432.036332 87.429476 
L 432.561467 291.669513 
L 432.70149 79.18565 
L 433.455084 85.641309 
L 434.989293 88.245517 
L 435.322816 301.229749 
L 435.670135 78.355632 
L 436.120061 302.070468 
L 436.946028 299.545402 
L 437.313377 24.271363 
L 437.785601 302.600971 
L 438.105897 80.01657 
L 438.186963 88.245499 
L 438.747434 85.792428 
L 438.95454 84.150721 
L 439.164669 93.904138 
L 439.38916 86.612962 
L 439.460211 73.337647 
L 439.549403 90.551979 
L 440.337955 71.657233 
L 440.40995 302.070468 
L 440.573594 86.611928 
L 440.70946 91.149923 
L 440.920724 87.097636 
L 441.000656 87.9119 
L 441.443212 78.353153 
L 441.904477 86.282856 
L 442.025603 77.205291 
L 442.262377 313.413581 
L 443.821907 92.174962 
L 443.967977 287.436512 
L 444.433777 87.284644 
L 444.958533 308.585056 
L 445.811334 71.613445 
L 447.272224 75.668534 
L 447.419806 89.059762 
L 448.693054 79.187445 
L 448.930772 81.673252 
L 449.140713 47.489169 
L 450.680402 76.506171 
L 452.580447 73.990168 
L 452.820811 85.792428 
L 453.772062 85.6413 
L 454.408308 91.36442 
L 455.043799 79.845501 
L 455.117117 292.561228 
L 455.345954 316.226507 
L 455.595955 78.17986 
L 456.738817 311.254473 
L 457.367127 81.507893 
L 459.552132 93.200999 
L 459.800999 89.737715 
L 460.432143 69.074279 
L 461.43536 90.551979 
L 461.561022 89.121652 
L 461.628482 22.32 
L 462.177427 317.676669 
L 463.546102 316.857187 
L 464.782313 306.238976 
L 465.334658 317.872837 
L 465.709187 75.668534 
L 465.790065 307.077637 
L 466.287043 22.32 
L 467.518719 83.994575 
L 467.975448 66.389563 
L 468.193325 88.9217 
L 470.023453 302.030525 
L 470.438799 87.284679 
L 471.442205 69.921637 
L 471.757588 307.915239 
L 473.157631 77.505112 
L 473.77706 315.214858 
L 474.120031 72.457983 
L 475.574686 79.179292 
L 475.815617 299.494057 
L 475.877975 82.337263 
L 476.009117 290.984318 
L 476.165769 91.574294 
L 476.219247 93.790002 
L 476.513277 296.09987 
L 477.427113 34.554678 
L 477.848127 36.294408 
L 478.156896 305.399272 
L 479.846435 92.983524 
L 480.799198 88.9217 
L 481.407099 293.545588 
L 482.028417 92.983524 
L 482.840968 80.849425 
L 482.910129 89.05978 
L 484.022567 83.992053 
L 484.237232 74.176318 
L 485.003486 85.792428 
L 485.085308 32.744626 
L 485.293548 76.506153 
L 486.635201 272.783486 
L 486.92205 90.682737 
L 487.93018 83.325161 
L 488.293182 51.10316 
L 488.440575 88.9217 
L 488.578142 89.059762 
L 489.259551 312.89787 
L 489.585894 74.144318 
L 489.916772 87.429476 
L 491.020896 87.284644 
L 491.100073 77.342643 
L 491.262772 89.872204 
L 491.678495 87.285003 
L 493.906585 89.060113 
L 494.555491 86.611771 
L 495.095932 69.776823 
L 495.381648 22.32 
L 495.85236 83.825065 
L 496.292271 82.177324 
L 496.940044 73.990168 
L 497.093862 92.297786 
L 498.180601 89.872204 
L 498.830264 83.32517 
L 499.419646 86.611771 
L 499.829323 80.677244 
L 500.174941 87.429598 
L 500.720105 76.685822 
L 501.09917 77.52007 
L 501.23787 86.282103 
L 501.3949 65.444874 
L 501.471809 79.697727 
L 502.146226 89.872204 
L 502.283037 83.325161 
L 502.752616 77.52007 
L 503.653035 312.072353 
L 504.08501 88.72435 
L 504.680817 82.178726 
L 504.812337 300.388039 
L 505.58256 308.58482 
L 505.731275 24.271363 
L 506.909096 81.673103 
L 507.75207 25.763588 
L 507.890959 76.685822 
L 508.229774 80.015668 
L 508.364506 92.174962 
L 509.128871 277.975805 
L 509.353551 80.848873 
L 511.930848 311.080418 
L 512.451447 311.909788 
L 512.704283 82.337271 
L 513.019477 91.491325 
L 514.146655 88.103987 
L 514.992463 89.737715 
L 515.543864 64.690766 
L 516.158946 75.013911 
L 516.943907 82.499828 
L 517.166886 85.792428 
L 517.549163 85.792428 
L 517.913488 83.823664 
L 518.345652 82.337263 
L 518.511374 76.685822 
L 519.28103 86.281989 
L 519.352081 89.534909 
L 520.705261 89.059832 
L 520.950349 76.687258 
L 521.431077 90.551979 
L 522.372502 73.990168 
L 523.293518 88.103987 
L 523.496278 310.249769 
L 523.651041 89.737715 
L 524.204142 75.014069 
L 524.93128 77.505112 
L 525.559212 83.992053 
L 525.746099 89.940565 
L 525.887067 314.574431 
L 526.153508 87.284644 
L 526.284083 85.6413 
L 527.042211 72.457983 
L 527.832653 82.500958 
L 527.915042 57.007289 
L 528.575853 89.873395 
L 528.87045 54.550058 
L 528.951139 85.792542 
L 530.337766 88.103987 
L 530.701524 77.523275 
L 530.841736 78.867998 
L 530.92318 68.284615 
L 531.166 86.463734 
L 531.846653 82.500459 
L 533.228934 71.61341 
L 533.953994 33.6398 
L 534.662425 301.880256 
L 535.055284 87.097636 
L 535.355171 85.463917 
L 535.432269 69.668195 
L 535.74633 89.872204 
L 536.204192 67.136753 
L 536.281668 38.868394 
L 536.348562 69.972833 
L 536.579855 89.737715 
L 536.803023 66.592772 
L 537.814176 290.856012 
L 538.209492 296.709269 
L 538.434927 89.059762 
L 539.637124 85.792428 
L 539.698916 87.911961 
L 540.010331 314.217931 
L 540.392041 80.015852 
L 540.950244 23.1235 
L 541.580632 90.682737 
L 541.732938 88.245499 
L 542.516199 24.073566 
L 542.938915 80.015668 
L 543.07497 73.990168 
L 543.500708 87.429476 
L 543.65018 78.039941 
L 543.807021 284.005561 
L 544.320629 62.988712 
L 544.716133 64.690766 
L 544.889792 310.417668 
L 545.055892 78.353153 
L 545.674187 276.483607 
L 546.816671 88.245674 
L 547.138857 74.176309 
L 547.54362 82.337271 
L 547.79211 71.35009 
L 548.934783 90.682754 
L 549.739586 78.353153 
L 549.813471 314.544288 
L 549.939133 74.702564 
L 550.398319 79.845369 
L 550.477306 302.070468 
L 550.862417 303.748834 
L 551.382828 25.763588 
L 551.812724 303.748948 
L 552.067449 83.325424 
L 552.340693 84.644784 
L 552.800634 79.845369 
L 553.813677 89.059762 
L 554.35922 76.686479 
L 555.801969 266.078566 
L 557.309912 78.353425 
L 557.539505 312.897703 
L 557.942379 28.651793 
L 558.489244 88.245499 
L 559.749832 63.749476 
L 560.563894 69.972833 
L 561.387405 83.992053 
L 561.918775 304.275124 
L 562.370969 88.245613 
L 564.199586 78.353258 
L 565.897061 306.258347 
L 566.564864 52.940815 
L 567.761392 24.271363 
L 567.842269 91.491807 
L 568.435431 84.81757 
L 568.753082 89.059841 
L 569.530863 73.337656 
L 569.764991 83.001212 
L 569.838876 80.015992 
L 570.587746 77.52007 
L 570.860234 316.857169 
L 571.559594 82.499828 
L 571.890283 89.872204 
L 572.625358 83.325353 
L 572.693575 72.189793 
L 573.440176 85.792428 
L 573.608544 52.65173 
L 574.204352 287.655519 
L 574.611761 83.824049 
L 575.750655 75.540412 
L 576.346462 73.337647 
L 577.374055 73.338689 
L 577.58872 300.38825 
L 577.861397 88.245849 
L 578.037135 84.149075 
L 578.106674 290.216785 
L 578.317559 77.205291 
L 578.549986 44.317536 
L 578.961364 72.189793 
L 578.961364 72.189793 
" clip-path="url(#p934609c4ef)" style="fill: none; stroke: #1f77b4; stroke-opacity: 0.1; stroke-width: 1.5; stroke-linecap: round"/>
   </g>
   <g id="line2d_14">
    <path d="M 71.688636 313.413669 
L 73.138 313.494078 
L 74.470583 311.205619 
L 74.644998 311.172656 
L 74.906715 308.872824 
L 75.543906 306.630811 
L 75.75857 304.009026 
L 76.939981 304.029857 
L 77.169574 301.691367 
L 78.745922 299.451935 
L 79.391806 299.500409 
L 79.713046 297.401743 
L 81.337959 295.339162 
L 82.318878 295.43025 
L 83.242729 293.338334 
L 83.617258 291.2771 
L 83.864802 289.058329 
L 84.562084 289.16321 
L 85.418475 286.745862 
L 85.802452 284.75768 
L 85.928492 282.748229 
L 85.999543 282.880466 
L 86.289416 280.789506 
L 87.605748 276.919574 
L 87.998229 275.02 
L 88.87635 273.018057 
L 89.343472 270.968923 
L 89.726316 271.213637 
L 90.901113 268.746803 
L 91.305121 268.891519 
L 91.71253 267.084783 
L 92.295299 265.162592 
L 92.61465 263.34361 
L 92.76072 261.278489 
L 94.209895 259.496715 
L 94.562315 257.792634 
L 95.487111 254.343728 
L 95.663038 254.822993 
L 96.381673 255.221454 
L 97.30628 253.493854 
L 97.998082 254.147131 
L 98.647177 252.190843 
L 99.918725 250.433574 
L 100.2154 251.069635 
L 100.992803 249.382154 
L 104.570483 247.654759 
L 104.65854 245.480082 
L 105.986966 243.857086 
L 106.477898 238.857057 
L 107.643436 237.225389 
L 107.910255 237.521618 
L 108.003037 235.44 
L 108.789321 233.91791 
L 110.162343 234.363052 
L 110.342805 232.934026 
L 111.88873 233.736075 
L 112.023273 232.305204 
L 112.303886 230.881863 
L 112.966776 228.793839 
L 113.430308 229.570571 
L 113.841875 230.900687 
L 114.305406 231.622509 
L 114.701478 230.147081 
L 115.455449 228.571107 
L 116.382513 225.604149 
L 116.678054 224.107483 
L 117.110974 224.862973 
L 117.282743 223.390512 
L 117.68335 222.007617 
L 117.763471 220.613825 
L 118.185619 221.327953 
L 118.840762 219.581418 
L 120.288614 220.36506 
L 120.452258 219.053574 
L 121.404265 217.779647 
L 122.001773 218.623694 
L 122.063375 217.337855 
L 122.243459 216.047241 
L 122.451321 216.73887 
L 122.585298 215.378198 
L 123.521243 216.322102 
L 123.74819 215.015162 
L 124.036173 215.987585 
L 124.453975 213.05093 
L 124.759343 214.108749 
L 125.153525 212.716086 
L 125.551674 213.801586 
L 127.616309 212.420386 
L 128.277687 209.79721 
L 128.349305 208.60008 
L 128.92924 207.365832 
L 129.636914 205.506075 
L 130.20759 203.087068 
L 130.596858 204.003412 
L 130.942664 202.230515 
L 131.618971 201.108119 
L 131.928874 199.980619 
L 132.002382 198.783315 
L 132.078535 199.861662 
L 132.296979 196.442348 
L 133.125024 194.194586 
L 133.27733 193.004966 
L 133.663197 191.810709 
L 133.831188 189.748834 
L 134.788297 186.717013 
L 134.865017 187.951889 
L 134.946461 187.005538 
L 136.839893 185.727003 
L 137.173227 186.885111 
L 139.842929 188.068039 
L 140.223127 189.193807 
L 140.371275 188.243058 
L 140.870522 187.086338 
L 141.927027 185.049002 
L 142.252236 183.949702 
L 142.785496 185.17608 
L 142.940258 186.578531 
L 143.358438 187.591937 
L 143.535688 186.443653 
L 144.636977 187.681286 
L 144.740152 186.713278 
L 145.523036 185.649314 
L 145.742235 184.509018 
L 146.441785 183.438949 
L 147.030034 181.220182 
L 147.739976 180.203051 
L 147.822932 179.187795 
L 148.244324 180.478745 
L 148.306305 181.801435 
L 148.666284 182.848097 
L 149.602418 184.103398 
L 150.027968 182.8776 
L 150.257182 181.857243 
L 150.917616 180.890258 
L 151.159114 179.965951 
L 151.791014 181.258603 
L 152.737352 182.428441 
L 153.325034 180.838923 
L 154.334297 182.156218 
L 154.805765 181.169643 
L 155.500024 178.280071 
L 155.788007 177.396286 
L 155.910645 176.434244 
L 156.308417 177.900482 
L 156.398932 179.287078 
L 157.074671 178.264144 
L 157.863035 176.324275 
L 157.926338 175.4807 
L 158.681821 176.794853 
L 159.071089 175.895254 
L 160.252311 175.046973 
L 161.906324 174.031326 
L 161.991926 173.008979 
L 162.310143 172.082708 
L 162.445442 170.388104 
L 163.813929 169.469754 
L 164.756865 168.652008 
L 164.844545 167.767839 
L 165.304487 166.967218 
L 165.439786 166.143449 
L 165.856265 165.301177 
L 168.007446 163.945393 
L 168.143123 163.174933 
L 169.679033 161.594573 
L 170.179791 160.037 
L 171.684521 159.0552 
L 172.146541 157.94312 
L 172.668274 157.201472 
L 173.130672 158.587518 
L 173.971757 157.797851 
L 174.652221 155.677399 
L 175.306607 154.941947 
L 175.561144 156.180817 
L 176.045462 154.769715 
L 176.127661 153.925954 
L 177.633904 153.029118 
L 178.78867 154.328182 
L 180.037731 153.589658 
L 180.305306 155.222304 
L 180.593856 153.26886 
L 182.353689 152.473638 
L 182.767145 154.061015 
L 183.307397 152.737297 
L 183.451766 154.15112 
L 184.443267 151.774755 
L 186.43874 151.068556 
L 186.509602 150.452166 
L 187.276423 149.858319 
L 187.938747 151.294628 
L 188.013577 152.748572 
L 188.380358 155.751223 
L 189.193854 155.07957 
L 189.678172 154.432365 
L 190.81631 155.882308 
L 191.127347 153.995939 
L 192.923083 155.534599 
L 193.010385 154.882821 
L 194.289491 154.23628 
L 194.376226 153.39593 
L 195.089759 154.578364 
L 195.557448 153.975509 
L 195.895129 153.298486 
L 196.556886 152.601939 
L 197.057833 154.095246 
L 197.143245 153.425725 
L 197.522498 152.711268 
L 198.162523 152.022453 
L 198.865663 151.447555 
L 199.678781 149.806861 
L 199.943332 149.063346 
L 200.33638 148.460913 
L 200.567673 147.193165 
L 200.903276 148.783176 
L 201.536687 148.206103 
L 202.147045 149.510321 
L 203.213943 148.160116 
L 203.897808 147.458433 
L 204.207144 149.112985 
L 204.539723 147.052969 
L 204.800306 146.395974 
L 205.400271 145.826544 
L 206.066563 144.638339 
L 206.800693 144.121381 
L 207.136295 143.585084 
L 207.477944 142.401354 
L 207.850395 144.11508 
L 208.075641 142.952046 
L 208.177305 144.447091 
L 208.236829 143.831194 
L 209.761779 145.31012 
L 210.436573 146.95275 
L 210.894247 146.355012 
L 211.462466 145.853263 
L 211.518967 145.272868 
L 213.753481 143.411935 
L 214.440748 142.881993 
L 214.728164 142.374521 
L 215.446421 141.737715 
L 215.798274 140.888369 
L 216.239697 142.555886 
L 216.587582 142.034547 
L 217.652212 141.359124 
L 217.8973 143.024804 
L 218.302064 142.381463 
L 218.482526 141.097752 
L 221.076074 140.565151 
L 221.557935 139.921342 
L 222.634659 138.909576 
L 222.950798 138.008642 
L 223.114253 139.706195 
L 223.280543 139.244726 
L 223.776766 138.722514 
L 224.350842 137.338869 
L 225.498617 139.157615 
L 225.669442 138.18461 
L 226.552665 139.895985 
L 226.627118 141.556782 
L 226.715175 140.969933 
L 227.817977 140.38066 
L 228.105204 139.770783 
L 228.38714 141.509145 
L 229.026599 140.899456 
L 229.350674 140.401616 
L 230.120708 142.048906 
L 231.197243 139.650707 
L 232.704241 138.60321 
L 233.607495 140.303184 
L 233.687427 141.850521 
L 233.93894 141.285604 
L 234.192342 139.695765 
L 234.355041 141.34454 
L 235.359014 139.454735 
L 235.496014 138.832278 
L 236.625648 138.148704 
L 236.93026 137.539386 
L 237.434986 139.116577 
L 238.933859 138.610128 
L 239.219952 141.666207 
L 239.491684 141.145664 
L 239.622826 140.004251 
L 239.979781 139.373124 
L 240.603745 140.871987 
L 240.925742 140.257165 
L 241.245849 139.091479 
L 241.538556 138.489417 
L 242.26645 137.885033 
L 242.621516 134.93624 
L 243.127943 133.507027 
L 244.035732 132.164021 
L 245.017029 133.73288 
L 245.377385 135.225804 
L 245.513062 134.654219 
L 245.874553 134.171381 
L 246.096398 132.942634 
L 246.757588 129.566501 
L 247.324483 129.159403 
L 247.551809 128.744855 
L 247.937298 128.354176 
L 249.3723 127.933166 
L 250.526689 127.153054 
L 251.321855 126.264631 
L 251.39215 125.913875 
L 252.202055 125.37663 
L 252.296349 127.185903 
L 252.467929 126.844346 
L 253.5233 128.697714 
L 254.247982 130.549164 
L 254.983246 129.972283 
L 256.348142 129.51017 
L 257.797128 131.036954 
L 258.021996 130.136524 
L 258.684886 129.184648 
L 258.834169 128.763542 
L 259.151253 128.363122 
L 259.894453 128.015653 
L 260.471364 127.608238 
L 260.537502 127.012021 
L 261.378397 128.802271 
L 262.007463 128.409679 
L 262.425832 127.923485 
L 262.63804 126.516681 
L 262.815289 127.847121 
L 263.241217 127.490754 
L 265.215715 126.954935 
L 265.279963 126.498181 
L 265.98556 126.046024 
L 266.497467 124.636641 
L 267.592142 126.341431 
L 268.454013 125.504447 
L 268.906207 124.150774 
L 269.94665 123.707195 
L 270.248049 123.308048 
L 270.602926 122.530109 
L 271.305121 124.408378 
L 271.366346 124.018766 
L 272.129954 123.626352 
L 272.278481 125.358369 
L 273.218583 124.925996 
L 273.375046 124.274853 
L 274.515074 123.149451 
L 276.353517 122.36751 
L 276.431371 121.981829 
L 277.081411 121.014811 
L 278.304016 119.85109 
L 280.092006 119.532024 
L 280.655689 118.198283 
L 281.083318 117.854502 
L 282.547987 117.318683 
L 283.770593 116.627153 
L 285.367538 115.153091 
L 286.023437 116.987306 
L 286.105825 116.657522 
L 286.185758 118.443857 
L 286.265312 118.138934 
L 286.991506 117.837095 
L 288.749261 117.571038 
L 288.806328 119.48239 
L 288.888339 119.201906 
L 289.383428 118.938405 
L 290.206372 120.62446 
L 290.337136 122.10226 
L 291.300481 123.902096 
L 291.371721 123.186632 
L 291.767225 122.429322 
L 291.981323 121.704704 
L 293.456763 121.225184 
L 294.059563 120.777358 
L 294.977367 120.291736 
L 295.052197 122.158944 
L 295.696002 124.109371 
L 295.767998 123.664507 
L 296.436557 123.020628 
L 297.205834 122.201882 
L 298.461886 121.769495 
L 298.822054 120.892842 
L 299.681846 122.738729 
L 301.090582 121.976641 
L 302.53012 123.759282 
L 303.10722 125.693626 
L 303.203592 125.383339 
L 303.4432 126.926707 
L 304.809041 126.453528 
L 305.648047 125.090525 
L 305.771063 126.986564 
L 306.081911 125.565639 
L 306.371406 125.182847 
L 306.453039 124.82042 
L 307.341175 126.533272 
L 307.653724 126.230736 
L 308.307355 125.863987 
L 308.519941 125.517257 
L 308.601385 127.409007 
L 309.167147 129.204682 
L 310.319079 128.725318 
L 310.745007 127.873725 
L 311.896183 127.541527 
L 312.858583 127.088988 
L 314.570042 126.699152 
L 315.689472 128.333061 
L 315.773562 127.905881 
L 316.272997 127.382711 
L 316.368235 127.039178 
L 316.718955 126.524499 
L 317.077422 128.228774 
L 317.375609 127.744215 
L 317.525081 129.630222 
L 318.733514 128.604794 
L 319.580834 128.181266 
L 320.104646 127.695498 
L 320.174752 127.172614 
L 320.714247 126.580775 
L 320.928723 128.445153 
L 322.773024 130.147198 
L 323.022458 129.643365 
L 323.566678 129.092476 
L 323.794759 130.805054 
L 324.036068 129.282357 
L 324.098237 130.690648 
L 325.617329 132.547048 
L 325.987134 134.376469 
L 326.616767 136.086841 
L 326.954636 134.846528 
L 327.490542 134.175558 
L 328.518891 133.123808 
L 328.671386 132.504122 
L 329.703136 131.432926 
L 330.117915 130.554985 
L 330.192745 130.103592 
L 330.566708 129.090177 
L 331.441995 128.068898 
L 332.387388 127.644009 
L 332.698425 127.096335 
L 333.731498 126.494741 
L 334.267592 125.113488 
L 334.625304 124.080388 
L 335.871719 123.703819 
L 336.237744 123.239661 
L 337.589413 122.746562 
L 337.879852 122.416166 
L 338.117004 123.970897 
L 338.501926 123.49567 
L 339.01251 123.190207 
L 339.331673 122.789555 
L 339.466594 122.275662 
L 339.901781 121.679814 
L 339.979823 121.227614 
L 340.448268 120.670004 
L 341.007983 122.59061 
L 341.463012 122.293052 
L 341.702809 124.233474 
L 342.131193 123.752456 
L 342.937319 125.474673 
L 343.107199 125.009451 
L 343.860981 124.654961 
L 344.088117 123.974872 
L 344.251194 125.626306 
L 344.617409 125.022429 
L 345.843227 126.935783 
L 345.99232 128.819749 
L 346.48174 128.354223 
L 346.742323 130.030192 
L 346.885181 129.585591 
L 347.915609 129.135659 
L 348.846452 130.955906 
L 349.245546 130.590463 
L 350.174122 132.387723 
L 350.250842 131.819509 
L 350.660896 133.545571 
L 350.738561 133.090294 
L 351.813584 131.977025 
L 352.115551 131.446453 
L 352.244425 133.303539 
L 352.399755 132.773106 
L 352.642008 134.354573 
L 352.874246 133.881509 
L 354.120094 133.321675 
L 354.931511 132.718821 
L 354.986122 132.062743 
L 355.454378 131.464102 
L 355.948522 130.419992 
L 357.684357 132.023833 
L 358.151291 131.226744 
L 358.320037 130.701978 
L 359.910368 130.150706 
L 360.505042 128.613148 
L 360.577983 128.071333 
L 361.420579 126.49935 
L 362.604635 125.737958 
L 362.931923 125.352948 
L 363.480111 125.012632 
L 364.072517 124.177369 
L 365.025847 123.664526 
L 365.396786 122.829434 
L 366.287001 122.332029 
L 366.918145 121.581057 
L 367.062137 121.262375 
L 367.87242 120.872818 
L 368.01301 122.742591 
L 368.159836 122.313175 
L 370.324244 121.304522 
L 370.685357 120.820552 
L 371.227498 120.525785 
L 373.178753 122.186053 
L 373.233742 124.101148 
L 373.297613 123.383063 
L 373.796103 122.989001 
L 374.555365 122.011861 
L 375.988289 120.812889 
L 376.841845 120.416305 
L 377.251522 119.900857 
L 377.694645 119.538272 
L 379.059353 119.02316 
L 379.382105 118.547133 
L 380.618694 117.903686 
L 380.981885 117.587713 
L 381.281962 117.168244 
L 381.3481 116.75299 
L 382.239071 116.430292 
L 382.301241 116.055911 
L 383.095273 115.693687 
L 383.339038 115.141825 
L 383.855291 114.861853 
L 384.10019 114.536749 
L 384.252685 113.173966 
L 384.696753 112.540359 
L 387.718119 111.987294 
L 388.113246 111.649263 
L 388.184296 111.279223 
L 388.326776 113.35554 
L 388.950551 113.052122 
L 393.508015 112.815768 
L 394.55356 112.536232 
L 394.646909 114.564912 
L 395.598916 114.267491 
L 395.976468 113.438095 
L 396.244043 113.25098 
L 396.317551 112.721388 
L 396.487619 114.629725 
L 398.22062 116.477707 
L 398.81416 115.75536 
L 399.080223 115.259221 
L 399.46609 114.93502 
L 400.291301 114.650365 
L 400.944932 116.498139 
L 401.167533 116.194455 
L 401.248032 115.270605 
L 401.907521 114.855726 
L 402.353857 116.932807 
L 403.611043 116.628092 
L 405.11634 115.606024 
L 405.277528 114.773932 
L 405.972164 114.530495 
L 406.717254 113.993744 
L 407.095563 116.032572 
L 407.559661 115.584657 
L 408.22104 115.309898 
L 408.769417 117.262444 
L 409.044172 116.778693 
L 411.3127 115.770279 
L 412.068184 115.183991 
L 412.151895 114.285294 
L 413.724842 113.915795 
L 413.785311 113.633148 
L 413.92609 115.652365 
L 414.416455 115.243938 
L 414.622994 116.748594 
L 416.618656 116.360951 
L 417.046852 116.052212 
L 417.593528 114.302683 
L 418.198595 113.863675 
L 418.349578 113.540152 
L 419.630574 113.201511 
L 419.704648 112.901246 
L 421.107148 112.628796 
L 421.433302 111.361776 
L 421.982246 113.360651 
L 422.134741 112.973407 
L 422.938222 111.874184 
L 423.001903 111.618802 
L 423.984144 111.240639 
L 424.150812 113.223998 
L 424.919334 113.021768 
L 425.136266 114.834279 
L 426.253995 113.572231 
L 426.421607 113.274944 
L 426.593755 114.711509 
L 427.622671 114.30412 
L 428.97245 113.924241 
L 430.142712 115.914045 
L 431.119662 115.326701 
L 431.72265 117.184663 
L 432.036332 116.885616 
L 432.561467 118.642238 
L 432.70149 117.918858 
L 433.455084 117.594461 
L 434.989293 117.299497 
L 435.322816 119.148042 
L 435.670135 118.738068 
L 436.120061 120.580605 
L 436.946028 122.379246 
L 437.313377 121.393237 
L 437.785601 123.21442 
L 438.105897 122.780271 
L 438.186963 122.433188 
L 438.747434 122.064939 
L 439.019922 121.336291 
L 439.38916 120.714384 
L 439.549403 119.939881 
L 440.101559 119.520165 
L 440.337955 119.03913 
L 440.40995 120.878641 
L 441.000656 119.584307 
L 441.904477 118.8394 
L 442.025603 118.420967 
L 442.262377 120.380691 
L 443.821907 120.097217 
L 443.967977 121.779019 
L 444.433777 121.432342 
L 444.958533 123.313273 
L 445.811334 122.793677 
L 447.272224 122.320058 
L 447.419806 121.985783 
L 448.693054 121.555649 
L 448.930772 121.154821 
L 449.140713 119.880033 
L 452.580447 118.987291 
L 452.820811 118.653674 
L 454.408308 118.050962 
L 455.043799 117.666988 
L 455.117117 119.424719 
L 455.345954 121.402626 
L 455.515456 121.051481 
L 455.595955 120.620611 
L 456.738817 122.536529 
L 457.367127 122.124181 
L 459.083498 121.806872 
L 459.552132 121.519376 
L 459.800999 121.199963 
L 460.432143 120.676086 
L 461.43536 120.373331 
L 461.561022 120.059244 
L 461.628482 119.07694 
L 462.177427 121.072917 
L 464.782313 124.881788 
L 465.334658 126.821397 
L 465.709187 126.307298 
L 465.790065 128.124085 
L 466.287043 127.060727 
L 467.340525 126.586201 
L 467.518719 126.158145 
L 468.193325 125.189257 
L 470.023453 126.966556 
L 470.438799 126.567743 
L 471.442205 125.998436 
L 471.757588 127.826745 
L 473.157631 127.321 
L 473.77706 129.209381 
L 474.120031 128.639015 
L 475.574686 128.141932 
L 475.815617 129.864064 
L 475.877975 129.386408 
L 476.009117 131.010507 
L 476.219247 130.244071 
L 476.513277 131.910964 
L 477.427113 130.932509 
L 477.848127 129.981372 
L 478.156896 131.744366 
L 479.846435 131.35481 
L 480.799198 130.928346 
L 481.407099 132.562691 
L 482.840968 131.649177 
L 482.910129 131.221142 
L 484.022567 130.746478 
L 484.237232 130.177934 
L 485.003486 129.731848 
L 485.085308 128.757102 
L 485.293548 128.231967 
L 486.635201 129.684746 
L 486.92205 129.292766 
L 487.93018 128.83078 
L 488.578142 127.268448 
L 489.259551 129.13407 
L 489.916772 128.167822 
L 491.020896 127.756936 
L 491.262772 126.8746 
L 491.678495 126.476715 
L 493.906585 126.100669 
L 494.555491 125.703795 
L 495.095932 125.141715 
L 495.381648 124.108331 
L 496.292271 123.286126 
L 496.694956 122.817781 
L 497.093862 122.02525 
L 498.180601 121.702104 
L 499.419646 120.967616 
L 501.23787 119.034707 
L 501.471809 118.106182 
L 502.146226 117.822423 
L 502.283037 117.475717 
L 502.752616 117.074153 
L 503.653035 119.033934 
L 504.680817 118.361972 
L 504.812337 120.19138 
L 505.58256 122.084781 
L 505.731275 121.101732 
L 506.909096 120.705464 
L 507.75207 119.751274 
L 507.890959 119.318456 
L 508.364506 118.654624 
L 509.128871 120.255842 
L 509.353551 119.859792 
L 511.930848 121.781607 
L 512.451447 123.692443 
L 513.019477 122.957361 
L 514.992463 122.276731 
L 515.543864 121.697977 
L 516.158946 121.228791 
L 516.943907 120.839555 
L 517.166886 120.487322 
L 518.345652 119.39741 
L 518.511374 118.968148 
L 519.28103 118.639644 
L 519.352081 118.347134 
L 520.705261 118.052789 
L 520.950349 117.637055 
L 522.372502 116.928917 
L 523.293518 116.639219 
L 523.496278 118.585054 
L 523.651041 118.295131 
L 524.204142 117.860146 
L 525.559212 117.118261 
L 525.746099 116.845118 
L 525.887067 118.832347 
L 526.153508 118.515285 
L 526.284083 118.184893 
L 527.832653 117.371312 
L 527.915042 116.764639 
L 528.575853 116.494375 
L 528.951139 115.569515 
L 530.337766 115.293479 
L 530.701524 114.913879 
L 531.166 113.808997 
L 531.846653 113.494339 
L 533.228934 113.073425 
L 533.953994 112.275097 
L 534.662425 114.180676 
L 535.355171 113.62261 
L 535.432269 113.180857 
L 536.204192 112.486199 
L 536.348562 111.326487 
L 536.579855 111.109515 
L 536.803023 110.66211 
L 537.814176 112.473104 
L 538.209492 114.324724 
L 538.434927 114.070805 
L 539.637124 113.7866 
L 539.698916 113.526553 
L 540.010331 115.543552 
L 540.392041 115.18649 
L 540.950244 114.261234 
L 541.580632 114.024264 
L 541.732938 113.765181 
L 543.65018 111.557564 
L 543.807021 113.29071 
L 544.716133 112.301801 
L 544.889792 114.292916 
L 545.055892 113.931712 
L 545.674187 115.565399 
L 546.816671 115.290829 
L 547.138857 114.877618 
L 547.54362 114.550579 
L 547.79211 114.116404 
L 548.934783 113.88089 
L 549.739586 113.523827 
L 549.813471 115.544133 
L 549.939133 115.133665 
L 550.398319 114.779009 
L 550.477306 116.661335 
L 550.862417 118.541611 
L 551.382828 117.609169 
L 551.812724 119.47992 
L 552.340693 118.770109 
L 552.800634 118.378905 
L 553.813677 118.084241 
L 554.35922 117.668183 
L 555.801969 119.159744 
L 557.309912 118.749631 
L 557.539505 120.700867 
L 557.85999 120.346727 
L 557.942379 119.42517 
L 558.489244 119.111806 
L 559.749832 118.555401 
L 560.563894 118.067134 
L 561.387405 117.724671 
L 561.918775 119.59955 
L 562.370969 119.284435 
L 564.199586 118.873066 
L 565.897061 120.756336 
L 566.564864 120.074772 
L 567.761392 119.111924 
L 567.842269 118.834335 
L 569.530863 117.745809 
L 569.764991 117.396617 
L 569.838876 117.020932 
L 570.587746 116.623938 
L 570.860234 118.636333 
L 571.493267 118.322697 
L 571.559594 117.962668 
L 571.890283 117.680352 
L 572.625358 117.335075 
L 572.693575 116.881354 
L 573.440176 116.568902 
L 573.608544 115.471307 
L 574.204352 117.201802 
L 574.530695 116.943405 
L 574.611761 116.610547 
L 575.750655 116.197782 
L 576.346462 115.767027 
L 577.374055 115.340611 
L 577.58872 117.200386 
L 578.037135 116.580137 
L 578.106674 118.325229 
L 578.317559 117.911963 
L 578.549986 117.17232 
L 578.961364 116.720235 
L 578.961364 116.720235 
" clip-path="url(#p934609c4ef)" style="fill: none; stroke: #1f77b4; stroke-width: 1.5; stroke-linecap: round"/>
   </g>
   <g id="patch_3">
    <path d="M 46.325 339.84 
L 46.325 7.2 
" style="fill: none; stroke: #000000; stroke-linejoin: miter; stroke-linecap: square"/>
   </g>
   <g id="patch_4">
    <path d="M 604.325 339.84 
L 604.325 7.2 
" style="fill: none; stroke: #000000; stroke-linejoin: miter; stroke-linecap: square"/>
   </g>
   <g id="patch_5">
    <path d="M 46.325 339.84 
L 604.325 339.84 
" style="fill: none; stroke: #000000; stroke-linejoin: miter; stroke-linecap: square"/>
   </g>
   <g id="patch_6">
    <path d="M 46.325 7.2 
L 604.325 7.2 
" style="fill: none; stroke: #000000; stroke-linejoin: miter; stroke-linecap: square"/>
   </g>
   <g id="legend_1">
    <g id="patch_7">
     <path d="M 53.325 42.817187 
L 170.325 42.817187 
Q 172.325 42.817187 172.325 40.817187 
L 172.325 14.2 
Q 172.325 12.2 170.325 12.2 
L 53.325 12.2 
Q 51.325 12.2 51.325 14.2 
L 51.325 40.817187 
Q 51.325 42.817187 53.325 42.817187 
z
" style="fill: #ffffff; opacity: 0.8; stroke: #000000; stroke-linejoin: miter"/>
    </g>
    <g id="line2d_15">
     <path d="M 55.325 20.5125 
L 65.325 20.5125 
L 75.325 20.5125 
" style="fill: none; stroke: #1f77b4; stroke-opacity: 0.1; stroke-width: 1.5; stroke-linecap: round"/>
    </g>
    <g id="text_16">
     <!-- Reward (Original) -->
     <g style="fill: #262626" transform="translate(83.325 24.0125) scale(0.1 -0.1)">
      <defs>
       <path id="SimHei-20" transform="scale(0.015625)"/>
       <path id="SimHei-28" d="M 2975 -200 
L 2700 -475 
Q 2075 125 1762 775 
Q 1450 1425 1450 2250 
Q 1450 3075 1762 3725 
Q 2075 4375 2700 5000 
L 2975 4725 
Q 2400 4175 2112 3587 
Q 1825 3000 1825 2250 
Q 1825 1500 2112 912 
Q 2400 325 2975 -200 
z
" transform="scale(0.015625)"/>
       <path id="SimHei-4f" d="M 2950 2275 
Q 2950 1100 2587 587 
Q 2225 75 1575 75 
Q 925 75 550 587 
Q 175 1100 175 2275 
Q 175 3450 550 3950 
Q 925 4450 1575 4450 
Q 2225 4450 2587 3950 
Q 2950 3450 2950 2275 
z
M 2350 2275 
Q 2350 3325 2125 3650 
Q 1900 3975 1575 3975 
Q 1250 3975 1012 3650 
Q 775 3325 775 2275 
Q 775 1225 1012 887 
Q 1250 550 1575 550 
Q 1900 550 2125 887 
Q 2350 1225 2350 2275 
z
" transform="scale(0.015625)"/>
       <path id="SimHei-69" d="M 1800 3725 
L 1300 3725 
L 1300 4375 
L 1800 4375 
L 1800 3725 
z
M 1800 125 
L 1300 125 
L 1300 2925 
L 1800 2925 
L 1800 125 
z
" transform="scale(0.015625)"/>
       <path id="SimHei-67" d="M 2975 2500 
Q 2800 2550 2637 2562 
Q 2475 2575 2300 2525 
Q 2375 2450 2425 2337 
Q 2475 2225 2475 2000 
Q 2475 1575 2187 1300 
Q 1900 1025 1475 1025 
Q 1375 1025 1212 1062 
Q 1050 1100 950 1150 
Q 875 1100 850 1050 
Q 825 1000 825 925 
Q 825 800 1000 737 
Q 1175 675 1625 675 
Q 2350 675 2612 475 
Q 2875 275 2875 -25 
Q 2875 -425 2487 -612 
Q 2100 -800 1575 -800 
Q 900 -800 575 -625 
Q 250 -450 250 -150 
Q 250 0 375 150 
Q 500 300 700 400 
Q 550 475 462 587 
Q 375 700 375 875 
Q 375 1025 487 1137 
Q 600 1250 750 1325 
Q 625 1450 550 1625 
Q 475 1800 475 2000 
Q 475 2425 762 2700 
Q 1050 2975 1475 2975 
Q 1700 2975 1862 2912 
Q 2025 2850 2150 2725 
Q 2350 2875 2550 2937 
Q 2750 3000 2975 2975 
L 2975 2500 
z
M 1975 2000 
Q 1975 2250 1850 2400 
Q 1725 2550 1475 2550 
Q 1225 2550 1100 2400 
Q 975 2250 975 2000 
Q 975 1750 1100 1600 
Q 1225 1450 1475 1450 
Q 1725 1450 1850 1600 
Q 1975 1750 1975 2000 
z
M 2400 -75 
Q 2400 25 2287 125 
Q 2175 225 1725 225 
Q 1625 225 1450 237 
Q 1275 250 1050 275 
Q 850 200 775 100 
Q 700 0 700 -100 
Q 700 -250 900 -350 
Q 1100 -450 1600 -450 
Q 2025 -450 2212 -337 
Q 2400 -225 2400 -75 
z
" transform="scale(0.015625)"/>
       <path id="SimHei-6e" d="M 2800 125 
L 2300 125 
L 2300 1925 
Q 2300 2225 2150 2400 
Q 2000 2575 1750 2575 
Q 1425 2575 1137 2237 
Q 850 1900 850 1400 
L 850 125 
L 350 125 
L 350 2925 
L 850 2925 
L 850 2400 
Q 1050 2675 1287 2825 
Q 1525 2975 1900 2975 
Q 2350 2975 2575 2725 
Q 2800 2475 2800 2100 
L 2800 125 
z
" transform="scale(0.015625)"/>
       <path id="SimHei-6c" d="M 1825 125 
L 1325 125 
L 1325 4400 
L 1825 4400 
L 1825 125 
z
" transform="scale(0.015625)"/>
       <path id="SimHei-29" d="M 1675 2250 
Q 1675 1425 1362 775 
Q 1050 125 425 -475 
L 150 -200 
Q 725 325 1012 912 
Q 1300 1500 1300 2250 
Q 1300 3000 1012 3587 
Q 725 4175 150 4725 
L 425 5000 
Q 1050 4375 1362 3725 
Q 1675 3075 1675 2250 
z
" transform="scale(0.015625)"/>
      </defs>
      <use xlink:href="#SimHei-52"/>
      <use xlink:href="#SimHei-65" x="50"/>
      <use xlink:href="#SimHei-77" x="100"/>
      <use xlink:href="#SimHei-61" x="150"/>
      <use xlink:href="#SimHei-72" x="200"/>
      <use xlink:href="#SimHei-64" x="250"/>
      <use xlink:href="#SimHei-20" x="300"/>
      <use xlink:href="#SimHei-28" x="350"/>
      <use xlink:href="#SimHei-4f" x="400"/>
      <use xlink:href="#SimHei-72" x="450"/>
      <use xlink:href="#SimHei-69" x="500"/>
      <use xlink:href="#SimHei-67" x="550"/>
      <use xlink:href="#SimHei-69" x="600"/>
      <use xlink:href="#SimHei-6e" x="650"/>
      <use xlink:href="#SimHei-61" x="700"/>
      <use xlink:href="#SimHei-6c" x="750"/>
      <use xlink:href="#SimHei-29" x="800"/>
     </g>
    </g>
    <g id="line2d_16">
     <path d="M 55.325 34.067187 
L 65.325 34.067187 
L 75.325 34.067187 
" style="fill: none; stroke: #1f77b4; stroke-width: 1.5; stroke-linecap: round"/>
    </g>
    <g id="text_17">
     <!-- Reward (Smooth) -->
     <g style="fill: #262626" transform="translate(83.325 37.567187) scale(0.1 -0.1)">
      <defs>
       <path id="SimHei-6d" d="M 3050 125 
L 2550 125 
L 2550 2150 
Q 2550 2300 2500 2400 
Q 2450 2500 2300 2500 
Q 2125 2500 1975 2312 
Q 1825 2125 1825 1825 
L 1825 125 
L 1325 125 
L 1325 2150 
Q 1325 2300 1275 2400 
Q 1225 2500 1075 2500 
Q 900 2500 750 2312 
Q 600 2125 600 1825 
L 600 125 
L 100 125 
L 100 2925 
L 600 2925 
L 600 2550 
Q 725 2750 900 2862 
Q 1075 2975 1275 2975 
Q 1475 2975 1612 2862 
Q 1750 2750 1800 2550 
Q 1925 2750 2087 2862 
Q 2250 2975 2450 2975 
Q 2750 2975 2900 2812 
Q 3050 2650 3050 2350 
L 3050 125 
z
" transform="scale(0.015625)"/>
       <path id="SimHei-6f" d="M 2925 1525 
Q 2925 875 2525 475 
Q 2125 75 1575 75 
Q 1025 75 625 475 
Q 225 875 225 1525 
Q 225 2175 625 2575 
Q 1025 2975 1575 2975 
Q 2125 2975 2525 2575 
Q 2925 2175 2925 1525 
z
M 2375 1525 
Q 2375 2025 2125 2275 
Q 1875 2525 1575 2525 
Q 1275 2525 1025 2275 
Q 775 2025 775 1525 
Q 775 1025 1025 775 
Q 1275 525 1575 525 
Q 1875 525 2125 775 
Q 2375 1025 2375 1525 
z
" transform="scale(0.015625)"/>
       <path id="SimHei-68" d="M 2800 125 
L 2300 125 
L 2300 1925 
Q 2300 2225 2150 2400 
Q 2000 2575 1750 2575 
Q 1425 2575 1137 2237 
Q 850 1900 850 1400 
L 850 125 
L 350 125 
L 350 4400 
L 850 4400 
L 850 2400 
Q 1050 2675 1287 2825 
Q 1525 2975 1900 2975 
Q 2350 2975 2575 2725 
Q 2800 2475 2800 2100 
L 2800 125 
z
" transform="scale(0.015625)"/>
      </defs>
      <use xlink:href="#SimHei-52"/>
      <use xlink:href="#SimHei-65" x="50"/>
      <use xlink:href="#SimHei-77" x="100"/>
      <use xlink:href="#SimHei-61" x="150"/>
      <use xlink:href="#SimHei-72" x="200"/>
      <use xlink:href="#SimHei-64" x="250"/>
      <use xlink:href="#SimHei-20" x="300"/>
      <use xlink:href="#SimHei-28" x="350"/>
      <use xlink:href="#SimHei-53" x="400"/>
      <use xlink:href="#SimHei-6d" x="450"/>
      <use xlink:href="#SimHei-6f" x="500"/>
      <use xlink:href="#SimHei-6f" x="550"/>
      <use xlink:href="#SimHei-74" x="600"/>
      <use xlink:href="#SimHei-68" x="650"/>
      <use xlink:href="#SimHei-29" x="700"/>
     </g>
    </g>
   </g>
  </g>
 </g>
 <defs>
  <clipPath id="p934609c4ef">
   <rect x="46.325" y="7.2" width="558" height="332.64"/>
  </clipPath>
 </defs>
</svg>
