<?xml version="1.0" encoding="utf-8" standalone="no"?>
<!DOCTYPE svg PUBLIC "-//W3C//DTD SVG 1.1//EN"
  "http://www.w3.org/Graphics/SVG/1.1/DTD/svg11.dtd">
<svg xmlns:xlink="http://www.w3.org/1999/xlink" width="608.115937pt" height="381.655312pt" viewBox="0 0 608.115937 381.655312" xmlns="http://www.w3.org/2000/svg" version="1.1">
 <metadata>
  <rdf:RDF xmlns:dc="http://purl.org/dc/elements/1.1/" xmlns:cc="http://creativecommons.org/ns#" xmlns:rdf="http://www.w3.org/1999/02/22-rdf-syntax-ns#">
   <cc:Work>
    <dc:type rdf:resource="http://purl.org/dc/dcmitype/StillImage"/>
    <dc:date>2025-08-28T20:57:56.182395</dc:date>
    <dc:format>image/svg+xml</dc:format>
    <dc:creator>
     <cc:Agent>
      <dc:title>Matplotlib v3.9.4, https://matplotlib.org/</dc:title>
     </cc:Agent>
    </dc:creator>
   </cc:Work>
  </rdf:RDF>
 </metadata>
 <defs>
  <style type="text/css">*{stroke-linejoin: round; stroke-linecap: butt}</style>
 </defs>
 <g id="figure_1">
  <g id="patch_1">
   <path d="M 0 381.655312 
L 608.115937 381.655312 
L 608.115937 0 
L 0 0 
z
" style="fill: #ffffff"/>
  </g>
  <g id="axes_1">
   <g id="patch_2">
    <path d="M 42.915937 339.84 
L 600.915938 339.84 
L 600.915938 7.2 
L 42.915937 7.2 
z
" style="fill: #ffffff"/>
   </g>
   <g id="matplotlib.axis_1">
    <g id="xtick_1">
     <g id="line2d_1">
      <path d="M 67.456449 339.84 
L 67.456449 7.2 
" clip-path="url(#pdd705bd434)" style="fill: none; stroke: #808080; stroke-opacity: 0.7; stroke-width: 0.5; stroke-linecap: round"/>
     </g>
     <g id="text_1">
      <!-- 0.0 -->
      <g style="fill: #262626" transform="translate(59.956449 355.1725) scale(0.12 -0.12)">
       <defs>
        <path id="TimesNewRomanPSMT-30" d="M 231 2094 
Q 231 2819 450 3342 
Q 669 3866 1031 4122 
Q 1313 4325 1613 4325 
Q 2100 4325 2488 3828 
Q 2972 3213 2972 2159 
Q 2972 1422 2759 906 
Q 2547 391 2217 158 
Q 1888 -75 1581 -75 
Q 975 -75 572 641 
Q 231 1244 231 2094 
z
M 844 2016 
Q 844 1141 1059 588 
Q 1238 122 1591 122 
Q 1759 122 1940 273 
Q 2122 425 2216 781 
Q 2359 1319 2359 2297 
Q 2359 3022 2209 3506 
Q 2097 3866 1919 4016 
Q 1791 4119 1609 4119 
Q 1397 4119 1231 3928 
Q 1006 3669 925 3112 
Q 844 2556 844 2016 
z
" transform="scale(0.015625)"/>
        <path id="TimesNewRomanPSMT-2e" d="M 800 606 
Q 947 606 1047 504 
Q 1147 403 1147 259 
Q 1147 116 1045 14 
Q 944 -88 800 -88 
Q 656 -88 554 14 
Q 453 116 453 259 
Q 453 406 554 506 
Q 656 606 800 606 
z
" transform="scale(0.015625)"/>
       </defs>
       <use xlink:href="#TimesNewRomanPSMT-30"/>
       <use xlink:href="#TimesNewRomanPSMT-2e" x="50"/>
       <use xlink:href="#TimesNewRomanPSMT-30" x="75"/>
      </g>
     </g>
    </g>
    <g id="xtick_2">
     <g id="line2d_2">
      <path d="M 162.046729 339.84 
L 162.046729 7.2 
" clip-path="url(#pdd705bd434)" style="fill: none; stroke: #808080; stroke-opacity: 0.7; stroke-width: 0.5; stroke-linecap: round"/>
     </g>
     <g id="text_2">
      <!-- 0.5 -->
      <g style="fill: #262626" transform="translate(154.546729 355.1725) scale(0.12 -0.12)">
       <defs>
        <path id="TimesNewRomanPSMT-35" d="M 2778 4238 
L 2534 3706 
L 1259 3706 
L 981 3138 
Q 1809 3016 2294 2522 
Q 2709 2097 2709 1522 
Q 2709 1188 2573 903 
Q 2438 619 2231 419 
Q 2025 219 1772 97 
Q 1413 -75 1034 -75 
Q 653 -75 479 54 
Q 306 184 306 341 
Q 306 428 378 495 
Q 450 563 559 563 
Q 641 563 702 538 
Q 763 513 909 409 
Q 1144 247 1384 247 
Q 1750 247 2026 523 
Q 2303 800 2303 1197 
Q 2303 1581 2056 1914 
Q 1809 2247 1375 2428 
Q 1034 2569 447 2591 
L 1259 4238 
L 2778 4238 
z
" transform="scale(0.015625)"/>
       </defs>
       <use xlink:href="#TimesNewRomanPSMT-30"/>
       <use xlink:href="#TimesNewRomanPSMT-2e" x="50"/>
       <use xlink:href="#TimesNewRomanPSMT-35" x="75"/>
      </g>
     </g>
    </g>
    <g id="xtick_3">
     <g id="line2d_3">
      <path d="M 256.63701 339.84 
L 256.63701 7.2 
" clip-path="url(#pdd705bd434)" style="fill: none; stroke: #808080; stroke-opacity: 0.7; stroke-width: 0.5; stroke-linecap: round"/>
     </g>
     <g id="text_3">
      <!-- 1.0 -->
      <g style="fill: #262626" transform="translate(249.13701 355.1725) scale(0.12 -0.12)">
       <defs>
        <path id="TimesNewRomanPSMT-31" d="M 750 3822 
L 1781 4325 
L 1884 4325 
L 1884 747 
Q 1884 391 1914 303 
Q 1944 216 2037 169 
Q 2131 122 2419 116 
L 2419 0 
L 825 0 
L 825 116 
Q 1125 122 1212 167 
Q 1300 213 1334 289 
Q 1369 366 1369 747 
L 1369 3034 
Q 1369 3497 1338 3628 
Q 1316 3728 1258 3775 
Q 1200 3822 1119 3822 
Q 1003 3822 797 3725 
L 750 3822 
z
" transform="scale(0.015625)"/>
       </defs>
       <use xlink:href="#TimesNewRomanPSMT-31"/>
       <use xlink:href="#TimesNewRomanPSMT-2e" x="50"/>
       <use xlink:href="#TimesNewRomanPSMT-30" x="75"/>
      </g>
     </g>
    </g>
    <g id="xtick_4">
     <g id="line2d_4">
      <path d="M 351.22729 339.84 
L 351.22729 7.2 
" clip-path="url(#pdd705bd434)" style="fill: none; stroke: #808080; stroke-opacity: 0.7; stroke-width: 0.5; stroke-linecap: round"/>
     </g>
     <g id="text_4">
      <!-- 1.5 -->
      <g style="fill: #262626" transform="translate(343.72729 355.1725) scale(0.12 -0.12)">
       <use xlink:href="#TimesNewRomanPSMT-31"/>
       <use xlink:href="#TimesNewRomanPSMT-2e" x="50"/>
       <use xlink:href="#TimesNewRomanPSMT-35" x="75"/>
      </g>
     </g>
    </g>
    <g id="xtick_5">
     <g id="line2d_5">
      <path d="M 445.81757 339.84 
L 445.81757 7.2 
" clip-path="url(#pdd705bd434)" style="fill: none; stroke: #808080; stroke-opacity: 0.7; stroke-width: 0.5; stroke-linecap: round"/>
     </g>
     <g id="text_5">
      <!-- 2.0 -->
      <g style="fill: #262626" transform="translate(438.31757 355.1725) scale(0.12 -0.12)">
       <defs>
        <path id="TimesNewRomanPSMT-32" d="M 2934 816 
L 2638 0 
L 138 0 
L 138 116 
Q 1241 1122 1691 1759 
Q 2141 2397 2141 2925 
Q 2141 3328 1894 3587 
Q 1647 3847 1303 3847 
Q 991 3847 742 3664 
Q 494 3481 375 3128 
L 259 3128 
Q 338 3706 661 4015 
Q 984 4325 1469 4325 
Q 1984 4325 2329 3994 
Q 2675 3663 2675 3213 
Q 2675 2891 2525 2569 
Q 2294 2063 1775 1497 
Q 997 647 803 472 
L 1909 472 
Q 2247 472 2383 497 
Q 2519 522 2628 598 
Q 2738 675 2819 816 
L 2934 816 
z
" transform="scale(0.015625)"/>
       </defs>
       <use xlink:href="#TimesNewRomanPSMT-32"/>
       <use xlink:href="#TimesNewRomanPSMT-2e" x="50"/>
       <use xlink:href="#TimesNewRomanPSMT-30" x="75"/>
      </g>
     </g>
    </g>
    <g id="xtick_6">
     <g id="line2d_6">
      <path d="M 540.40785 339.84 
L 540.40785 7.2 
" clip-path="url(#pdd705bd434)" style="fill: none; stroke: #808080; stroke-opacity: 0.7; stroke-width: 0.5; stroke-linecap: round"/>
     </g>
     <g id="text_6">
      <!-- 2.5 -->
      <g style="fill: #262626" transform="translate(532.90785 355.1725) scale(0.12 -0.12)">
       <use xlink:href="#TimesNewRomanPSMT-32"/>
       <use xlink:href="#TimesNewRomanPSMT-2e" x="50"/>
       <use xlink:href="#TimesNewRomanPSMT-35" x="75"/>
      </g>
     </g>
    </g>
    <g id="text_7">
     <!-- Step (×10⁶) -->
     <g style="fill: #262626" transform="translate(290.013438 371.460625) scale(0.14 -0.14)">
      <defs>
       <path id="TimesNewRomanPSMT-53" d="M 2934 4334 
L 2934 2869 
L 2819 2869 
Q 2763 3291 2617 3541 
Q 2472 3791 2203 3937 
Q 1934 4084 1647 4084 
Q 1322 4084 1109 3886 
Q 897 3688 897 3434 
Q 897 3241 1031 3081 
Q 1225 2847 1953 2456 
Q 2547 2138 2764 1967 
Q 2981 1797 3098 1565 
Q 3216 1334 3216 1081 
Q 3216 600 2842 251 
Q 2469 -97 1881 -97 
Q 1697 -97 1534 -69 
Q 1438 -53 1133 45 
Q 828 144 747 144 
Q 669 144 623 97 
Q 578 50 556 -97 
L 441 -97 
L 441 1356 
L 556 1356 
Q 638 900 775 673 
Q 913 447 1195 297 
Q 1478 147 1816 147 
Q 2206 147 2432 353 
Q 2659 559 2659 841 
Q 2659 997 2573 1156 
Q 2488 1316 2306 1453 
Q 2184 1547 1640 1851 
Q 1097 2156 867 2337 
Q 638 2519 519 2737 
Q 400 2956 400 3219 
Q 400 3675 750 4004 
Q 1100 4334 1641 4334 
Q 1978 4334 2356 4169 
Q 2531 4091 2603 4091 
Q 2684 4091 2736 4139 
Q 2788 4188 2819 4334 
L 2934 4334 
z
" transform="scale(0.015625)"/>
       <path id="TimesNewRomanPSMT-74" d="M 1031 3803 
L 1031 2863 
L 1700 2863 
L 1700 2644 
L 1031 2644 
L 1031 788 
Q 1031 509 1111 412 
Q 1191 316 1316 316 
Q 1419 316 1516 380 
Q 1613 444 1666 569 
L 1788 569 
Q 1678 263 1478 108 
Q 1278 -47 1066 -47 
Q 922 -47 784 33 
Q 647 113 581 261 
Q 516 409 516 719 
L 516 2644 
L 63 2644 
L 63 2747 
Q 234 2816 414 2980 
Q 594 3144 734 3369 
Q 806 3488 934 3803 
L 1031 3803 
z
" transform="scale(0.015625)"/>
       <path id="TimesNewRomanPSMT-65" d="M 681 1784 
Q 678 1147 991 784 
Q 1303 422 1725 422 
Q 2006 422 2214 576 
Q 2422 731 2563 1106 
L 2659 1044 
Q 2594 616 2278 264 
Q 1963 -88 1488 -88 
Q 972 -88 605 314 
Q 238 716 238 1394 
Q 238 2128 614 2539 
Q 991 2950 1559 2950 
Q 2041 2950 2350 2633 
Q 2659 2316 2659 1784 
L 681 1784 
z
M 681 1966 
L 2006 1966 
Q 1991 2241 1941 2353 
Q 1863 2528 1708 2628 
Q 1553 2728 1384 2728 
Q 1125 2728 920 2526 
Q 716 2325 681 1966 
z
" transform="scale(0.015625)"/>
       <path id="TimesNewRomanPSMT-70" d="M -6 2578 
L 875 2934 
L 994 2934 
L 994 2266 
Q 1216 2644 1439 2795 
Q 1663 2947 1909 2947 
Q 2341 2947 2628 2609 
Q 2981 2197 2981 1534 
Q 2981 794 2556 309 
Q 2206 -88 1675 -88 
Q 1444 -88 1275 -22 
Q 1150 25 994 166 
L 994 -706 
Q 994 -1000 1030 -1079 
Q 1066 -1159 1155 -1206 
Q 1244 -1253 1478 -1253 
L 1478 -1369 
L -22 -1369 
L -22 -1253 
L 56 -1253 
Q 228 -1256 350 -1188 
Q 409 -1153 442 -1076 
Q 475 -1000 475 -688 
L 475 2019 
Q 475 2297 450 2372 
Q 425 2447 370 2484 
Q 316 2522 222 2522 
Q 147 2522 31 2478 
L -6 2578 
z
M 994 2081 
L 994 1013 
Q 994 666 1022 556 
Q 1066 375 1236 237 
Q 1406 100 1666 100 
Q 1978 100 2172 344 
Q 2425 663 2425 1241 
Q 2425 1897 2138 2250 
Q 1938 2494 1663 2494 
Q 1513 2494 1366 2419 
Q 1253 2363 994 2081 
z
" transform="scale(0.015625)"/>
       <path id="TimesNewRomanPSMT-20" transform="scale(0.015625)"/>
       <path id="TimesNewRomanPSMT-28" d="M 1988 -1253 
L 1988 -1369 
Q 1516 -1131 1200 -813 
Q 750 -359 506 256 
Q 263 872 263 1534 
Q 263 2503 741 3301 
Q 1219 4100 1988 4444 
L 1988 4313 
Q 1603 4100 1356 3731 
Q 1109 3363 987 2797 
Q 866 2231 866 1616 
Q 866 947 969 400 
Q 1050 -31 1165 -292 
Q 1281 -553 1476 -793 
Q 1672 -1034 1988 -1253 
z
" transform="scale(0.015625)"/>
       <path id="TimesNewRomanPSMT-d7" d="M 516 1025 
L 1619 2128 
L 519 3228 
L 700 3409 
L 1800 2309 
L 2900 3409 
L 3075 3231 
L 1975 2131 
L 3081 1025 
L 2903 844 
L 1797 1950 
L 694 847 
L 516 1025 
z
" transform="scale(0.015625)"/>
       <path id="TimesNewRomanPSMT-2076" d="M 1734 4222 
Q 1322 4209 1050 3976 
Q 778 3744 628 3359 
Q 719 3403 826 3442 
Q 934 3481 1094 3481 
Q 1231 3481 1357 3437 
Q 1484 3394 1579 3309 
Q 1675 3225 1733 3098 
Q 1791 2972 1791 2809 
Q 1791 2644 1733 2503 
Q 1675 2363 1565 2256 
Q 1456 2150 1300 2089 
Q 1144 2028 947 2028 
Q 763 2028 613 2104 
Q 463 2181 355 2309 
Q 247 2438 187 2605 
Q 128 2772 128 2950 
Q 128 3184 228 3428 
Q 328 3672 528 3872 
Q 728 4072 1029 4198 
Q 1331 4325 1734 4325 
L 1734 4222 
z
M 581 3181 
Q 572 3131 564 3065 
Q 556 3000 556 2919 
Q 556 2809 579 2678 
Q 603 2547 656 2433 
Q 709 2319 798 2241 
Q 888 2163 1016 2163 
Q 1078 2163 1145 2184 
Q 1213 2206 1267 2259 
Q 1322 2313 1358 2405 
Q 1394 2497 1394 2638 
Q 1394 2716 1375 2831 
Q 1356 2947 1307 3053 
Q 1259 3159 1173 3234 
Q 1088 3309 953 3309 
Q 838 3309 748 3267 
Q 659 3225 581 3181 
z
" transform="scale(0.015625)"/>
       <path id="TimesNewRomanPSMT-29" d="M 144 4313 
L 144 4444 
Q 619 4209 934 3891 
Q 1381 3434 1625 2820 
Q 1869 2206 1869 1541 
Q 1869 572 1392 -226 
Q 916 -1025 144 -1369 
L 144 -1253 
Q 528 -1038 776 -670 
Q 1025 -303 1145 264 
Q 1266 831 1266 1447 
Q 1266 2113 1163 2663 
Q 1084 3094 967 3353 
Q 850 3613 656 3853 
Q 463 4094 144 4313 
z
" transform="scale(0.015625)"/>
      </defs>
      <use xlink:href="#TimesNewRomanPSMT-53"/>
      <use xlink:href="#TimesNewRomanPSMT-74" x="55.615234"/>
      <use xlink:href="#TimesNewRomanPSMT-65" x="83.398438"/>
      <use xlink:href="#TimesNewRomanPSMT-70" x="127.783203"/>
      <use xlink:href="#TimesNewRomanPSMT-20" x="177.783203"/>
      <use xlink:href="#TimesNewRomanPSMT-28" x="202.783203"/>
      <use xlink:href="#TimesNewRomanPSMT-d7" x="236.083984"/>
      <use xlink:href="#TimesNewRomanPSMT-31" x="292.480469"/>
      <use xlink:href="#TimesNewRomanPSMT-30" x="342.480469"/>
      <use xlink:href="#TimesNewRomanPSMT-2076" x="392.480469"/>
      <use xlink:href="#TimesNewRomanPSMT-29" x="422.460938"/>
     </g>
    </g>
   </g>
   <g id="matplotlib.axis_2">
    <g id="ytick_1">
     <g id="line2d_7">
      <path d="M 42.915937 319.995 
L 600.915938 319.995 
" clip-path="url(#pdd705bd434)" style="fill: none; stroke: #808080; stroke-opacity: 0.7; stroke-width: 0.5; stroke-linecap: round"/>
     </g>
     <g id="text_8">
      <!-- 30 -->
      <g style="fill: #262626" transform="translate(23.915937 324.16125) scale(0.12 -0.12)">
       <defs>
        <path id="TimesNewRomanPSMT-33" d="M 325 3431 
Q 506 3859 782 4092 
Q 1059 4325 1472 4325 
Q 1981 4325 2253 3994 
Q 2459 3747 2459 3466 
Q 2459 3003 1878 2509 
Q 2269 2356 2469 2072 
Q 2669 1788 2669 1403 
Q 2669 853 2319 450 
Q 1863 -75 997 -75 
Q 569 -75 414 31 
Q 259 138 259 259 
Q 259 350 332 419 
Q 406 488 509 488 
Q 588 488 669 463 
Q 722 447 909 348 
Q 1097 250 1169 231 
Q 1284 197 1416 197 
Q 1734 197 1970 444 
Q 2206 691 2206 1028 
Q 2206 1275 2097 1509 
Q 2016 1684 1919 1775 
Q 1784 1900 1550 2001 
Q 1316 2103 1072 2103 
L 972 2103 
L 972 2197 
Q 1219 2228 1467 2375 
Q 1716 2522 1828 2728 
Q 1941 2934 1941 3181 
Q 1941 3503 1739 3701 
Q 1538 3900 1238 3900 
Q 753 3900 428 3381 
L 325 3431 
z
" transform="scale(0.015625)"/>
       </defs>
       <use xlink:href="#TimesNewRomanPSMT-33"/>
       <use xlink:href="#TimesNewRomanPSMT-30" x="50"/>
      </g>
     </g>
    </g>
    <g id="ytick_2">
     <g id="line2d_8">
      <path d="M 42.915937 272.745 
L 600.915938 272.745 
" clip-path="url(#pdd705bd434)" style="fill: none; stroke: #808080; stroke-opacity: 0.7; stroke-width: 0.5; stroke-linecap: round"/>
     </g>
     <g id="text_9">
      <!-- 40 -->
      <g style="fill: #262626" transform="translate(23.915937 276.91125) scale(0.12 -0.12)">
       <defs>
        <path id="TimesNewRomanPSMT-34" d="M 2978 1563 
L 2978 1119 
L 2409 1119 
L 2409 0 
L 1894 0 
L 1894 1119 
L 100 1119 
L 100 1519 
L 2066 4325 
L 2409 4325 
L 2409 1563 
L 2978 1563 
z
M 1894 1563 
L 1894 3666 
L 406 1563 
L 1894 1563 
z
" transform="scale(0.015625)"/>
       </defs>
       <use xlink:href="#TimesNewRomanPSMT-34"/>
       <use xlink:href="#TimesNewRomanPSMT-30" x="50"/>
      </g>
     </g>
    </g>
    <g id="ytick_3">
     <g id="line2d_9">
      <path d="M 42.915937 225.495 
L 600.915938 225.495 
" clip-path="url(#pdd705bd434)" style="fill: none; stroke: #808080; stroke-opacity: 0.7; stroke-width: 0.5; stroke-linecap: round"/>
     </g>
     <g id="text_10">
      <!-- 50 -->
      <g style="fill: #262626" transform="translate(23.915937 229.66125) scale(0.12 -0.12)">
       <use xlink:href="#TimesNewRomanPSMT-35"/>
       <use xlink:href="#TimesNewRomanPSMT-30" x="50"/>
      </g>
     </g>
    </g>
    <g id="ytick_4">
     <g id="line2d_10">
      <path d="M 42.915937 178.245 
L 600.915938 178.245 
" clip-path="url(#pdd705bd434)" style="fill: none; stroke: #808080; stroke-opacity: 0.7; stroke-width: 0.5; stroke-linecap: round"/>
     </g>
     <g id="text_11">
      <!-- 60 -->
      <g style="fill: #262626" transform="translate(23.915937 182.41125) scale(0.12 -0.12)">
       <defs>
        <path id="TimesNewRomanPSMT-36" d="M 2869 4325 
L 2869 4209 
Q 2456 4169 2195 4045 
Q 1934 3922 1679 3669 
Q 1425 3416 1258 3105 
Q 1091 2794 978 2366 
Q 1428 2675 1881 2675 
Q 2316 2675 2634 2325 
Q 2953 1975 2953 1425 
Q 2953 894 2631 456 
Q 2244 -75 1606 -75 
Q 1172 -75 869 213 
Q 275 772 275 1663 
Q 275 2231 503 2743 
Q 731 3256 1154 3653 
Q 1578 4050 1965 4187 
Q 2353 4325 2688 4325 
L 2869 4325 
z
M 925 2138 
Q 869 1716 869 1456 
Q 869 1156 980 804 
Q 1091 453 1309 247 
Q 1469 100 1697 100 
Q 1969 100 2183 356 
Q 2397 613 2397 1088 
Q 2397 1622 2184 2012 
Q 1972 2403 1581 2403 
Q 1463 2403 1327 2353 
Q 1191 2303 925 2138 
z
" transform="scale(0.015625)"/>
       </defs>
       <use xlink:href="#TimesNewRomanPSMT-36"/>
       <use xlink:href="#TimesNewRomanPSMT-30" x="50"/>
      </g>
     </g>
    </g>
    <g id="ytick_5">
     <g id="line2d_11">
      <path d="M 42.915937 130.995 
L 600.915938 130.995 
" clip-path="url(#pdd705bd434)" style="fill: none; stroke: #808080; stroke-opacity: 0.7; stroke-width: 0.5; stroke-linecap: round"/>
     </g>
     <g id="text_12">
      <!-- 70 -->
      <g style="fill: #262626" transform="translate(23.915937 135.16125) scale(0.12 -0.12)">
       <defs>
        <path id="TimesNewRomanPSMT-37" d="M 644 4238 
L 2916 4238 
L 2916 4119 
L 1503 -88 
L 1153 -88 
L 2419 3728 
L 1253 3728 
Q 900 3728 750 3644 
Q 488 3500 328 3200 
L 238 3234 
L 644 4238 
z
" transform="scale(0.015625)"/>
       </defs>
       <use xlink:href="#TimesNewRomanPSMT-37"/>
       <use xlink:href="#TimesNewRomanPSMT-30" x="50"/>
      </g>
     </g>
    </g>
    <g id="ytick_6">
     <g id="line2d_12">
      <path d="M 42.915937 83.745 
L 600.915938 83.745 
" clip-path="url(#pdd705bd434)" style="fill: none; stroke: #808080; stroke-opacity: 0.7; stroke-width: 0.5; stroke-linecap: round"/>
     </g>
     <g id="text_13">
      <!-- 80 -->
      <g style="fill: #262626" transform="translate(23.915937 87.91125) scale(0.12 -0.12)">
       <defs>
        <path id="TimesNewRomanPSMT-38" d="M 1228 2134 
Q 725 2547 579 2797 
Q 434 3047 434 3316 
Q 434 3728 753 4026 
Q 1072 4325 1600 4325 
Q 2113 4325 2425 4047 
Q 2738 3769 2738 3413 
Q 2738 3175 2569 2928 
Q 2400 2681 1866 2347 
Q 2416 1922 2594 1678 
Q 2831 1359 2831 1006 
Q 2831 559 2490 242 
Q 2150 -75 1597 -75 
Q 994 -75 656 303 
Q 388 606 388 966 
Q 388 1247 577 1523 
Q 766 1800 1228 2134 
z
M 1719 2469 
Q 2094 2806 2194 3001 
Q 2294 3197 2294 3444 
Q 2294 3772 2109 3958 
Q 1925 4144 1606 4144 
Q 1288 4144 1088 3959 
Q 888 3775 888 3528 
Q 888 3366 970 3203 
Q 1053 3041 1206 2894 
L 1719 2469 
z
M 1375 2016 
Q 1116 1797 991 1539 
Q 866 1281 866 981 
Q 866 578 1086 336 
Q 1306 94 1647 94 
Q 1984 94 2187 284 
Q 2391 475 2391 747 
Q 2391 972 2272 1150 
Q 2050 1481 1375 2016 
z
" transform="scale(0.015625)"/>
       </defs>
       <use xlink:href="#TimesNewRomanPSMT-38"/>
       <use xlink:href="#TimesNewRomanPSMT-30" x="50"/>
      </g>
     </g>
    </g>
    <g id="ytick_7">
     <g id="line2d_13">
      <path d="M 42.915937 36.495 
L 600.915938 36.495 
" clip-path="url(#pdd705bd434)" style="fill: none; stroke: #808080; stroke-opacity: 0.7; stroke-width: 0.5; stroke-linecap: round"/>
     </g>
     <g id="text_14">
      <!-- 90 -->
      <g style="fill: #262626" transform="translate(23.915937 40.66125) scale(0.12 -0.12)">
       <defs>
        <path id="TimesNewRomanPSMT-39" d="M 338 -88 
L 338 28 
Q 744 34 1094 217 
Q 1444 400 1770 856 
Q 2097 1313 2225 1859 
Q 1734 1544 1338 1544 
Q 891 1544 572 1889 
Q 253 2234 253 2806 
Q 253 3363 572 3797 
Q 956 4325 1575 4325 
Q 2097 4325 2469 3894 
Q 2925 3359 2925 2575 
Q 2925 1869 2578 1258 
Q 2231 647 1613 244 
Q 1109 -88 516 -88 
L 338 -88 
z
M 2275 2091 
Q 2331 2497 2331 2741 
Q 2331 3044 2228 3395 
Q 2125 3747 1936 3934 
Q 1747 4122 1506 4122 
Q 1228 4122 1018 3872 
Q 809 3622 809 3128 
Q 809 2469 1088 2097 
Q 1291 1828 1588 1828 
Q 1731 1828 1928 1897 
Q 2125 1966 2275 2091 
z
" transform="scale(0.015625)"/>
       </defs>
       <use xlink:href="#TimesNewRomanPSMT-39"/>
       <use xlink:href="#TimesNewRomanPSMT-30" x="50"/>
      </g>
     </g>
    </g>
    <g id="text_15">
     <!-- Survival Rate -->
     <g style="fill: #262626" transform="translate(16.92125 211.81875) rotate(-90) scale(0.14 -0.14)">
      <defs>
       <path id="TimesNewRomanPSMT-75" d="M 2709 2863 
L 2709 1128 
Q 2709 631 2732 520 
Q 2756 409 2807 365 
Q 2859 322 2928 322 
Q 3025 322 3147 375 
L 3191 266 
L 2334 -88 
L 2194 -88 
L 2194 519 
Q 1825 119 1631 15 
Q 1438 -88 1222 -88 
Q 981 -88 804 51 
Q 628 191 559 409 
Q 491 628 491 1028 
L 491 2306 
Q 491 2509 447 2587 
Q 403 2666 317 2708 
Q 231 2750 6 2747 
L 6 2863 
L 1009 2863 
L 1009 947 
Q 1009 547 1148 422 
Q 1288 297 1484 297 
Q 1619 297 1789 381 
Q 1959 466 2194 703 
L 2194 2325 
Q 2194 2569 2105 2655 
Q 2016 2741 1734 2747 
L 1734 2863 
L 2709 2863 
z
" transform="scale(0.015625)"/>
       <path id="TimesNewRomanPSMT-72" d="M 1038 2947 
L 1038 2303 
Q 1397 2947 1775 2947 
Q 1947 2947 2059 2842 
Q 2172 2738 2172 2600 
Q 2172 2478 2090 2393 
Q 2009 2309 1897 2309 
Q 1788 2309 1652 2417 
Q 1516 2525 1450 2525 
Q 1394 2525 1328 2463 
Q 1188 2334 1038 2041 
L 1038 669 
Q 1038 431 1097 309 
Q 1138 225 1241 169 
Q 1344 113 1538 113 
L 1538 0 
L 72 0 
L 72 113 
Q 291 113 397 181 
Q 475 231 506 341 
Q 522 394 522 644 
L 522 1753 
Q 522 2253 501 2348 
Q 481 2444 426 2487 
Q 372 2531 291 2531 
Q 194 2531 72 2484 
L 41 2597 
L 906 2947 
L 1038 2947 
z
" transform="scale(0.015625)"/>
       <path id="TimesNewRomanPSMT-76" d="M 53 2863 
L 1400 2863 
L 1400 2747 
L 1313 2747 
Q 1191 2747 1127 2687 
Q 1063 2628 1063 2528 
Q 1063 2419 1128 2269 
L 1794 688 
L 2463 2328 
Q 2534 2503 2534 2594 
Q 2534 2638 2509 2666 
Q 2475 2713 2422 2730 
Q 2369 2747 2206 2747 
L 2206 2863 
L 3141 2863 
L 3141 2747 
Q 2978 2734 2916 2681 
Q 2806 2588 2719 2369 
L 1703 -88 
L 1575 -88 
L 553 2328 
Q 484 2497 421 2570 
Q 359 2644 263 2694 
Q 209 2722 53 2747 
L 53 2863 
z
" transform="scale(0.015625)"/>
       <path id="TimesNewRomanPSMT-69" d="M 928 4444 
Q 1059 4444 1151 4351 
Q 1244 4259 1244 4128 
Q 1244 3997 1151 3903 
Q 1059 3809 928 3809 
Q 797 3809 703 3903 
Q 609 3997 609 4128 
Q 609 4259 701 4351 
Q 794 4444 928 4444 
z
M 1188 2947 
L 1188 647 
Q 1188 378 1227 289 
Q 1266 200 1342 156 
Q 1419 113 1622 113 
L 1622 0 
L 231 0 
L 231 113 
Q 441 113 512 153 
Q 584 194 626 287 
Q 669 381 669 647 
L 669 1750 
Q 669 2216 641 2353 
Q 619 2453 572 2492 
Q 525 2531 444 2531 
Q 356 2531 231 2484 
L 188 2597 
L 1050 2947 
L 1188 2947 
z
" transform="scale(0.015625)"/>
       <path id="TimesNewRomanPSMT-61" d="M 1822 413 
Q 1381 72 1269 19 
Q 1100 -59 909 -59 
Q 613 -59 420 144 
Q 228 347 228 678 
Q 228 888 322 1041 
Q 450 1253 767 1440 
Q 1084 1628 1822 1897 
L 1822 2009 
Q 1822 2438 1686 2597 
Q 1550 2756 1291 2756 
Q 1094 2756 978 2650 
Q 859 2544 859 2406 
L 866 2225 
Q 866 2081 792 2003 
Q 719 1925 600 1925 
Q 484 1925 411 2006 
Q 338 2088 338 2228 
Q 338 2497 613 2722 
Q 888 2947 1384 2947 
Q 1766 2947 2009 2819 
Q 2194 2722 2281 2516 
Q 2338 2381 2338 1966 
L 2338 994 
Q 2338 584 2353 492 
Q 2369 400 2405 369 
Q 2441 338 2488 338 
Q 2538 338 2575 359 
Q 2641 400 2828 588 
L 2828 413 
Q 2478 -56 2159 -56 
Q 2006 -56 1915 50 
Q 1825 156 1822 413 
z
M 1822 616 
L 1822 1706 
Q 1350 1519 1213 1441 
Q 966 1303 859 1153 
Q 753 1003 753 825 
Q 753 600 887 451 
Q 1022 303 1197 303 
Q 1434 303 1822 616 
z
" transform="scale(0.015625)"/>
       <path id="TimesNewRomanPSMT-6c" d="M 1184 4444 
L 1184 647 
Q 1184 378 1223 290 
Q 1263 203 1344 158 
Q 1425 113 1647 113 
L 1647 0 
L 244 0 
L 244 113 
Q 441 113 512 153 
Q 584 194 625 287 
Q 666 381 666 647 
L 666 3247 
Q 666 3731 644 3842 
Q 622 3953 573 3993 
Q 525 4034 450 4034 
Q 369 4034 244 3984 
L 191 4094 
L 1044 4444 
L 1184 4444 
z
" transform="scale(0.015625)"/>
       <path id="TimesNewRomanPSMT-52" d="M 4325 0 
L 3194 0 
L 1759 1981 
Q 1600 1975 1500 1975 
Q 1459 1975 1412 1976 
Q 1366 1978 1316 1981 
L 1316 750 
Q 1316 350 1403 253 
Q 1522 116 1759 116 
L 1925 116 
L 1925 0 
L 109 0 
L 109 116 
L 269 116 
Q 538 116 653 291 
Q 719 388 719 750 
L 719 3488 
Q 719 3888 631 3984 
Q 509 4122 269 4122 
L 109 4122 
L 109 4238 
L 1653 4238 
Q 2328 4238 2648 4139 
Q 2969 4041 3192 3777 
Q 3416 3513 3416 3147 
Q 3416 2756 3161 2468 
Q 2906 2181 2372 2063 
L 3247 847 
Q 3547 428 3762 290 
Q 3978 153 4325 116 
L 4325 0 
z
M 1316 2178 
Q 1375 2178 1419 2176 
Q 1463 2175 1491 2175 
Q 2097 2175 2405 2437 
Q 2713 2700 2713 3106 
Q 2713 3503 2464 3751 
Q 2216 4000 1806 4000 
Q 1625 4000 1316 3941 
L 1316 2178 
z
" transform="scale(0.015625)"/>
      </defs>
      <use xlink:href="#TimesNewRomanPSMT-53"/>
      <use xlink:href="#TimesNewRomanPSMT-75" x="55.615234"/>
      <use xlink:href="#TimesNewRomanPSMT-72" x="105.615234"/>
      <use xlink:href="#TimesNewRomanPSMT-76" x="138.916016"/>
      <use xlink:href="#TimesNewRomanPSMT-69" x="188.916016"/>
      <use xlink:href="#TimesNewRomanPSMT-76" x="216.699219"/>
      <use xlink:href="#TimesNewRomanPSMT-61" x="266.699219"/>
      <use xlink:href="#TimesNewRomanPSMT-6c" x="311.083984"/>
      <use xlink:href="#TimesNewRomanPSMT-20" x="338.867188"/>
      <use xlink:href="#TimesNewRomanPSMT-52" x="363.867188"/>
      <use xlink:href="#TimesNewRomanPSMT-61" x="430.566406"/>
      <use xlink:href="#TimesNewRomanPSMT-74" x="474.951172"/>
      <use xlink:href="#TimesNewRomanPSMT-65" x="502.734375"/>
     </g>
    </g>
   </g>
   <g id="PolyCollection_1"/>
   <g id="PolyCollection_2"/>
   <g id="line2d_14">
    <path d="M 68.279574 324.72 
L 70.633737 168.795 
L 71.426971 159.345 
L 72.221151 154.62 
L 72.987143 126.27 
L 73.812727 112.095 
L 74.617501 192.42 
L 75.382169 112.095 
L 76.177862 116.82 
L 76.980934 112.095 
L 77.825625 126.27 
L 79.417012 135.72 
L 80.207597 135.72 
L 80.988156 83.745 
L 81.749419 149.895 
L 82.490818 116.82 
L 83.261918 130.995 
L 84.038504 112.095 
L 84.827008 97.92 
L 85.608513 135.72 
L 87.154308 154.62 
L 87.902895 154.62 
L 88.729047 102.645 
L 89.483877 140.445 
L 90.279192 130.995 
L 91.001862 126.27 
L 91.84958 135.72 
L 92.73608 135.72 
L 93.508883 149.895 
L 94.271469 121.545 
L 95.073784 173.52 
L 95.885747 121.545 
L 96.653253 126.27 
L 97.437974 145.17 
L 98.197155 159.345 
L 98.990768 182.97 
L 99.788731 164.07 
L 100.686582 135.72 
L 101.459574 173.52 
L 102.272294 173.52 
L 103.065528 168.795 
L 103.83606 197.145 
L 104.679616 154.62 
L 105.488742 206.595 
L 106.274598 192.42 
L 107.102263 192.42 
L 107.930684 168.795 
L 108.770078 168.795 
L 109.551772 173.52 
L 110.356547 135.72 
L 111.125376 116.82 
L 111.911611 126.27 
L 112.678549 102.645 
L 113.406705 112.095 
L 114.2251 116.82 
L 114.899907 121.545 
L 115.695411 107.37 
L 116.504536 74.295 
L 117.31177 149.895 
L 118.122219 130.995 
L 118.882914 154.62 
L 119.642285 164.07 
L 120.397305 107.37 
L 121.132839 69.57 
L 121.925316 88.47 
L 122.682038 93.195 
L 123.509136 79.02 
L 124.342476 79.02 
L 125.17733 112.095 
L 125.948619 69.57 
L 126.68945 102.645 
L 127.448632 121.545 
L 128.242812 88.47 
L 128.997264 116.82 
L 129.749446 93.195 
L 130.527167 126.27 
L 131.263458 102.645 
L 132.119689 173.52 
L 132.930328 140.445 
L 133.739642 97.92 
L 134.568821 102.645 
L 136.166829 102.645 
L 136.960441 135.72 
L 137.713191 116.82 
L 138.50056 126.27 
L 139.268066 116.82 
L 140.003411 145.17 
L 140.792672 168.795 
L 141.629228 154.62 
L 142.408274 173.52 
L 143.137187 145.17 
L 143.900908 102.645 
L 144.639469 83.745 
L 145.38276 121.545 
L 146.149319 121.545 
L 146.877475 97.92 
L 147.65444 121.545 
L 148.414757 64.845 
L 149.273447 107.37 
L 150.005954 64.845 
L 151.606989 93.195 
L 152.323984 88.47 
L 153.119488 97.92 
L 153.858995 93.195 
L 154.657337 145.17 
L 155.415194 97.92 
L 156.257804 107.37 
L 157.068065 79.02 
L 157.816274 83.745 
L 158.565807 69.57 
L 160.083414 107.37 
L 160.869837 55.395 
L 161.655126 121.545 
L 162.48298 83.745 
L 163.330509 97.92 
L 164.108987 64.845 
L 164.848872 60.12 
L 165.609378 102.645 
L 166.383315 88.47 
L 167.113174 64.845 
L 167.911138 79.02 
L 168.650266 74.295 
L 169.415123 168.795 
L 170.25622 126.27 
L 171.012375 140.445 
L 171.843445 102.645 
L 172.628544 116.82 
L 173.509558 116.82 
L 174.330223 79.02 
L 175.066136 112.095 
L 175.885098 112.095 
L 176.769517 60.12 
L 177.571643 64.845 
L 178.367526 97.92 
L 179.136734 93.195 
L 179.901591 97.92 
L 180.733039 116.82 
L 181.529489 121.545 
L 182.340885 130.995 
L 183.101012 83.745 
L 183.81725 112.095 
L 184.602917 107.37 
L 185.408826 135.72 
L 186.143982 79.02 
L 186.864381 102.645 
L 187.659507 187.695 
L 188.326369 145.17 
L 189.914918 116.82 
L 190.757906 64.845 
L 191.56268 88.47 
L 192.362725 97.92 
L 193.106394 74.295 
L 193.826226 79.02 
L 194.625514 135.72 
L 195.467556 140.445 
L 196.234116 69.57 
L 197.027161 93.195 
L 197.850475 121.545 
L 199.386243 83.745 
L 200.127641 69.57 
L 200.934307 102.645 
L 201.798862 102.645 
L 203.268228 41.22 
L 204.012086 74.295 
L 204.790374 79.02 
L 205.577744 88.47 
L 206.374951 79.02 
L 207.118998 126.27 
L 207.922448 79.02 
L 208.716439 102.645 
L 209.505322 83.745 
L 210.318609 126.27 
L 211.051305 140.445 
L 211.803487 79.02 
L 212.646476 93.195 
L 213.429683 116.82 
L 214.305967 178.245 
L 215.047744 145.17 
L 215.81752 130.995 
L 216.584458 121.545 
L 217.350639 60.12 
L 218.13309 60.12 
L 218.986484 79.02 
L 219.785772 64.845 
L 220.542872 116.82 
L 221.298838 93.195 
L 222.085829 93.195 
L 222.807931 50.67 
L 223.658865 112.095 
L 224.39648 79.02 
L 225.113285 93.195 
L 225.940004 112.095 
L 226.726995 116.82 
L 227.479367 88.47 
L 229.057132 79.02 
L 229.770154 116.82 
L 230.616926 88.47 
L 231.426051 31.77 
L 232.124695 83.745 
L 232.911686 97.92 
L 233.672003 69.57 
L 234.447643 74.295 
L 235.214392 83.745 
L 235.922873 41.22 
L 236.619247 79.02 
L 237.360835 79.02 
L 238.116044 50.67 
L 238.849118 55.395 
L 239.566491 83.745 
L 240.321132 79.02 
L 241.022235 64.845 
L 241.819821 97.92 
L 242.536247 74.295 
L 244.16566 102.645 
L 244.872438 64.845 
L 245.672104 79.02 
L 246.343128 97.92 
L 247.158496 64.845 
L 247.895165 60.12 
L 248.639023 74.295 
L 249.501119 88.47 
L 250.276759 69.57 
L 251.023644 45.945 
L 252.657029 102.645 
L 253.448182 74.295 
L 254.253902 88.47 
L 255.049406 112.095 
L 255.83583 60.12 
L 256.578931 79.02 
L 257.304628 107.37 
L 258.062863 93.195 
L 259.619819 93.195 
L 260.413432 83.745 
L 261.242421 112.095 
L 261.977577 64.845 
L 262.63952 60.12 
L 263.422538 88.47 
L 264.199124 69.57 
L 264.990656 83.745 
L 265.777458 112.095 
L 266.5688 88.47 
L 267.29601 74.295 
L 268.079028 83.745 
L 268.82421 116.82 
L 269.608931 74.295 
L 270.430732 88.47 
L 271.227371 88.47 
L 272.04255 102.645 
L 272.819326 93.195 
L 273.636207 74.295 
L 274.329176 97.92 
L 275.073223 50.67 
L 275.894834 97.92 
L 276.670663 55.395 
L 277.504571 97.92 
L 278.199053 88.47 
L 278.942344 93.195 
L 279.758847 102.645 
L 280.56154 88.47 
L 281.330181 112.095 
L 282.088227 69.57 
L 282.886191 83.745 
L 283.729179 83.745 
L 284.473416 97.92 
L 285.227868 97.92 
L 285.944673 83.745 
L 286.701017 93.195 
L 287.459631 88.47 
L 288.259297 121.545 
L 289.004101 93.195 
L 289.808118 107.37 
L 290.559354 83.745 
L 291.298104 140.445 
L 292.122932 140.445 
L 293.625025 60.12 
L 294.405206 149.895 
L 295.131848 50.67 
L 295.966702 97.92 
L 296.703182 97.92 
L 297.507389 116.82 
L 298.312919 88.47 
L 299.206987 93.195 
L 300.897126 121.545 
L 301.703413 121.545 
L 302.44538 93.195 
L 304.05663 102.645 
L 304.889782 93.195 
L 305.623235 74.295 
L 306.386578 88.47 
L 307.110194 79.02 
L 307.908158 83.745 
L 308.640097 135.72 
L 309.377145 112.095 
L 310.876022 83.745 
L 311.620448 112.095 
L 312.387007 74.295 
L 313.186295 60.12 
L 313.901208 112.095 
L 314.623121 79.02 
L 315.425625 79.02 
L 316.170429 107.37 
L 316.921287 121.545 
L 317.697684 69.57 
L 318.469162 88.47 
L 319.21548 88.47 
L 320.030848 60.12 
L 320.776598 93.195 
L 321.541455 64.845 
L 322.321824 107.37 
L 323.025009 64.845 
L 323.772083 60.12 
L 324.605612 126.27 
L 325.34947 55.395 
L 326.102787 79.02 
L 326.80616 69.57 
L 327.551153 107.37 
L 328.305038 83.745 
L 329.057977 79.02 
L 329.903046 45.945 
L 330.654093 64.845 
L 331.380546 55.395 
L 332.119107 50.67 
L 332.848398 79.02 
L 333.608337 64.845 
L 334.337249 79.02 
L 335.1127 121.545 
L 335.879828 93.195 
L 336.609119 74.295 
L 337.412379 64.845 
L 338.161156 97.92 
L 338.867556 116.82 
L 339.660601 79.02 
L 340.412594 93.195 
L 341.171586 64.845 
L 341.943065 79.02 
L 342.723056 88.47 
L 343.444023 107.37 
L 344.190151 55.395 
L 344.942522 74.295 
L 345.710406 88.47 
L 346.516505 55.395 
L 347.210041 74.295 
L 347.993816 45.945 
L 348.742971 69.57 
L 349.501395 60.12 
L 350.965464 69.57 
L 351.701755 41.22 
L 352.443342 93.195 
L 353.180011 69.57 
L 353.904384 74.295 
L 354.645404 88.47 
L 355.40118 45.945 
L 356.186469 83.745 
L 356.92276 50.67 
L 357.677779 69.57 
L 358.418232 50.67 
L 359.178927 93.195 
L 359.846924 69.57 
L 360.553324 93.195 
L 361.325181 79.02 
L 362.044445 60.12 
L 362.766169 36.495 
L 363.498298 55.395 
L 364.301747 83.745 
L 365.065469 74.295 
L 365.822192 74.295 
L 366.551861 36.495 
L 367.267909 55.395 
L 368.045252 64.845 
L 368.83546 121.545 
L 369.588587 64.845 
L 370.307852 50.67 
L 371.069493 107.37 
L 371.80654 88.47 
L 372.578208 74.295 
L 373.339281 79.02 
L 374.068572 60.12 
L 374.811106 79.02 
L 375.587881 79.02 
L 376.390385 93.195 
L 377.137459 88.47 
L 377.878858 79.02 
L 378.680983 74.295 
L 379.426733 55.395 
L 380.147322 79.02 
L 380.921638 60.12 
L 381.659821 64.845 
L 382.445866 88.47 
L 383.20675 83.745 
L 383.995255 74.295 
L 384.786975 112.095 
L 385.543319 69.57 
L 386.298717 88.47 
L 387.104059 88.47 
L 387.879321 135.72 
L 389.476951 79.02 
L 390.244267 64.845 
L 391.000611 83.745 
L 391.871976 50.67 
L 392.684507 93.195 
L 393.455796 97.92 
L 394.194925 60.12 
L 394.995158 83.745 
L 395.772123 45.945 
L 396.535656 69.57 
L 397.264757 69.57 
L 397.997832 121.545 
L 398.755879 112.095 
L 399.486116 121.545 
L 401.158093 102.645 
L 401.902708 83.745 
L 402.668889 79.02 
L 403.398937 45.945 
L 404.187442 64.845 
L 404.923354 97.92 
L 405.671942 79.02 
L 406.349019 64.845 
L 407.875706 83.745 
L 408.623915 107.37 
L 409.408636 97.92 
L 410.257868 126.27 
L 411.04675 50.67 
L 411.792689 97.92 
L 412.514035 50.67 
L 413.256758 102.645 
L 413.990589 60.12 
L 414.747501 64.845 
L 415.565896 50.67 
L 416.272296 60.12 
L 417.018235 112.095 
L 417.747715 64.845 
L 418.556462 135.72 
L 419.336643 79.02 
L 420.112472 102.645 
L 420.8726 102.645 
L 421.66205 93.195 
L 422.45396 69.57 
L 423.240762 107.37 
L 424.127262 97.92 
L 424.893632 79.02 
L 425.706541 83.745 
L 426.450967 116.82 
L 427.257254 102.645 
L 428.023814 74.295 
L 428.756321 74.295 
L 429.478045 88.47 
L 430.255009 107.37 
L 430.95895 45.945 
L 431.713402 102.645 
L 432.393507 79.02 
L 433.201118 88.47 
L 433.972975 121.545 
L 434.764885 135.72 
L 435.476393 69.57 
L 436.995513 69.57 
L 437.723101 55.395 
L 438.485688 97.92 
L 439.239573 79.02 
L 440.774395 60.12 
L 441.575953 79.02 
L 442.264381 41.22 
L 442.999158 93.195 
L 443.791824 97.92 
L 444.538142 69.57 
L 445.360699 112.095 
L 446.141258 107.37 
L 446.94868 107.37 
L 447.775021 88.47 
L 448.575633 107.37 
L 449.353165 88.47 
L 450.820261 79.02 
L 451.637142 93.195 
L 452.413729 97.92 
L 453.248582 64.845 
L 454.037844 116.82 
L 454.839591 69.57 
L 455.577773 112.095 
L 456.401466 79.02 
L 457.260724 102.645 
L 458.035229 69.57 
L 458.808599 88.47 
L 459.538458 74.295 
L 460.305963 88.47 
L 461.854595 97.92 
L 462.677341 60.12 
L 463.45809 83.745 
L 464.288214 93.195 
L 465.062152 107.37 
L 465.864656 74.295 
L 466.640485 116.82 
L 467.425774 107.37 
L 468.201792 83.745 
L 468.992756 74.295 
L 469.793936 74.295 
L 470.588872 97.92 
L 471.351081 64.845 
L 472.130505 107.37 
L 472.869823 93.195 
L 473.608194 83.745 
L 474.363403 88.47 
L 475.067344 41.22 
L 475.840714 83.745 
L 476.556952 55.395 
L 477.281135 41.22 
L 478.039181 69.57 
L 478.805173 74.295 
L 479.553004 60.12 
L 480.276241 107.37 
L 481.014992 69.57 
L 481.71723 93.195 
L 482.475655 74.295 
L 483.252241 69.57 
L 484.00972 69.57 
L 484.791414 102.645 
L 486.236375 55.395 
L 486.9808 55.395 
L 487.740928 116.82 
L 488.541351 79.02 
L 489.360503 31.77 
L 490.163574 97.92 
L 490.927296 69.57 
L 491.698964 69.57 
L 492.41085 55.395 
L 493.16587 126.27 
L 493.943023 74.295 
L 494.666828 102.645 
L 495.412578 88.47 
L 496.908807 50.67 
L 497.661746 50.67 
L 498.439089 45.945 
L 499.179541 112.095 
L 499.945533 74.295 
L 500.720417 55.395 
L 501.480545 97.92 
L 502.236699 97.92 
L 503.006286 154.62 
L 503.801033 74.295 
L 504.557566 93.195 
L 505.345693 135.72 
L 506.096172 36.495 
L 506.884866 79.02 
L 507.600725 93.195 
L 508.3268 88.47 
L 509.108494 97.92 
L 509.910619 64.845 
L 510.710853 102.645 
L 511.490088 93.195 
L 512.290511 79.02 
L 513.129338 83.745 
L 513.917653 74.295 
L 514.659241 79.02 
L 515.441313 102.645 
L 516.191225 83.745 
L 516.971027 50.67 
L 517.776558 107.37 
L 518.491471 88.47 
L 519.260869 64.845 
L 520.050319 55.395 
L 520.778097 22.32 
L 521.553359 93.195 
L 522.318972 93.195 
L 523.146259 112.095 
L 523.969762 126.27 
L 525.415669 107.37 
L 526.172391 64.845 
L 526.890521 79.02 
L 527.610353 60.12 
L 528.395452 69.57 
L 529.146688 74.295 
L 529.918923 69.57 
L 530.647836 74.295 
L 531.358966 88.47 
L 532.128552 50.67 
L 532.913084 79.02 
L 533.645969 79.02 
L 534.376963 45.945 
L 535.140874 121.545 
L 535.856733 60.12 
L 536.57316 83.745 
L 537.349936 88.47 
L 538.082064 135.72 
L 538.822328 69.57 
L 539.576023 93.195 
L 540.278072 97.92 
L 541.030254 116.82 
L 541.84165 79.02 
L 542.627127 145.17 
L 543.403903 83.745 
L 544.142653 55.395 
L 544.92813 64.845 
L 545.653827 69.57 
L 546.450466 83.745 
L 547.186 55.395 
L 547.961262 60.12 
L 548.775117 88.47 
L 549.49249 93.195 
L 550.273995 126.27 
L 551.08993 64.845 
L 551.860652 93.195 
L 552.595051 97.92 
L 553.325099 55.395 
L 554.106414 55.395 
L 554.882433 60.12 
L 557.137087 60.12 
L 557.890593 83.745 
L 558.632181 79.02 
L 559.377931 83.745 
L 560.153193 55.395 
L 560.908402 64.845 
L 561.684988 60.12 
L 562.38401 45.945 
L 563.16192 41.22 
L 563.888941 74.295 
L 564.725498 102.645 
L 565.550703 79.02 
L 566.344316 83.745 
L 567.093471 93.195 
L 567.800438 74.295 
L 568.61278 116.82 
L 569.439877 74.295 
L 570.185627 93.195 
L 570.951619 45.945 
L 571.746556 74.295 
L 572.481522 74.295 
L 573.246758 93.195 
L 574.019939 74.295 
L 574.755283 83.745 
L 575.552301 74.295 
L 575.552301 74.295 
" clip-path="url(#pdd705bd434)" style="fill: none; stroke: #1f77b4; stroke-opacity: 0.1; stroke-width: 1.5; stroke-linecap: round"/>
   </g>
   <g id="line2d_15">
    <path d="M 68.279574 324.72 
L 69.043485 319.995 
L 69.821017 311.404091 
L 73.812727 246.964581 
L 74.617501 242.005982 
L 75.382169 230.195893 
L 76.980934 210.08954 
L 78.57705 195.971892 
L 80.207597 185.514952 
L 80.988156 176.263139 
L 81.749419 173.866035 
L 82.490818 168.680032 
L 83.261918 165.25412 
L 84.038504 160.421473 
L 84.827008 154.739521 
L 85.608513 153.010473 
L 86.352182 152.297703 
L 87.902895 152.700746 
L 88.729047 148.150224 
L 89.483877 147.449749 
L 90.279192 145.953863 
L 91.001862 144.164421 
L 92.73608 142.69886 
L 93.508883 143.353055 
L 94.271469 141.370504 
L 95.073784 144.293186 
L 95.885747 142.225169 
L 96.653253 140.774699 
L 97.437974 141.174272 
L 98.197155 142.826156 
L 98.990768 146.475596 
L 99.788731 148.075088 
L 100.686582 146.951898 
L 102.272294 151.562891 
L 103.065528 153.129446 
L 103.83606 157.13086 
L 104.679616 156.9026 
L 105.488742 161.420091 
L 107.102263 166.800241 
L 108.770078 167.146438 
L 109.551772 167.725853 
L 110.356547 164.81623 
L 111.125376 160.452936 
L 111.911611 157.345397 
L 112.678549 152.372633 
L 113.406705 148.71103 
L 115.695411 140.311608 
L 116.504536 134.310098 
L 117.31177 135.726908 
L 118.122219 135.296734 
L 118.882914 137.053395 
L 119.642285 139.50945 
L 120.397305 136.587682 
L 121.132839 130.495165 
L 121.925316 126.674695 
L 122.682038 123.631087 
L 124.342476 115.888667 
L 125.17733 115.543788 
L 125.948619 111.364353 
L 126.68945 110.571684 
L 127.448632 111.569258 
L 128.242812 109.469326 
L 128.997264 110.137569 
L 129.749446 108.597335 
L 130.527167 110.203941 
L 131.263458 109.516765 
L 132.119689 115.335241 
L 132.930328 117.617946 
L 133.739642 115.827224 
L 135.373595 113.5394 
L 136.166829 112.549 
L 136.960441 114.655454 
L 137.713191 114.852231 
L 138.50056 115.89021 
L 139.268066 115.974737 
L 140.003411 118.628851 
L 140.792672 123.18941 
L 141.629228 126.046737 
L 142.408274 130.362488 
L 143.137187 131.708625 
L 143.900908 129.066478 
L 144.639469 124.946343 
L 146.149319 124.356028 
L 146.877475 121.952752 
L 147.65444 121.915684 
L 148.414757 116.72744 
L 149.273447 115.876764 
L 150.005954 111.237512 
L 150.831727 108.308648 
L 151.606989 106.93468 
L 152.323984 105.256072 
L 153.119488 104.589157 
L 153.858995 103.553324 
L 154.657337 107.336658 
L 155.415194 106.480599 
L 156.257804 106.561453 
L 157.068065 104.057685 
L 157.816274 102.211077 
L 158.565807 99.243706 
L 159.34788 98.264279 
L 160.083414 99.092071 
L 160.869837 95.11961 
L 161.655126 97.521919 
L 162.48298 96.269471 
L 163.330509 96.419519 
L 164.848872 90.510099 
L 165.609378 91.613272 
L 166.383315 91.32752 
L 167.113174 88.920018 
L 167.911138 88.020016 
L 168.650266 86.772287 
L 169.415123 94.228898 
L 170.25622 97.141725 
L 171.012375 101.078387 
L 171.843445 101.220806 
L 172.628544 102.638914 
L 173.509558 103.928104 
L 174.330223 101.663731 
L 175.066136 102.612028 
L 175.885098 103.474117 
L 177.571643 96.379394 
L 178.367526 96.519449 
L 179.136734 96.217226 
L 179.901591 96.372024 
L 180.733039 98.230931 
L 181.529489 100.350392 
L 182.340885 103.136265 
L 183.101012 101.373423 
L 183.81725 102.348112 
L 184.602917 102.804647 
L 185.408826 105.796952 
L 186.143982 103.362683 
L 186.864381 103.29744 
L 187.659507 110.969945 
L 188.326369 114.079041 
L 189.164249 115.616855 
L 189.914918 115.726232 
L 190.757906 111.100666 
L 191.56268 109.043332 
L 192.362725 108.03212 
L 193.106394 104.965109 
L 193.826226 102.606463 
L 195.467556 108.782986 
L 196.234116 105.218169 
L 197.027161 104.125154 
L 197.850475 105.708776 
L 198.605305 105.430251 
L 199.386243 103.458865 
L 200.127641 100.378059 
L 201.798862 100.771495 
L 202.554449 97.934995 
L 203.268228 92.779087 
L 204.012086 91.098715 
L 204.790374 90.00065 
L 205.577744 89.8615 
L 206.374951 88.875909 
L 207.118998 92.275372 
L 207.922448 91.070338 
L 208.716439 92.12258 
L 209.505322 91.360982 
L 210.318609 94.534529 
L 211.051305 98.708208 
L 211.803487 96.918371 
L 212.646476 96.579883 
L 213.429683 98.419893 
L 214.305967 105.676721 
L 215.047744 109.267019 
L 215.81752 111.24229 
L 216.584458 112.1789 
L 218.13309 103.143885 
L 218.986484 100.950804 
L 219.785772 97.668458 
L 220.542872 99.409508 
L 222.085829 98.330957 
L 222.807931 93.998142 
L 223.658865 95.643311 
L 224.39648 94.132101 
L 225.113285 94.04691 
L 225.940004 95.687646 
L 226.726995 97.608769 
L 227.479367 96.777972 
L 228.283762 95.593156 
L 229.057132 94.086505 
L 229.770154 96.153187 
L 230.616926 95.454715 
L 231.426051 89.665196 
L 232.124695 89.126996 
L 232.911686 89.92636 
L 233.672003 88.075782 
L 234.447643 86.822984 
L 235.214392 86.543167 
L 235.922873 82.422879 
L 237.360835 81.832297 
L 238.116044 78.999361 
L 238.849118 76.85351 
L 239.566491 77.480009 
L 240.321132 77.620008 
L 241.022235 76.458644 
L 241.819821 78.409676 
L 242.536247 78.035615 
L 243.388127 78.984195 
L 244.16566 81.135177 
L 244.872438 79.654252 
L 245.672104 79.596593 
L 246.343128 81.262357 
L 247.158496 79.76987 
L 247.895165 77.983518 
L 248.639023 77.648198 
L 249.501119 78.631999 
L 250.276759 77.808181 
L 251.023644 74.911528 
L 251.855849 74.85548 
L 252.657029 77.3818 
L 253.448182 77.101182 
L 254.253902 78.134711 
L 255.049406 81.22201 
L 255.83583 79.303645 
L 256.578931 79.277859 
L 257.304628 81.83169 
L 258.826775 83.803835 
L 259.619819 84.657577 
L 260.413432 84.574616 
L 261.242421 87.076469 
L 261.977577 85.055426 
L 262.63952 82.788569 
L 263.422538 83.305063 
L 264.199124 82.056421 
L 264.990656 82.209928 
L 265.777458 84.926753 
L 266.5688 85.248866 
L 267.29601 84.25306 
L 268.079028 84.206873 
L 268.82421 87.171703 
L 269.608931 86.001093 
L 271.227371 86.429581 
L 272.04255 87.90371 
L 272.819326 88.384737 
L 273.636207 87.103851 
L 274.329176 88.087138 
L 275.073223 84.68558 
L 275.894834 85.888709 
L 276.670663 83.116553 
L 277.504571 84.462321 
L 278.199053 84.826656 
L 278.942344 85.587414 
L 279.758847 87.138104 
L 280.56154 87.259185 
L 281.330181 89.516987 
L 282.088227 87.703624 
L 283.729179 87.01659 
L 285.227868 88.908918 
L 285.944673 88.439471 
L 286.701017 88.871791 
L 287.459631 88.835265 
L 288.259297 91.808877 
L 289.004101 91.934888 
L 289.808118 93.33808 
L 290.559354 92.465982 
L 291.298104 96.827711 
L 292.122932 100.792919 
L 292.855817 100.96129 
L 293.625025 97.248446 
L 294.405206 102.034496 
L 295.131848 97.364996 
L 296.703182 97.461319 
L 297.507389 99.221199 
L 298.312919 98.243818 
L 299.206987 97.784834 
L 300.033895 98.656213 
L 301.703413 102.628647 
L 302.44538 101.771043 
L 303.201913 101.420948 
L 304.05663 101.532225 
L 304.889782 100.774296 
L 305.623235 98.367087 
L 306.386578 97.467352 
L 307.110194 95.79032 
L 307.908158 94.695291 
L 308.640097 98.42481 
L 309.377145 99.667554 
L 310.142947 99.508686 
L 310.876022 98.075623 
L 311.620448 99.350112 
L 312.387007 97.072375 
L 313.186295 93.713068 
L 313.901208 95.384153 
L 314.623121 93.896502 
L 315.425625 92.544093 
L 316.170429 93.891903 
L 316.921287 96.405821 
L 317.697684 93.966201 
L 319.21548 93.012315 
L 320.030848 90.022104 
L 320.776598 90.310549 
L 321.541455 87.995499 
L 322.321824 89.756818 
L 323.772083 85.003734 
L 324.605612 88.755212 
L 325.34947 85.722466 
L 326.102787 85.113151 
L 326.80616 83.700137 
L 327.551153 85.851943 
L 328.305038 85.660402 
L 329.057977 85.05673 
L 329.903046 81.501118 
L 330.654093 79.986925 
L 332.119107 75.28936 
L 332.848398 75.628509 
L 333.608337 74.64819 
L 334.337249 75.045627 
L 335.1127 79.272843 
L 335.879828 80.538493 
L 336.609119 79.970903 
L 337.412379 78.595821 
L 338.161156 80.352565 
L 338.867556 83.667786 
L 339.660601 83.24526 
L 340.412594 84.149782 
L 341.171586 82.394802 
L 341.943065 82.088002 
L 342.723056 82.668183 
L 343.444023 84.913803 
L 344.190151 82.230275 
L 344.942522 81.508887 
L 345.710406 82.141715 
L 346.516505 79.710196 
L 347.210041 79.217905 
L 347.993816 76.193096 
L 348.742971 75.590996 
L 349.501395 74.184542 
L 350.273252 73.335493 
L 350.965464 72.993175 
L 351.701755 70.104705 
L 352.443342 72.203822 
L 353.180011 71.964384 
L 353.904384 72.176258 
L 354.645404 73.657507 
L 355.40118 71.138189 
L 356.186469 72.284262 
L 356.92276 70.319329 
L 357.677779 70.251209 
L 358.418232 68.471099 
L 359.178927 70.718726 
L 359.846924 70.614296 
L 360.553324 72.667088 
L 361.325181 73.244625 
L 362.044445 72.051477 
L 362.766169 68.81907 
L 363.498298 67.5987 
L 364.301747 69.066546 
L 365.822192 69.973963 
L 366.551861 66.930421 
L 367.267909 65.881747 
L 368.045252 65.787497 
L 368.83546 70.856361 
L 369.588587 70.309874 
L 370.307852 68.52443 
L 371.069493 72.055846 
L 371.80654 73.548042 
L 372.578208 73.615947 
L 373.339281 74.107225 
L 374.068572 72.835659 
L 375.587881 73.908974 
L 376.390385 75.662249 
L 377.137459 76.82659 
L 377.878858 77.025991 
L 378.680983 76.777719 
L 379.426733 74.833836 
L 380.147322 75.214396 
L 380.921638 73.842178 
L 381.659821 73.024253 
L 382.445866 74.428412 
L 383.20675 75.275374 
L 383.995255 75.186249 
L 384.786975 78.54159 
L 385.543319 77.725991 
L 387.104059 79.590654 
L 387.879321 84.693322 
L 388.657042 86.754838 
L 389.476951 86.051671 
L 390.244267 84.123792 
L 391.000611 84.089356 
L 391.871976 81.051233 
L 392.684507 82.155212 
L 393.455796 83.588374 
L 394.194925 81.454886 
L 394.995158 81.663078 
L 395.772123 78.41598 
L 397.264757 76.880727 
L 397.997832 80.941116 
L 398.755879 83.773287 
L 399.486116 87.207079 
L 400.314726 89.469617 
L 401.158093 90.667379 
L 401.902708 90.038072 
L 402.668889 89.036429 
L 403.398937 85.119027 
L 404.187442 83.275933 
L 404.923354 84.607212 
L 405.671942 84.099284 
L 406.349019 82.348894 
L 407.119362 81.616722 
L 407.875706 81.810202 
L 408.623915 84.13382 
L 409.408636 85.387109 
L 410.257868 89.103735 
L 411.04675 85.609759 
L 411.792689 86.728872 
L 412.514035 83.450793 
L 413.256758 85.195721 
L 413.990589 82.91611 
L 414.747501 81.273282 
L 415.565896 78.491165 
L 416.272296 76.821059 
L 417.018235 80.027781 
L 417.747715 78.647528 
L 418.556462 83.835935 
L 419.336643 83.398123 
L 420.8726 86.73849 
L 421.66205 87.325445 
L 422.45396 85.711314 
L 423.240762 87.680285 
L 424.127262 88.611168 
L 424.893632 87.739244 
L 425.706541 87.376131 
L 426.450967 90.052846 
L 427.257254 91.197588 
L 428.756321 88.264081 
L 429.478045 88.282801 
L 430.255009 90.018001 
L 430.95895 86.011364 
L 431.713402 87.523513 
L 432.393507 86.750466 
L 433.201118 86.906787 
L 433.972975 90.055716 
L 434.764885 94.207014 
L 436.207008 89.931169 
L 436.995513 88.080154 
L 437.723101 85.108776 
L 438.485688 86.273433 
L 439.239573 85.61403 
L 440.033942 84.155482 
L 440.774395 81.970438 
L 441.575953 81.702216 
L 442.264381 78.022015 
L 443.791824 81.084888 
L 444.538142 80.03808 
L 445.360699 82.952346 
L 446.94868 87.19012 
L 447.775021 87.306473 
L 448.575633 89.13043 
L 449.353165 89.070391 
L 450.110834 88.586264 
L 450.820261 87.716604 
L 451.637142 88.21464 
L 452.413729 89.096946 
L 453.248582 86.892223 
L 454.037844 89.61293 
L 454.839591 87.790846 
L 455.577773 90.000314 
L 456.401466 89.002104 
L 457.260724 90.242367 
L 458.035229 88.363061 
L 458.808599 88.372783 
L 459.538458 87.092984 
L 460.305963 87.218168 
L 461.090684 87.761516 
L 461.854595 88.685015 
L 462.677341 86.088195 
L 463.45809 85.875177 
L 464.288214 86.540616 
L 465.062152 88.434196 
L 465.864656 87.148815 
L 466.640485 89.846195 
L 467.425774 91.439268 
L 468.201792 90.739789 
L 469.793936 87.885735 
L 470.588872 88.797941 
L 471.351081 86.620401 
L 472.130505 88.506728 
L 472.869823 88.932935 
L 473.608194 88.461304 
L 474.363403 88.462095 
L 475.067344 84.167359 
L 475.840714 84.128963 
L 476.556952 81.516784 
L 477.281135 77.85344 
L 478.039181 77.1004 
L 478.805173 76.845364 
L 479.553004 75.324876 
L 480.276241 78.238069 
L 481.014992 77.450063 
L 481.71723 78.881421 
L 482.475655 78.464473 
L 484.00972 76.920805 
L 484.791414 79.259368 
L 485.512003 79.237607 
L 486.9808 75.099634 
L 487.740928 78.892394 
L 488.541351 78.903995 
L 489.360503 74.619086 
L 490.163574 76.737351 
L 491.698964 75.493431 
L 492.41085 73.666301 
L 493.16587 78.448455 
L 493.943023 78.070868 
L 494.666828 80.30488 
L 495.412578 81.047164 
L 496.150761 80.003785 
L 498.439089 72.279362 
L 499.179541 75.898965 
L 499.945533 75.75315 
L 500.720417 73.902409 
L 502.236699 78.070751 
L 503.006286 85.029774 
L 503.801033 84.053885 
L 504.557566 84.884896 
L 505.345693 89.506269 
L 506.096172 84.687063 
L 506.884866 84.171875 
L 507.600725 84.992159 
L 508.3268 85.308327 
L 509.108494 86.454842 
L 509.910619 84.490311 
L 510.710853 86.140737 
L 511.490088 86.782034 
L 512.290511 86.076395 
L 513.129338 85.86445 
L 513.917653 84.812682 
L 514.659241 84.286074 
L 515.441313 85.955067 
L 516.191225 85.754152 
L 516.971027 82.564684 
L 517.776558 84.819713 
L 518.491471 85.151557 
L 519.260869 83.305506 
L 520.050319 80.768187 
L 520.778097 75.454716 
L 522.318972 78.533608 
L 523.146259 81.584644 
L 523.969762 85.646949 
L 524.747862 88.480863 
L 525.415669 90.198057 
L 526.172391 87.893234 
L 526.890521 87.086576 
L 527.610353 84.635069 
L 528.395452 83.265517 
L 529.146688 82.450016 
L 529.918923 81.279105 
L 530.647836 80.644187 
L 531.358966 81.355624 
L 532.128552 78.566022 
L 533.645969 78.644812 
L 534.376963 75.672101 
L 535.140874 79.842365 
L 535.856733 78.049423 
L 536.57316 78.567202 
L 537.349936 79.467457 
L 538.082064 84.581324 
L 538.822328 83.216658 
L 539.576023 84.12378 
L 540.278072 85.377982 
L 541.030254 88.236347 
L 541.84165 87.398498 
L 542.627127 92.650452 
L 543.403903 91.840866 
L 544.142653 88.527605 
L 544.92813 86.374641 
L 545.653827 84.846947 
L 546.450466 84.74677 
L 547.186 82.078427 
L 547.961262 80.082206 
L 548.775117 80.844733 
L 549.49249 81.967485 
L 550.273995 85.994986 
L 551.08993 84.07226 
L 551.860652 84.9016 
L 552.595051 86.085091 
L 553.325099 83.295083 
L 554.106414 80.758711 
L 555.621562 77.176786 
L 557.137087 74.216518 
L 557.890593 75.082743 
L 558.632181 75.440676 
L 559.377931 76.195614 
L 560.153193 74.304649 
L 560.908402 73.444681 
L 561.684988 72.233347 
L 563.16192 67.241361 
L 563.888941 67.882601 
L 564.725498 71.042819 
L 565.550703 71.768017 
L 566.344316 72.856834 
L 567.093471 74.705758 
L 567.800438 74.668416 
L 568.61278 78.500378 
L 569.439877 78.118071 
L 570.185627 79.488701 
L 570.951619 76.439274 
L 572.481522 76.067127 
L 573.246758 77.624206 
L 574.019939 77.321551 
L 574.755283 77.905501 
L 575.552301 77.577274 
L 575.552301 77.577274 
" clip-path="url(#pdd705bd434)" style="fill: none; stroke: #1f77b4; stroke-width: 1.5; stroke-linecap: round"/>
   </g>
   <g id="patch_3">
    <path d="M 42.915937 339.84 
L 42.915937 7.2 
" style="fill: none; stroke: #000000; stroke-linejoin: miter; stroke-linecap: square"/>
   </g>
   <g id="patch_4">
    <path d="M 600.915938 339.84 
L 600.915938 7.2 
" style="fill: none; stroke: #000000; stroke-linejoin: miter; stroke-linecap: square"/>
   </g>
   <g id="patch_5">
    <path d="M 42.915937 339.84 
L 600.915937 339.84 
" style="fill: none; stroke: #000000; stroke-linejoin: miter; stroke-linecap: square"/>
   </g>
   <g id="patch_6">
    <path d="M 42.915937 7.2 
L 600.915937 7.2 
" style="fill: none; stroke: #000000; stroke-linejoin: miter; stroke-linecap: square"/>
   </g>
   <g id="legend_1">
    <g id="patch_7">
     <path d="M 49.915937 43.496875 
L 179.112813 43.496875 
Q 181.112813 43.496875 181.112813 41.496875 
L 181.112813 14.2 
Q 181.112813 12.2 179.112813 12.2 
L 49.915937 12.2 
Q 47.915937 12.2 47.915937 14.2 
L 47.915937 41.496875 
Q 47.915937 43.496875 49.915937 43.496875 
z
" style="fill: #ffffff; opacity: 0.8; stroke: #000000; stroke-linejoin: miter"/>
    </g>
    <g id="line2d_16">
     <path d="M 51.915937 19.7 
L 61.915937 19.7 
L 71.915937 19.7 
" style="fill: none; stroke: #1f77b4; stroke-opacity: 0.1; stroke-width: 1.5; stroke-linecap: round"/>
    </g>
    <g id="text_16">
     <!-- Survival Rate (Original) -->
     <g style="fill: #262626" transform="translate(79.915937 23.2) scale(0.1 -0.1)">
      <defs>
       <path id="TimesNewRomanPSMT-4f" d="M 2341 4334 
Q 3166 4334 3770 3707 
Q 4375 3081 4375 2144 
Q 4375 1178 3765 540 
Q 3156 -97 2291 -97 
Q 1416 -97 820 525 
Q 225 1147 225 2134 
Q 225 3144 913 3781 
Q 1509 4334 2341 4334 
z
M 2281 4106 
Q 1713 4106 1369 3684 
Q 941 3159 941 2147 
Q 941 1109 1384 550 
Q 1725 125 2284 125 
Q 2881 125 3270 590 
Q 3659 1056 3659 2059 
Q 3659 3147 3231 3681 
Q 2888 4106 2281 4106 
z
" transform="scale(0.015625)"/>
       <path id="TimesNewRomanPSMT-67" d="M 966 1044 
Q 703 1172 562 1401 
Q 422 1631 422 1909 
Q 422 2334 742 2640 
Q 1063 2947 1563 2947 
Q 1972 2947 2272 2747 
L 2878 2747 
Q 3013 2747 3034 2739 
Q 3056 2731 3066 2713 
Q 3084 2684 3084 2613 
Q 3084 2531 3069 2500 
Q 3059 2484 3036 2475 
Q 3013 2466 2878 2466 
L 2506 2466 
Q 2681 2241 2681 1891 
Q 2681 1491 2375 1206 
Q 2069 922 1553 922 
Q 1341 922 1119 984 
Q 981 866 932 777 
Q 884 688 884 625 
Q 884 572 936 522 
Q 988 472 1138 450 
Q 1225 438 1575 428 
Q 2219 413 2409 384 
Q 2700 344 2873 169 
Q 3047 -6 3047 -263 
Q 3047 -616 2716 -925 
Q 2228 -1381 1444 -1381 
Q 841 -1381 425 -1109 
Q 191 -953 191 -784 
Q 191 -709 225 -634 
Q 278 -519 444 -313 
Q 466 -284 763 25 
Q 600 122 533 198 
Q 466 275 466 372 
Q 466 481 555 628 
Q 644 775 966 1044 
z
M 1509 2797 
Q 1278 2797 1122 2612 
Q 966 2428 966 2047 
Q 966 1553 1178 1281 
Q 1341 1075 1591 1075 
Q 1828 1075 1981 1253 
Q 2134 1431 2134 1813 
Q 2134 2309 1919 2591 
Q 1759 2797 1509 2797 
z
M 934 0 
Q 788 -159 713 -296 
Q 638 -434 638 -550 
Q 638 -700 819 -813 
Q 1131 -1006 1722 -1006 
Q 2284 -1006 2551 -807 
Q 2819 -609 2819 -384 
Q 2819 -222 2659 -153 
Q 2497 -84 2016 -72 
Q 1313 -53 934 0 
z
" transform="scale(0.015625)"/>
       <path id="TimesNewRomanPSMT-6e" d="M 1034 2341 
Q 1538 2947 1994 2947 
Q 2228 2947 2397 2830 
Q 2566 2713 2666 2444 
Q 2734 2256 2734 1869 
L 2734 647 
Q 2734 375 2778 278 
Q 2813 200 2889 156 
Q 2966 113 3172 113 
L 3172 0 
L 1756 0 
L 1756 113 
L 1816 113 
Q 2016 113 2095 173 
Q 2175 234 2206 353 
Q 2219 400 2219 647 
L 2219 1819 
Q 2219 2209 2117 2386 
Q 2016 2563 1775 2563 
Q 1403 2563 1034 2156 
L 1034 647 
Q 1034 356 1069 288 
Q 1113 197 1189 155 
Q 1266 113 1500 113 
L 1500 0 
L 84 0 
L 84 113 
L 147 113 
Q 366 113 442 223 
Q 519 334 519 647 
L 519 1709 
Q 519 2225 495 2337 
Q 472 2450 423 2490 
Q 375 2531 294 2531 
Q 206 2531 84 2484 
L 38 2597 
L 900 2947 
L 1034 2947 
L 1034 2341 
z
" transform="scale(0.015625)"/>
      </defs>
      <use xlink:href="#TimesNewRomanPSMT-53"/>
      <use xlink:href="#TimesNewRomanPSMT-75" x="55.615234"/>
      <use xlink:href="#TimesNewRomanPSMT-72" x="105.615234"/>
      <use xlink:href="#TimesNewRomanPSMT-76" x="138.916016"/>
      <use xlink:href="#TimesNewRomanPSMT-69" x="188.916016"/>
      <use xlink:href="#TimesNewRomanPSMT-76" x="216.699219"/>
      <use xlink:href="#TimesNewRomanPSMT-61" x="266.699219"/>
      <use xlink:href="#TimesNewRomanPSMT-6c" x="311.083984"/>
      <use xlink:href="#TimesNewRomanPSMT-20" x="338.867188"/>
      <use xlink:href="#TimesNewRomanPSMT-52" x="363.867188"/>
      <use xlink:href="#TimesNewRomanPSMT-61" x="430.566406"/>
      <use xlink:href="#TimesNewRomanPSMT-74" x="474.951172"/>
      <use xlink:href="#TimesNewRomanPSMT-65" x="502.734375"/>
      <use xlink:href="#TimesNewRomanPSMT-20" x="547.119141"/>
      <use xlink:href="#TimesNewRomanPSMT-28" x="572.119141"/>
      <use xlink:href="#TimesNewRomanPSMT-4f" x="605.419922"/>
      <use xlink:href="#TimesNewRomanPSMT-72" x="677.636719"/>
      <use xlink:href="#TimesNewRomanPSMT-69" x="710.9375"/>
      <use xlink:href="#TimesNewRomanPSMT-67" x="738.720703"/>
      <use xlink:href="#TimesNewRomanPSMT-69" x="788.720703"/>
      <use xlink:href="#TimesNewRomanPSMT-6e" x="816.503906"/>
      <use xlink:href="#TimesNewRomanPSMT-61" x="866.503906"/>
      <use xlink:href="#TimesNewRomanPSMT-6c" x="910.888672"/>
      <use xlink:href="#TimesNewRomanPSMT-29" x="938.671875"/>
     </g>
    </g>
    <g id="line2d_17">
     <path d="M 51.915937 33.857812 
L 61.915937 33.857812 
L 71.915937 33.857812 
" style="fill: none; stroke: #1f77b4; stroke-width: 1.5; stroke-linecap: round"/>
    </g>
    <g id="text_17">
     <!-- Survival Rate (Smooth) -->
     <g style="fill: #262626" transform="translate(79.915937 37.357812) scale(0.1 -0.1)">
      <defs>
       <path id="TimesNewRomanPSMT-6d" d="M 1050 2338 
Q 1363 2650 1419 2697 
Q 1559 2816 1721 2881 
Q 1884 2947 2044 2947 
Q 2313 2947 2506 2790 
Q 2700 2634 2766 2338 
Q 3088 2713 3309 2830 
Q 3531 2947 3766 2947 
Q 3994 2947 4170 2830 
Q 4347 2713 4450 2447 
Q 4519 2266 4519 1878 
L 4519 647 
Q 4519 378 4559 278 
Q 4591 209 4675 161 
Q 4759 113 4950 113 
L 4950 0 
L 3538 0 
L 3538 113 
L 3597 113 
Q 3781 113 3884 184 
Q 3956 234 3988 344 
Q 4000 397 4000 647 
L 4000 1878 
Q 4000 2228 3916 2372 
Q 3794 2572 3525 2572 
Q 3359 2572 3192 2489 
Q 3025 2406 2788 2181 
L 2781 2147 
L 2788 2013 
L 2788 647 
Q 2788 353 2820 281 
Q 2853 209 2943 161 
Q 3034 113 3253 113 
L 3253 0 
L 1806 0 
L 1806 113 
Q 2044 113 2133 169 
Q 2222 225 2256 338 
Q 2272 391 2272 647 
L 2272 1878 
Q 2272 2228 2169 2381 
Q 2031 2581 1784 2581 
Q 1616 2581 1450 2491 
Q 1191 2353 1050 2181 
L 1050 647 
Q 1050 366 1089 281 
Q 1128 197 1204 155 
Q 1281 113 1516 113 
L 1516 0 
L 100 0 
L 100 113 
Q 297 113 375 155 
Q 453 197 493 289 
Q 534 381 534 647 
L 534 1741 
Q 534 2213 506 2350 
Q 484 2453 437 2492 
Q 391 2531 309 2531 
Q 222 2531 100 2484 
L 53 2597 
L 916 2947 
L 1050 2947 
L 1050 2338 
z
" transform="scale(0.015625)"/>
       <path id="TimesNewRomanPSMT-6f" d="M 1600 2947 
Q 2250 2947 2644 2453 
Q 2978 2031 2978 1484 
Q 2978 1100 2793 706 
Q 2609 313 2286 112 
Q 1963 -88 1566 -88 
Q 919 -88 538 428 
Q 216 863 216 1403 
Q 216 1797 411 2186 
Q 606 2575 925 2761 
Q 1244 2947 1600 2947 
z
M 1503 2744 
Q 1338 2744 1170 2645 
Q 1003 2547 900 2300 
Q 797 2053 797 1666 
Q 797 1041 1045 587 
Q 1294 134 1700 134 
Q 2003 134 2200 384 
Q 2397 634 2397 1244 
Q 2397 2006 2069 2444 
Q 1847 2744 1503 2744 
z
" transform="scale(0.015625)"/>
       <path id="TimesNewRomanPSMT-68" d="M 1041 4444 
L 1041 2350 
Q 1388 2731 1591 2839 
Q 1794 2947 1997 2947 
Q 2241 2947 2416 2812 
Q 2591 2678 2675 2391 
Q 2734 2191 2734 1659 
L 2734 647 
Q 2734 375 2778 275 
Q 2809 200 2884 156 
Q 2959 113 3159 113 
L 3159 0 
L 1753 0 
L 1753 113 
L 1819 113 
Q 2019 113 2097 173 
Q 2175 234 2206 353 
Q 2216 403 2216 647 
L 2216 1659 
Q 2216 2128 2167 2275 
Q 2119 2422 2012 2495 
Q 1906 2569 1756 2569 
Q 1603 2569 1437 2487 
Q 1272 2406 1041 2159 
L 1041 647 
Q 1041 353 1073 281 
Q 1106 209 1195 161 
Q 1284 113 1503 113 
L 1503 0 
L 84 0 
L 84 113 
Q 275 113 384 172 
Q 447 203 484 290 
Q 522 378 522 647 
L 522 3238 
Q 522 3728 498 3840 
Q 475 3953 426 3993 
Q 378 4034 297 4034 
Q 231 4034 84 3984 
L 41 4094 
L 897 4444 
L 1041 4444 
z
" transform="scale(0.015625)"/>
      </defs>
      <use xlink:href="#TimesNewRomanPSMT-53"/>
      <use xlink:href="#TimesNewRomanPSMT-75" x="55.615234"/>
      <use xlink:href="#TimesNewRomanPSMT-72" x="105.615234"/>
      <use xlink:href="#TimesNewRomanPSMT-76" x="138.916016"/>
      <use xlink:href="#TimesNewRomanPSMT-69" x="188.916016"/>
      <use xlink:href="#TimesNewRomanPSMT-76" x="216.699219"/>
      <use xlink:href="#TimesNewRomanPSMT-61" x="266.699219"/>
      <use xlink:href="#TimesNewRomanPSMT-6c" x="311.083984"/>
      <use xlink:href="#TimesNewRomanPSMT-20" x="338.867188"/>
      <use xlink:href="#TimesNewRomanPSMT-52" x="363.867188"/>
      <use xlink:href="#TimesNewRomanPSMT-61" x="430.566406"/>
      <use xlink:href="#TimesNewRomanPSMT-74" x="474.951172"/>
      <use xlink:href="#TimesNewRomanPSMT-65" x="502.734375"/>
      <use xlink:href="#TimesNewRomanPSMT-20" x="547.119141"/>
      <use xlink:href="#TimesNewRomanPSMT-28" x="572.119141"/>
      <use xlink:href="#TimesNewRomanPSMT-53" x="605.419922"/>
      <use xlink:href="#TimesNewRomanPSMT-6d" x="661.035156"/>
      <use xlink:href="#TimesNewRomanPSMT-6f" x="738.818359"/>
      <use xlink:href="#TimesNewRomanPSMT-6f" x="788.818359"/>
      <use xlink:href="#TimesNewRomanPSMT-74" x="838.818359"/>
      <use xlink:href="#TimesNewRomanPSMT-68" x="866.601562"/>
      <use xlink:href="#TimesNewRomanPSMT-29" x="916.601562"/>
     </g>
    </g>
   </g>
  </g>
 </g>
 <defs>
  <clipPath id="pdd705bd434">
   <rect x="42.915937" y="7.2" width="558" height="332.64"/>
  </clipPath>
 </defs>
</svg>
