<?xml version="1.0" encoding="utf-8" standalone="no"?>
<!DOCTYPE svg PUBLIC "-//W3C//DTD SVG 1.1//EN"
  "http://www.w3.org/Graphics/SVG/1.1/DTD/svg11.dtd">
<svg xmlns:xlink="http://www.w3.org/1999/xlink" width="618.775pt" height="379.274375pt" viewBox="0 0 618.775 379.274375" xmlns="http://www.w3.org/2000/svg" version="1.1">
 <metadata>
  <rdf:RDF xmlns:dc="http://purl.org/dc/elements/1.1/" xmlns:cc="http://creativecommons.org/ns#" xmlns:rdf="http://www.w3.org/1999/02/22-rdf-syntax-ns#">
   <cc:Work>
    <dc:type rdf:resource="http://purl.org/dc/dcmitype/StillImage"/>
    <dc:date>2025-08-28T18:04:13.282508</dc:date>
    <dc:format>image/svg+xml</dc:format>
    <dc:creator>
     <cc:Agent>
      <dc:title>Matplotlib v3.9.4, https://matplotlib.org/</dc:title>
     </cc:Agent>
    </dc:creator>
   </cc:Work>
  </rdf:RDF>
 </metadata>
 <defs>
  <style type="text/css">*{stroke-linejoin: round; stroke-linecap: butt}</style>
 </defs>
 <g id="figure_1">
  <g id="patch_1">
   <path d="M 0 379.274375 
L 618.775 379.274375 
L 618.775 0 
L 0 0 
z
" style="fill: #ffffff"/>
  </g>
  <g id="axes_1">
   <g id="patch_2">
    <path d="M 53.575 339.84 
L 611.575 339.84 
L 611.575 7.2 
L 53.575 7.2 
z
" style="fill: #ffffff"/>
   </g>
   <g id="matplotlib.axis_1">
    <g id="xtick_1">
     <g id="line2d_1">
      <path d="M 78.456775 339.84 
L 78.456775 7.2 
" clip-path="url(#p1324f2e0c8)" style="fill: none; stroke: #808080; stroke-opacity: 0.7; stroke-width: 0.5; stroke-linecap: round"/>
     </g>
     <g id="text_1">
      <!-- 0.0 -->
      <g style="fill: #262626" transform="translate(69.456775 355.09) scale(0.12 -0.12)">
       <defs>
        <path id="SimHei-30" d="M 225 2537 
Q 250 3200 412 3587 
Q 575 3975 875 4225 
Q 1175 4475 1612 4475 
Q 2050 4475 2375 4112 
Q 2700 3750 2800 3200 
Q 2900 2650 2862 1937 
Q 2825 1225 2612 775 
Q 2400 325 1975 150 
Q 1550 -25 1125 187 
Q 700 400 525 750 
Q 350 1100 275 1487 
Q 200 1875 225 2537 
z
M 750 2687 
Q 675 2000 800 1462 
Q 925 925 1212 700 
Q 1500 475 1800 612 
Q 2100 750 2237 1162 
Q 2375 1575 2375 2062 
Q 2375 2550 2337 2950 
Q 2300 3350 2112 3675 
Q 1925 4000 1612 4012 
Q 1300 4025 1062 3700 
Q 825 3375 750 2687 
z
" transform="scale(0.015625)"/>
        <path id="SimHei-2e" d="M 1075 125 
L 500 125 
L 500 675 
L 1075 675 
L 1075 125 
z
" transform="scale(0.015625)"/>
       </defs>
       <use xlink:href="#SimHei-30"/>
       <use xlink:href="#SimHei-2e" x="50"/>
       <use xlink:href="#SimHei-30" x="100"/>
      </g>
     </g>
    </g>
    <g id="xtick_2">
     <g id="line2d_2">
      <path d="M 172.939409 339.84 
L 172.939409 7.2 
" clip-path="url(#p1324f2e0c8)" style="fill: none; stroke: #808080; stroke-opacity: 0.7; stroke-width: 0.5; stroke-linecap: round"/>
     </g>
     <g id="text_2">
      <!-- 0.5 -->
      <g style="fill: #262626" transform="translate(163.939409 355.09) scale(0.12 -0.12)">
       <defs>
        <path id="SimHei-35" d="M 550 1325 
Q 725 650 1150 575 
Q 1575 500 1837 662 
Q 2100 825 2212 1087 
Q 2325 1350 2312 1675 
Q 2300 2000 2137 2225 
Q 1975 2450 1725 2525 
Q 1475 2600 1162 2525 
Q 850 2450 650 2175 
L 225 2225 
Q 275 2375 700 4375 
L 2675 4375 
L 2675 3925 
L 1075 3925 
Q 950 3250 825 2850 
Q 1200 3025 1525 3012 
Q 1850 3000 2150 2862 
Q 2450 2725 2587 2487 
Q 2725 2250 2787 2012 
Q 2850 1775 2837 1500 
Q 2825 1225 2725 937 
Q 2625 650 2425 462 
Q 2225 275 1937 162 
Q 1650 50 1275 75 
Q 900 100 562 350 
Q 225 600 100 1200 
L 550 1325 
z
" transform="scale(0.015625)"/>
       </defs>
       <use xlink:href="#SimHei-30"/>
       <use xlink:href="#SimHei-2e" x="50"/>
       <use xlink:href="#SimHei-35" x="100"/>
      </g>
     </g>
    </g>
    <g id="xtick_3">
     <g id="line2d_3">
      <path d="M 267.422043 339.84 
L 267.422043 7.2 
" clip-path="url(#p1324f2e0c8)" style="fill: none; stroke: #808080; stroke-opacity: 0.7; stroke-width: 0.5; stroke-linecap: round"/>
     </g>
     <g id="text_3">
      <!-- 1.0 -->
      <g style="fill: #262626" transform="translate(258.422043 355.09) scale(0.12 -0.12)">
       <defs>
        <path id="SimHei-31" d="M 1400 3600 
Q 1075 3275 575 2975 
L 575 3450 
Q 1200 3875 1600 4450 
L 1900 4450 
L 1900 150 
L 1400 150 
L 1400 3600 
z
" transform="scale(0.015625)"/>
       </defs>
       <use xlink:href="#SimHei-31"/>
       <use xlink:href="#SimHei-2e" x="50"/>
       <use xlink:href="#SimHei-30" x="100"/>
      </g>
     </g>
    </g>
    <g id="xtick_4">
     <g id="line2d_4">
      <path d="M 361.904677 339.84 
L 361.904677 7.2 
" clip-path="url(#p1324f2e0c8)" style="fill: none; stroke: #808080; stroke-opacity: 0.7; stroke-width: 0.5; stroke-linecap: round"/>
     </g>
     <g id="text_4">
      <!-- 1.5 -->
      <g style="fill: #262626" transform="translate(352.904677 355.09) scale(0.12 -0.12)">
       <use xlink:href="#SimHei-31"/>
       <use xlink:href="#SimHei-2e" x="50"/>
       <use xlink:href="#SimHei-35" x="100"/>
      </g>
     </g>
    </g>
    <g id="xtick_5">
     <g id="line2d_5">
      <path d="M 456.387311 339.84 
L 456.387311 7.2 
" clip-path="url(#p1324f2e0c8)" style="fill: none; stroke: #808080; stroke-opacity: 0.7; stroke-width: 0.5; stroke-linecap: round"/>
     </g>
     <g id="text_5">
      <!-- 2.0 -->
      <g style="fill: #262626" transform="translate(447.387311 355.09) scale(0.12 -0.12)">
       <defs>
        <path id="SimHei-32" d="M 300 250 
Q 325 625 650 925 
Q 975 1225 1475 1862 
Q 1975 2500 2125 2850 
Q 2275 3200 2237 3450 
Q 2200 3700 2000 3862 
Q 1800 4025 1537 4000 
Q 1275 3975 1037 3800 
Q 800 3625 675 3275 
L 200 3350 
Q 400 3925 712 4187 
Q 1025 4450 1450 4475 
Q 1700 4500 1900 4462 
Q 2100 4425 2312 4287 
Q 2525 4150 2662 3875 
Q 2800 3600 2762 3212 
Q 2725 2825 2375 2287 
Q 2025 1750 1025 600 
L 2825 600 
L 2825 150 
L 300 150 
L 300 250 
z
" transform="scale(0.015625)"/>
       </defs>
       <use xlink:href="#SimHei-32"/>
       <use xlink:href="#SimHei-2e" x="50"/>
       <use xlink:href="#SimHei-30" x="100"/>
      </g>
     </g>
    </g>
    <g id="xtick_6">
     <g id="line2d_6">
      <path d="M 550.869945 339.84 
L 550.869945 7.2 
" clip-path="url(#p1324f2e0c8)" style="fill: none; stroke: #808080; stroke-opacity: 0.7; stroke-width: 0.5; stroke-linecap: round"/>
     </g>
     <g id="text_6">
      <!-- 2.5 -->
      <g style="fill: #262626" transform="translate(541.869945 355.09) scale(0.12 -0.12)">
       <use xlink:href="#SimHei-32"/>
       <use xlink:href="#SimHei-2e" x="50"/>
       <use xlink:href="#SimHei-35" x="100"/>
      </g>
     </g>
    </g>
    <g id="text_7">
     <!-- Step -->
     <g style="fill: #262626" transform="translate(318.575 370.324375) scale(0.14 -0.14)">
      <defs>
       <path id="SimHei-53" d="M 2900 1325 
Q 2900 750 2537 412 
Q 2175 75 1550 75 
Q 925 75 575 425 
Q 225 775 225 1300 
L 225 1475 
L 800 1475 
L 800 1325 
Q 800 950 1025 750 
Q 1250 550 1550 550 
Q 1950 550 2137 762 
Q 2325 975 2325 1275 
Q 2325 1525 2100 1737 
Q 1875 1950 1450 2125 
Q 850 2350 587 2625 
Q 325 2900 325 3275 
Q 325 3800 687 4125 
Q 1050 4450 1550 4450 
Q 2200 4450 2487 4062 
Q 2775 3675 2775 3225 
L 2200 3225 
Q 2225 3500 2050 3725 
Q 1875 3950 1550 3950 
Q 1250 3950 1075 3787 
Q 900 3625 900 3350 
Q 900 3125 1037 2962 
Q 1175 2800 1750 2575 
Q 2300 2350 2600 2037 
Q 2900 1725 2900 1325 
z
" transform="scale(0.015625)"/>
       <path id="SimHei-74" d="M 2750 200 
Q 2625 150 2462 112 
Q 2300 75 2025 75 
Q 1575 75 1300 325 
Q 1025 575 1025 1025 
L 1025 2525 
L 175 2525 
L 175 2925 
L 1025 2925 
L 1025 3900 
L 1525 3900 
L 1525 2925 
L 2550 2925 
L 2550 2525 
L 1525 2525 
L 1525 1000 
Q 1525 800 1625 662 
Q 1725 525 2000 525 
Q 2275 525 2450 575 
Q 2625 625 2750 700 
L 2750 200 
z
" transform="scale(0.015625)"/>
       <path id="SimHei-65" d="M 2850 1075 
Q 2800 625 2450 350 
Q 2100 75 1625 75 
Q 1025 75 637 462 
Q 250 850 250 1525 
Q 250 2200 637 2587 
Q 1025 2975 1625 2975 
Q 2150 2975 2487 2637 
Q 2825 2300 2825 1525 
L 800 1525 
Q 800 975 1037 750 
Q 1275 525 1625 525 
Q 1900 525 2075 662 
Q 2250 800 2300 1075 
L 2850 1075 
z
M 2250 1925 
Q 2200 2275 2025 2412 
Q 1850 2550 1575 2550 
Q 1325 2550 1125 2412 
Q 925 2275 825 1925 
L 2250 1925 
z
" transform="scale(0.015625)"/>
       <path id="SimHei-70" d="M 2825 1525 
Q 2825 800 2475 425 
Q 2125 50 1625 50 
Q 1350 50 1150 162 
Q 950 275 800 500 
L 800 -800 
L 300 -800 
L 300 2925 
L 800 2925 
L 800 2550 
Q 950 2775 1150 2875 
Q 1350 2975 1625 2975 
Q 2125 2975 2475 2612 
Q 2825 2250 2825 1525 
z
M 2275 1525 
Q 2275 2000 2087 2262 
Q 1900 2525 1525 2525 
Q 1225 2525 1012 2262 
Q 800 2000 800 1525 
Q 800 1050 1012 775 
Q 1225 500 1525 500 
Q 1900 500 2087 775 
Q 2275 1050 2275 1525 
z
" transform="scale(0.015625)"/>
      </defs>
      <use xlink:href="#SimHei-53"/>
      <use xlink:href="#SimHei-74" x="50"/>
      <use xlink:href="#SimHei-65" x="100"/>
      <use xlink:href="#SimHei-70" x="150"/>
     </g>
    </g>
    <g id="text_8">
     <!-- 1e6 -->
     <g style="fill: #262626" transform="translate(596.575 366.465) scale(0.1 -0.1)">
      <defs>
       <path id="SimHei-36" d="M 250 1612 
Q 275 1975 387 2225 
Q 500 2475 725 2850 
L 1750 4450 
L 2325 4450 
L 1275 2800 
Q 1950 2975 2350 2750 
Q 2750 2525 2887 2237 
Q 3025 1950 3037 1612 
Q 3050 1275 2937 950 
Q 2825 625 2537 362 
Q 2250 100 1737 75 
Q 1225 50 862 262 
Q 500 475 362 862 
Q 225 1250 250 1612 
z
M 1025 787 
Q 1250 550 1625 525 
Q 2000 500 2250 775 
Q 2500 1050 2500 1575 
Q 2500 2100 2187 2300 
Q 1875 2500 1487 2450 
Q 1100 2400 925 2075 
Q 750 1750 775 1387 
Q 800 1025 1025 787 
z
" transform="scale(0.015625)"/>
      </defs>
      <use xlink:href="#SimHei-31"/>
      <use xlink:href="#SimHei-65" x="50"/>
      <use xlink:href="#SimHei-36" x="100"/>
     </g>
    </g>
   </g>
   <g id="matplotlib.axis_2">
    <g id="ytick_1">
     <g id="line2d_7">
      <path d="M 53.575 334.576957 
L 611.575 334.576957 
" clip-path="url(#p1324f2e0c8)" style="fill: none; stroke: #808080; stroke-opacity: 0.7; stroke-width: 0.5; stroke-linecap: round"/>
     </g>
     <g id="text_9">
      <!-- -100 -->
      <g style="fill: #262626" transform="translate(22.575 338.701957) scale(0.12 -0.12)">
       <defs>
        <path id="SimHei-2d" d="M 2975 2125 
L 125 2125 
L 125 2525 
L 2975 2525 
L 2975 2125 
z
" transform="scale(0.015625)"/>
       </defs>
       <use xlink:href="#SimHei-2d"/>
       <use xlink:href="#SimHei-31" x="50"/>
       <use xlink:href="#SimHei-30" x="100"/>
       <use xlink:href="#SimHei-30" x="150"/>
      </g>
     </g>
    </g>
    <g id="ytick_2">
     <g id="line2d_8">
      <path d="M 53.575 277.183826 
L 611.575 277.183826 
" clip-path="url(#p1324f2e0c8)" style="fill: none; stroke: #808080; stroke-opacity: 0.7; stroke-width: 0.5; stroke-linecap: round"/>
     </g>
     <g id="text_10">
      <!-- -50 -->
      <g style="fill: #262626" transform="translate(28.575 281.308826) scale(0.12 -0.12)">
       <use xlink:href="#SimHei-2d"/>
       <use xlink:href="#SimHei-35" x="50"/>
       <use xlink:href="#SimHei-30" x="100"/>
      </g>
     </g>
    </g>
    <g id="ytick_3">
     <g id="line2d_9">
      <path d="M 53.575 219.790694 
L 611.575 219.790694 
" clip-path="url(#p1324f2e0c8)" style="fill: none; stroke: #808080; stroke-opacity: 0.7; stroke-width: 0.5; stroke-linecap: round"/>
     </g>
     <g id="text_11">
      <!-- 0 -->
      <g style="fill: #262626" transform="translate(40.575 223.915694) scale(0.12 -0.12)">
       <use xlink:href="#SimHei-30"/>
      </g>
     </g>
    </g>
    <g id="ytick_4">
     <g id="line2d_10">
      <path d="M 53.575 162.397563 
L 611.575 162.397563 
" clip-path="url(#p1324f2e0c8)" style="fill: none; stroke: #808080; stroke-opacity: 0.7; stroke-width: 0.5; stroke-linecap: round"/>
     </g>
     <g id="text_12">
      <!-- 50 -->
      <g style="fill: #262626" transform="translate(34.575 166.522563) scale(0.12 -0.12)">
       <use xlink:href="#SimHei-35"/>
       <use xlink:href="#SimHei-30" x="50"/>
      </g>
     </g>
    </g>
    <g id="ytick_5">
     <g id="line2d_11">
      <path d="M 53.575 105.004432 
L 611.575 105.004432 
" clip-path="url(#p1324f2e0c8)" style="fill: none; stroke: #808080; stroke-opacity: 0.7; stroke-width: 0.5; stroke-linecap: round"/>
     </g>
     <g id="text_13">
      <!-- 100 -->
      <g style="fill: #262626" transform="translate(28.575 109.129432) scale(0.12 -0.12)">
       <use xlink:href="#SimHei-31"/>
       <use xlink:href="#SimHei-30" x="50"/>
       <use xlink:href="#SimHei-30" x="100"/>
      </g>
     </g>
    </g>
    <g id="ytick_6">
     <g id="line2d_12">
      <path d="M 53.575 47.611301 
L 611.575 47.611301 
" clip-path="url(#p1324f2e0c8)" style="fill: none; stroke: #808080; stroke-opacity: 0.7; stroke-width: 0.5; stroke-linecap: round"/>
     </g>
     <g id="text_14">
      <!-- 150 -->
      <g style="fill: #262626" transform="translate(28.575 51.736301) scale(0.12 -0.12)">
       <use xlink:href="#SimHei-31"/>
       <use xlink:href="#SimHei-35" x="50"/>
       <use xlink:href="#SimHei-30" x="100"/>
      </g>
     </g>
    </g>
    <g id="text_15">
     <!-- Reward -->
     <g style="fill: #262626" transform="translate(16.825 194.52) rotate(-90) scale(0.14 -0.14)">
      <defs>
       <path id="SimHei-52" d="M 3000 125 
L 2400 125 
L 1500 1975 
L 850 1975 
L 850 125 
L 275 125 
L 275 4400 
L 1525 4400 
Q 2125 4400 2500 4112 
Q 2875 3825 2875 3175 
Q 2875 2675 2625 2400 
Q 2375 2125 2050 2050 
L 3000 125 
z
M 2300 3175 
Q 2300 3525 2087 3725 
Q 1875 3925 1400 3925 
L 850 3925 
L 850 2450 
L 1550 2450 
Q 1850 2450 2075 2612 
Q 2300 2775 2300 3175 
z
" transform="scale(0.015625)"/>
       <path id="SimHei-77" d="M 3075 2925 
L 2450 75 
L 1975 75 
L 1575 2250 
L 1525 2250 
L 1125 75 
L 650 75 
L 25 2925 
L 550 2925 
L 875 1050 
L 925 1050 
L 1275 2925 
L 1825 2925 
L 2175 1050 
L 2225 1050 
L 2550 2925 
L 3075 2925 
z
" transform="scale(0.015625)"/>
       <path id="SimHei-61" d="M 2875 125 
L 2275 125 
Q 2225 175 2200 262 
Q 2175 350 2175 475 
Q 2000 275 1750 175 
Q 1500 75 1225 75 
Q 825 75 550 275 
Q 275 475 275 850 
Q 275 1225 525 1450 
Q 775 1675 1300 1750 
Q 1650 1800 1912 1875 
Q 2175 1950 2175 2075 
Q 2175 2225 2062 2375 
Q 1950 2525 1575 2525 
Q 1275 2525 1137 2412 
Q 1000 2300 950 2100 
L 400 2100 
Q 450 2500 762 2737 
Q 1075 2975 1575 2975 
Q 2125 2975 2400 2725 
Q 2675 2475 2675 2025 
L 2675 650 
Q 2675 500 2725 375 
Q 2775 250 2875 125 
z
M 2175 1050 
L 2175 1550 
Q 2025 1500 1887 1462 
Q 1750 1425 1425 1375 
Q 1050 1325 937 1200 
Q 825 1075 825 900 
Q 825 750 937 637 
Q 1050 525 1275 525 
Q 1500 525 1762 650 
Q 2025 775 2175 1050 
z
" transform="scale(0.015625)"/>
       <path id="SimHei-72" d="M 2500 2425 
Q 2025 2500 1700 2287 
Q 1375 2075 1150 1550 
L 1150 125 
L 650 125 
L 650 2925 
L 1150 2925 
L 1150 2200 
Q 1375 2600 1712 2787 
Q 2050 2975 2500 2975 
L 2500 2425 
z
" transform="scale(0.015625)"/>
       <path id="SimHei-64" d="M 2750 125 
L 2250 125 
L 2250 500 
Q 2100 275 1900 175 
Q 1700 75 1425 75 
Q 925 75 575 437 
Q 225 800 225 1525 
Q 225 2250 575 2625 
Q 925 3000 1425 3000 
Q 1700 3000 1900 2887 
Q 2100 2775 2250 2550 
L 2250 4400 
L 2750 4400 
L 2750 125 
z
M 2250 1525 
Q 2250 2000 2037 2275 
Q 1825 2550 1525 2550 
Q 1150 2550 962 2275 
Q 775 2000 775 1525 
Q 775 1050 962 787 
Q 1150 525 1525 525 
Q 1825 525 2037 787 
Q 2250 1050 2250 1525 
z
" transform="scale(0.015625)"/>
      </defs>
      <use xlink:href="#SimHei-52"/>
      <use xlink:href="#SimHei-65" x="50"/>
      <use xlink:href="#SimHei-77" x="100"/>
      <use xlink:href="#SimHei-61" x="150"/>
      <use xlink:href="#SimHei-72" x="200"/>
      <use xlink:href="#SimHei-64" x="250"/>
     </g>
    </g>
   </g>
   <g id="PolyCollection_1"/>
   <g id="PolyCollection_2"/>
   <g id="line2d_13">
    <path d="M 78.938636 313.413669 
L 79.983047 322.324938 
L 80.388 312.59268 
L 81.720583 85.792428 
L 81.894998 307.92574 
L 82.156715 82.339452 
L 82.793906 85.792463 
L 83.00857 45.763188 
L 84.189981 306.081744 
L 84.419574 71.35009 
L 85.995922 78.867893 
L 86.641806 304.275089 
L 86.963046 90.68314 
L 88.587959 92.174962 
L 89.568878 304.402397 
L 90.492729 87.284644 
L 90.867258 88.245499 
L 91.114802 70.50937 
L 91.812084 299.494057 
L 92.668475 48.637031 
L 93.052452 88.921735 
L 93.178492 84.817386 
L 93.249543 295.905821 
L 93.539416 74.829872 
L 94.163568 86.463734 
L 94.855748 88.104004 
L 95.248229 87.91197 
L 96.593472 69.129188 
L 96.976316 295.317992 
L 98.151113 25.763588 
L 98.555121 283.146113 
L 98.96253 89.121249 
L 99.545299 75.826747 
L 99.86465 84.173964 
L 100.01072 57.863982 
L 101.812315 89.940609 
L 102.315719 77.505121 
L 102.737111 93.1021 
L 102.913038 302.030561 
L 103.631673 294.469854 
L 104.55628 83.325231 
L 105.248082 318.495005 
L 105.897177 59.496397 
L 107.168725 77.342643 
L 107.4654 313.7216 
L 108.242803 83.165328 
L 111.820483 77.506312 
L 111.90854 31.274365 
L 113.236966 83.992053 
L 113.448607 72.307739 
L 113.727898 81.673103 
L 114.893436 76.506136 
L 115.160255 266.700125 
L 115.253037 30.400665 
L 116.039321 83.992053 
L 117.412343 278.209552 
L 117.592805 92.174962 
L 119.13873 312.737853 
L 119.273273 91.36442 
L 119.553886 90.682737 
L 120.216776 23.1235 
L 120.680308 306.078661 
L 120.850377 291.920438 
L 121.091875 300.19393 
L 121.555406 302.721974 
L 121.951478 84.817386 
L 122.705449 73.337647 
L 123.189578 85.792428 
L 123.632513 74.702564 
L 123.928054 76.685822 
L 124.360974 299.278754 
L 124.532743 78.353153 
L 124.93335 85.792428 
L 125.013471 83.325345 
L 125.435619 291.669513 
L 126.090762 47.547704 
L 127.538614 297.553851 
L 127.702258 89.872204 
L 128.654265 92.297786 
L 129.251773 301.76231 
L 129.313375 90.682746 
L 129.493459 88.921727 
L 129.701321 284.864334 
L 129.835298 81.352018 
L 130.771243 309.296638 
L 130.99819 86.281613 
L 131.286173 311.7712 
L 131.501404 95.396363 
L 131.703975 43.169673 
L 132.009343 318.303899 
L 132.403525 75.538818 
L 132.801674 320.723297 
L 134.866309 76.372251 
L 135.223075 75.850427 
L 135.599305 90.682737 
L 136.17924 85.792472 
L 136.886914 22.32 
L 137.188503 85.79248 
L 137.45759 83.325301 
L 137.846858 294.263291 
L 138.192664 27.600158 
L 138.868971 90.552066 
L 139.178874 88.921928 
L 139.252382 80.848873 
L 139.328535 306.078836 
L 139.546979 27.600158 
L 140.025817 73.990168 
L 140.375024 94.01154 
L 140.52733 75.827447 
L 140.913197 74.176309 
L 141.081188 92.388566 
L 141.391091 88.10509 
L 141.677751 86.463778 
L 142.038297 89.940565 
L 142.115017 309.587142 
L 142.196461 93.790002 
L 144.089893 59.791262 
L 144.423227 300.958809 
L 147.092929 304.586462 
L 147.473127 300.081886 
L 147.621275 94.594325 
L 148.120522 73.149449 
L 149.177027 88.725217 
L 149.502236 75.668569 
L 150.035496 305.974324 
L 150.190258 324.72 
L 150.608438 287.412424 
L 150.785688 73.337647 
L 151.886977 309.588193 
L 151.990152 91.364429 
L 152.773036 80.848926 
L 152.992235 72.189793 
L 153.691785 78.037165 
L 153.982602 50.989452 
L 154.280034 93.790002 
L 155.072932 79.185028 
L 155.556305 312.086365 
L 155.916284 285.944291 
L 156.852418 307.750581 
L 157.277968 62.136485 
L 157.507182 81.352062 
L 158.167616 85.642298 
L 158.409114 88.9217 
L 159.041014 308.58482 
L 159.987352 297.657478 
L 160.575034 24.271363 
L 161.584297 311.909788 
L 162.055765 83.992053 
L 162.243597 91.491299 
L 162.422358 78.353153 
L 162.750024 83.325161 
L 163.038007 90.343436 
L 163.160645 81.673103 
L 163.558417 322.324938 
L 163.648932 315.866819 
L 164.324671 77.505121 
L 164.765338 80.848873 
L 165.113035 81.683367 
L 165.176338 92.388566 
L 165.931821 306.238976 
L 166.321089 87.284714 
L 167.502311 91.491299 
L 169.241926 72.307739 
L 169.634595 83.167342 
L 169.695442 91.491299 
L 171.063929 79.012295 
L 172.006865 88.104022 
L 172.094545 80.677253 
L 172.554487 88.106027 
L 172.689786 85.00216 
L 173.106265 82.337403 
L 175.257446 30.400665 
L 175.393123 87.284644 
L 176.116104 81.673199 
L 176.929033 86.611771 
L 177.193962 86.611954 
L 177.429791 80.845055 
L 178.934521 62.347908 
L 179.396541 48.403276 
L 179.918274 84.149075 
L 180.380672 295.113101 
L 181.221757 80.015668 
L 181.670738 25.763588 
L 181.902221 77.520088 
L 182.556607 82.499933 
L 182.811144 278.209552 
L 183.065302 86.282778 
L 183.295462 84.971702 
L 183.377661 70.815532 
L 184.883904 64.690766 
L 186.03867 282.286 
L 187.287731 80.845038 
L 187.555306 316.037861 
L 187.649977 90.682754 
L 187.777529 88.9217 
L 187.843856 89.737715 
L 189.603689 74.144318 
L 190.017145 310.417563 
L 190.260154 81.673103 
L 190.557397 94.01154 
L 190.701766 293.412658 
L 191.022818 77.342748 
L 191.328186 80.848873 
L 191.693267 65.540576 
L 193.68874 81.507989 
L 193.759602 89.737715 
L 194.526423 91.36442 
L 195.263577 295.962079 
L 195.477486 306.258347 
L 195.630358 299.545349 
L 196.443854 88.9217 
L 196.928172 90.682737 
L 198.06631 298.701713 
L 198.155312 77.52007 
L 198.377347 45.763188 
L 200.173083 307.092595 
L 200.260385 90.682746 
L 201.539491 90.551979 
L 201.626226 70.621413 
L 202.339759 271.048113 
L 202.807448 94.594325 
L 203.145129 86.611771 
L 203.806886 83.992053 
L 204.307833 301.185935 
L 204.393245 87.477878 
L 204.772498 82.337263 
L 205.412523 84.174235 
L 206.115663 94.820102 
L 206.535166 71.46504 
L 206.928781 67.377164 
L 207.58638 89.121231 
L 207.817673 22.32 
L 208.153276 305.399272 
L 208.786687 91.36442 
L 209.397045 277.975805 
L 209.95317 73.149449 
L 210.463943 90.758279 
L 211.147808 78.342714 
L 211.457144 312.086356 
L 211.619277 68.864152 
L 211.789723 84.173841 
L 212.050306 81.681948 
L 212.650271 89.737715 
L 213.316563 27.600158 
L 214.050693 93.200999 
L 214.386295 90.759847 
L 214.531042 85.6413 
L 214.727944 83.165328 
L 215.100395 312.91711 
L 215.325641 28.393236 
L 215.427305 291.70901 
L 215.486829 83.165328 
L 217.011779 290.984318 
L 217.686573 308.751755 
L 218.144247 87.477878 
L 218.712466 96.43093 
L 218.768967 88.103987 
L 219.488735 80.848873 
L 220.036357 94.01154 
L 221.003481 73.99171 
L 221.690748 90.682737 
L 221.978164 92.388566 
L 222.696421 79.012295 
L 223.048274 57.22775 
L 223.489697 306.806286 
L 223.837582 90.682746 
L 224.902212 74.829872 
L 225.1473 307.094373 
L 225.552064 79.012295 
L 225.631429 89.121266 
L 225.732526 67.377164 
L 228.326074 88.103987 
L 228.807935 76.506136 
L 229.372186 88.9217 
L 229.884659 89.737724 
L 230.200798 49.266573 
L 230.364253 306.915256 
L 230.530543 93.790002 
L 231.026766 87.284644 
L 231.237273 91.574294 
L 231.375973 91.491334 
L 231.600842 94.01154 
L 232.748617 318.304188 
L 232.919442 42.343561 
L 233.802665 308.46641 
L 233.877118 305.145287 
L 233.965175 83.165328 
L 235.067977 82.337263 
L 235.355204 79.697867 
L 235.63714 312.737888 
L 236.276599 80.845038 
L 236.600674 91.36442 
L 237.370708 304.306975 
L 237.613528 82.337289 
L 237.827815 77.342976 
L 238.072525 92.983524 
L 238.447243 73.341431 
L 239.954241 35.424806 
L 240.857495 307.750563 
L 240.937427 294.263291 
L 241.291359 55.291818 
L 241.442342 68.226133 
L 241.605041 303.748834 
L 241.953682 73.990168 
L 242.2445 76.68584 
L 242.609014 83.325161 
L 242.746014 77.520237 
L 243.875648 70.81667 
L 244.18026 77.521603 
L 244.684986 294.469854 
L 246.183859 88.724946 
L 246.385485 299.545349 
L 246.469952 283.372114 
L 246.872826 27.575094 
L 247.229781 77.207095 
L 247.853745 288.510028 
L 248.175742 79.697175 
L 248.495849 24.271363 
L 248.788556 79.186368 
L 249.51645 78.353153 
L 249.663654 23.1235 
L 249.794607 22.32 
L 249.871516 71.35009 
L 250.157798 53.509807 
L 250.377943 73.337647 
L 250.973939 49.212626 
L 251.285732 83.32517 
L 252.267029 288.265422 
L 252.627385 282.278836 
L 252.763062 78.353153 
L 253.124553 86.611771 
L 253.191258 61.200046 
L 253.346398 84.149092 
L 253.572212 29.526474 
L 253.750217 71.657233 
L 254.007588 41.718749 
L 254.574483 89.060218 
L 254.801809 87.9119 
L 255.187298 89.872257 
L 256.6223 86.463751 
L 257.296528 87.284662 
L 257.776689 90.551996 
L 258.261196 74.830126 
L 258.64215 91.36442 
L 259.452055 72.457983 
L 259.546349 305.399281 
L 259.717929 93.200999 
L 260.7733 311.254473 
L 261.497982 312.916996 
L 262.233246 73.149449 
L 263.598142 83.99207 
L 265.047128 281.425235 
L 265.11251 94.594325 
L 265.271996 77.520526 
L 265.934886 35.424806 
L 266.084169 87.284653 
L 266.401253 88.9217 
L 267.144453 93.790002 
L 267.721364 87.477887 
L 267.787502 68.284615 
L 268.628397 305.141915 
L 269.257463 89.739292 
L 269.675832 80.033384 
L 269.740269 93.200999 
L 269.88804 22.32 
L 270.065289 258.895519 
L 270.491217 92.388566 
L 272.465715 74.176782 
L 272.529963 81.507901 
L 273.23556 81.508532 
L 273.36141 90.551979 
L 273.652795 63.840133 
L 274.842142 294.263291 
L 275.325326 80.015668 
L 275.704013 88.921735 
L 275.829675 78.178249 
L 275.996342 85.792454 
L 276.156207 76.506565 
L 277.19665 80.014617 
L 277.498049 83.992053 
L 277.643363 83.16644 
L 277.852926 85.6413 
L 278.555121 309.417894 
L 278.616346 85.641983 
L 279.379954 84.973514 
L 279.528481 295.962079 
L 280.468583 82.337263 
L 280.553995 94.820102 
L 280.625046 89.940574 
L 280.947421 89.940565 
L 281.28359 82.51384 
L 281.765074 87.286308 
L 283.1209 73.990168 
L 283.603517 94.01154 
L 283.681371 83.992228 
L 284.331411 25.763588 
L 284.74978 79.012295 
L 285.162102 93.790002 
L 285.554016 73.338252 
L 287.342006 88.103987 
L 287.505083 78.342714 
L 287.905689 27.600158 
L 288.333318 83.992053 
L 289.268696 90.758279 
L 289.797987 91.364429 
L 291.020593 48.511449 
L 291.917422 25.763588 
L 292.167234 90.551979 
L 292.617538 84.817386 
L 293.273437 297.657478 
L 293.355825 84.173841 
L 293.435758 294.397807 
L 293.515312 88.104066 
L 294.241506 88.105913 
L 295.999261 91.364429 
L 296.056328 307.750563 
L 296.138339 91.574294 
L 296.633428 92.983524 
L 297.456372 286.700913 
L 297.587136 267.665517 
L 298.550481 301.185935 
L 298.621721 52.713471 
L 299.017225 88.9217 
L 299.094512 90.758279 
L 299.231323 81.682605 
L 300.706763 73.992472 
L 301.309563 76.666451 
L 302.227367 72.457983 
L 302.302197 306.078889 
L 302.946002 316.226489 
L 303.017998 79.845369 
L 303.436556 89.940565 
L 303.686557 92.983524 
L 304.126846 74.144318 
L 304.455834 89.940565 
L 305.711886 79.179379 
L 306.072054 95.626589 
L 306.931846 304.558552 
L 308.340582 46.911051 
L 309.78012 299.349365 
L 310.35722 316.226489 
L 310.453592 94.820102 
L 310.6932 278.948483 
L 312.059041 79.845369 
L 312.367243 73.301663 
L 312.754622 77.520815 
L 312.898047 91.364534 
L 313.021063 313.746366 
L 313.182628 27.600158 
L 313.331911 83.992053 
L 313.703039 89.121301 
L 314.591175 295.249245 
L 314.903724 96.430904 
L 315.557355 89.739204 
L 315.769941 91.36442 
L 315.851385 313.746366 
L 316.417147 306.078687 
L 317.569079 81.507919 
L 317.847614 86.463734 
L 317.995007 85.828631 
L 319.146183 94.820102 
L 320.108583 82.513831 
L 321.820042 88.300312 
L 322.939472 289.273095 
L 323.023562 85.828631 
L 323.522997 75.85048 
L 323.618235 93.201156 
L 323.968955 75.828682 
L 324.327422 296.09987 
L 324.625609 80.015081 
L 324.775081 315.401927 
L 325.983514 27.600158 
L 326.830834 86.463734 
L 327.354646 79.847375 
L 327.424752 75.66856 
L 327.964247 68.284615 
L 328.178723 312.086356 
L 330.023024 297.798675 
L 330.272458 80.015799 
L 330.816678 74.829872 
L 331.044759 299.494057 
L 331.134518 74.986045 
L 331.286068 34.554678 
L 331.348237 269.407365 
L 332.867329 315.402365 
L 333.237134 314.574431 
L 333.866767 304.558552 
L 334.029844 73.301636 
L 334.204636 74.829872 
L 334.740542 68.084962 
L 335.768891 29.526474 
L 335.921386 71.46504 
L 336.328039 86.611771 
L 336.953136 71.351281 
L 337.367915 44.077808 
L 337.442745 85.6413 
L 337.816708 29.268864 
L 338.187268 88.9217 
L 338.691995 67.237692 
L 339.637388 85.792428 
L 339.948425 73.150465 
L 340.981498 67.237692 
L 341.138906 77.52007 
L 341.281953 70.815514 
L 341.517592 92.174962 
L 341.875304 22.32 
L 343.121719 86.611771 
L 343.487744 77.52007 
L 344.839413 74.176309 
L 345.129852 89.872204 
L 345.367004 277.1119 
L 345.751926 76.685822 
L 346.26251 93.1021 
L 346.581673 83.325318 
L 346.716594 71.657233 
L 347.151781 62.988712 
L 347.229823 76.685919 
L 347.698268 65.745467 
L 348.257983 311.770324 
L 348.713012 92.983524 
L 348.952809 315.365032 
L 349.381193 76.372208 
L 350.187319 295.113101 
L 350.357199 79.185028 
L 351.110981 89.737715 
L 351.338117 56.986131 
L 351.501194 288.292491 
L 351.867409 65.540594 
L 353.093227 315.401174 
L 353.24232 314.390375 
L 353.73174 82.499907 
L 353.992323 295.113101 
L 354.135181 85.792437 
L 355.165609 84.817386 
L 356.096452 310.250154 
L 356.495546 94.594325 
L 357.424122 309.417894 
L 357.500842 75.850427 
L 357.910896 303.562693 
L 357.988561 88.245499 
L 359.063584 22.32 
L 359.365551 79.185142 
L 359.494425 316.226489 
L 359.649755 80.525494 
L 359.892008 290.12907 
L 360.124246 87.284644 
L 361.370094 78.178056 
L 362.181511 73.337674 
L 362.236122 67.439114 
L 362.704378 72.497952 
L 363.198522 27.575094 
L 364.934357 290.002248 
L 365.401291 52.713471 
L 365.570037 79.012505 
L 367.160368 75.850427 
L 367.364829 79.697175 
L 367.67681 76.372785 
L 367.755042 79.845545 
L 367.827983 74.702564 
L 368.274696 56.131627 
L 368.670579 90.551987 
L 369.326288 84.644565 
L 369.854635 92.174962 
L 370.181923 87.429493 
L 370.730111 91.491492 
L 371.023952 81.507893 
L 371.322517 84.971509 
L 372.275847 73.149449 
L 372.440247 89.059762 
L 372.646786 74.829872 
L 373.537001 73.337647 
L 373.841802 92.297786 
L 374.168145 77.342652 
L 374.312137 89.872204 
L 375.12242 82.501474 
L 375.26301 306.915177 
L 375.409836 80.015764 
L 376.42439 73.149633 
L 377.574244 70.621659 
L 377.935357 73.149449 
L 378.477498 91.491299 
L 380.428753 285.722424 
L 380.483742 312.737958 
L 380.547613 52.65173 
L 381.046103 84.173841 
L 381.805365 25.763588 
L 382.39078 70.815514 
L 382.950684 81.507893 
L 383.238289 92.983524 
L 384.091845 81.352789 
L 384.501522 69.129188 
L 384.944645 83.823681 
L 386.309353 68.284615 
L 387.451459 79.697333 
L 387.868694 92.983524 
L 388.231885 86.464382 
L 388.5981 75.85048 
L 389.489071 84.644574 
L 389.551241 79.179327 
L 390.345273 80.014652 
L 390.514586 83.166676 
L 390.589038 92.983524 
L 391.105291 87.284644 
L 391.35019 82.513945 
L 391.438815 67.237709 
L 391.502685 25.763588 
L 391.946753 50.129992 
L 393.617206 78.342714 
L 394.968119 91.36442 
L 395.434296 74.830275 
L 395.576776 317.872837 
L 396.200551 83.165433 
L 400.758015 89.534874 
L 401.80356 85.001906 
L 401.896909 314.389911 
L 402.848916 84.971509 
L 402.920156 94.594325 
L 403.071706 76.666451 
L 403.226468 88.245499 
L 403.494043 94.820102 
L 403.567551 60.556545 
L 403.737619 302.601006 
L 405.47062 298.503864 
L 405.84685 76.506136 
L 406.06416 84.174051 
L 406.330223 66.389563 
L 406.71609 83.001212 
L 407.541301 86.611806 
L 408.194932 298.503864 
L 408.498032 24.271363 
L 409.157521 73.990168 
L 409.603857 321.5253 
L 410.861043 86.613636 
L 411.396949 77.342652 
L 411.702883 87.429484 
L 412.36634 82.337263 
L 412.527528 32.81283 
L 413.222164 90.551979 
L 413.521296 88.103987 
L 413.967254 87.284644 
L 414.345563 316.857178 
L 414.809661 71.465058 
L 415.47104 88.246112 
L 416.019417 309.588193 
L 416.294172 69.129188 
L 416.911333 89.872204 
L 418.060809 76.685831 
L 418.5627 82.499828 
L 418.981636 80.677253 
L 419.318184 92.174962 
L 419.401895 25.763588 
L 420.974842 77.520228 
L 421.035311 85.792428 
L 421.17609 314.545172 
L 421.666455 75.013911 
L 421.872994 264.957239 
L 423.868656 78.178038 
L 424.296852 85.641501 
L 424.603164 22.32 
L 425.448595 70.621413 
L 425.599578 81.673112 
L 426.880574 79.845369 
L 426.954648 83.32517 
L 428.357148 85.792428 
L 428.451253 76.506136 
L 428.683302 22.32 
L 429.232246 310.249769 
L 429.384741 74.82989 
L 430.012484 29.268864 
L 430.188222 86.463997 
L 430.251903 86.463734 
L 431.234144 73.99157 
L 431.400812 308.58482 
L 432.169334 93.1021 
L 432.386266 293.36662 
L 433.307849 22.32 
L 433.503995 80.845038 
L 433.671607 83.992167 
L 433.843755 256.213119 
L 434.872671 74.176309 
L 436.22245 76.506136 
L 437.392712 311.909788 
L 437.856432 84.971518 
L 438.369662 88.104827 
L 438.97265 300.19393 
L 439.286332 87.429476 
L 439.811467 291.669513 
L 439.95149 79.18565 
L 440.705084 85.641309 
L 442.239293 88.245517 
L 442.572816 301.229749 
L 442.920135 78.355632 
L 443.370061 302.070468 
L 444.196028 299.545402 
L 444.563377 24.271363 
L 445.035601 302.600971 
L 445.355897 80.01657 
L 445.436963 88.245499 
L 445.997434 85.792428 
L 446.20454 84.150721 
L 446.414669 93.904138 
L 446.63916 86.612962 
L 446.710211 73.337647 
L 446.799403 90.551979 
L 447.587955 71.657233 
L 447.65995 302.070468 
L 447.823594 86.611928 
L 447.95946 91.149923 
L 448.170724 87.097636 
L 448.250656 87.9119 
L 448.693212 78.353153 
L 449.154477 86.282856 
L 449.275603 77.205291 
L 449.512377 313.413581 
L 451.071907 92.174962 
L 451.217977 287.436512 
L 451.683777 87.284644 
L 452.208533 308.585056 
L 453.061334 71.613445 
L 454.522224 75.668534 
L 454.669806 89.059762 
L 455.943054 79.187445 
L 456.180772 81.673252 
L 456.390713 47.489169 
L 457.930402 76.506171 
L 459.830447 73.990168 
L 460.070811 85.792428 
L 461.022062 85.6413 
L 461.658308 91.36442 
L 462.293799 79.845501 
L 462.367117 292.561228 
L 462.595954 316.226507 
L 462.845955 78.17986 
L 463.988817 311.254473 
L 464.617127 81.507893 
L 466.802132 93.200999 
L 467.050999 89.737715 
L 467.682143 69.074279 
L 468.68536 90.551979 
L 468.811022 89.121652 
L 468.878482 22.32 
L 469.427427 317.676669 
L 470.796102 316.857187 
L 472.032313 306.238976 
L 472.584658 317.872837 
L 472.959187 75.668534 
L 473.040065 307.077637 
L 473.537043 22.32 
L 474.768719 83.994575 
L 475.225448 66.389563 
L 475.443325 88.9217 
L 477.273453 302.030525 
L 477.688799 87.284679 
L 478.692205 69.921637 
L 479.007588 307.915239 
L 480.407631 77.505112 
L 481.02706 315.214858 
L 481.370031 72.457983 
L 482.824686 79.179292 
L 483.065617 299.494057 
L 483.127975 82.337263 
L 483.259117 290.984318 
L 483.415769 91.574294 
L 483.469247 93.790002 
L 483.763277 296.09987 
L 484.677113 34.554678 
L 485.098127 36.294408 
L 485.406896 305.399272 
L 487.096435 92.983524 
L 488.049198 88.9217 
L 488.657099 293.545588 
L 489.278417 92.983524 
L 490.090968 80.849425 
L 490.160129 89.05978 
L 491.272567 83.992053 
L 491.487232 74.176318 
L 492.253486 85.792428 
L 492.335308 32.744626 
L 492.543548 76.506153 
L 493.885201 272.783486 
L 494.17205 90.682737 
L 495.18018 83.325161 
L 495.543182 51.10316 
L 495.690575 88.9217 
L 495.828142 89.059762 
L 496.509551 312.89787 
L 496.835894 74.144318 
L 497.166772 87.429476 
L 498.270896 87.284644 
L 498.350073 77.342643 
L 498.512772 89.872204 
L 498.928495 87.285003 
L 501.156585 89.060113 
L 501.805491 86.611771 
L 502.345932 69.776823 
L 502.631648 22.32 
L 503.10236 83.825065 
L 503.542271 82.177324 
L 504.190044 73.990168 
L 504.343862 92.297786 
L 505.430601 89.872204 
L 506.080264 83.32517 
L 506.669646 86.611771 
L 507.079323 80.677244 
L 507.424941 87.429598 
L 507.970105 76.685822 
L 508.34917 77.52007 
L 508.48787 86.282103 
L 508.6449 65.444874 
L 508.721809 79.697727 
L 509.396226 89.872204 
L 509.533037 83.325161 
L 510.002616 77.52007 
L 510.903035 312.072353 
L 511.33501 88.72435 
L 511.930817 82.178726 
L 512.062337 300.388039 
L 512.83256 308.58482 
L 512.981275 24.271363 
L 514.159096 81.673103 
L 515.00207 25.763588 
L 515.140959 76.685822 
L 515.479774 80.015668 
L 515.614506 92.174962 
L 516.378871 277.975805 
L 516.603551 80.848873 
L 519.180848 311.080418 
L 519.701447 311.909788 
L 519.954283 82.337271 
L 520.269477 91.491325 
L 521.396655 88.103987 
L 522.242463 89.737715 
L 522.793864 64.690766 
L 523.408946 75.013911 
L 524.193907 82.499828 
L 524.416886 85.792428 
L 524.799163 85.792428 
L 525.163488 83.823664 
L 525.595652 82.337263 
L 525.761374 76.685822 
L 526.53103 86.281989 
L 526.602081 89.534909 
L 527.955261 89.059832 
L 528.200349 76.687258 
L 528.681077 90.551979 
L 529.622502 73.990168 
L 530.543518 88.103987 
L 530.746278 310.249769 
L 530.901041 89.737715 
L 531.454142 75.014069 
L 532.18128 77.505112 
L 532.809212 83.992053 
L 532.996099 89.940565 
L 533.137067 314.574431 
L 533.403508 87.284644 
L 533.534083 85.6413 
L 534.292211 72.457983 
L 535.082653 82.500958 
L 535.165042 57.007289 
L 535.825853 89.873395 
L 536.12045 54.550058 
L 536.201139 85.792542 
L 537.587766 88.103987 
L 537.951524 77.523275 
L 538.091736 78.867998 
L 538.17318 68.284615 
L 538.416 86.463734 
L 539.096653 82.500459 
L 540.478934 71.61341 
L 541.203994 33.6398 
L 541.912425 301.880256 
L 542.305284 87.097636 
L 542.605171 85.463917 
L 542.682269 69.668195 
L 542.99633 89.872204 
L 543.454192 67.136753 
L 543.531668 38.868394 
L 543.598562 69.972833 
L 543.829855 89.737715 
L 544.053023 66.592772 
L 545.064176 290.856012 
L 545.459492 296.709269 
L 545.684927 89.059762 
L 546.887124 85.792428 
L 546.948916 87.911961 
L 547.260331 314.217931 
L 547.642041 80.015852 
L 548.200244 23.1235 
L 548.830632 90.682737 
L 548.982938 88.245499 
L 549.766199 24.073566 
L 550.188915 80.015668 
L 550.32497 73.990168 
L 550.750708 87.429476 
L 550.90018 78.039941 
L 551.057021 284.005561 
L 551.570629 62.988712 
L 551.966133 64.690766 
L 552.139792 310.417668 
L 552.305892 78.353153 
L 552.924187 276.483607 
L 554.066671 88.245674 
L 554.388857 74.176309 
L 554.79362 82.337271 
L 555.04211 71.35009 
L 556.184783 90.682754 
L 556.989586 78.353153 
L 557.063471 314.544288 
L 557.189133 74.702564 
L 557.648319 79.845369 
L 557.727306 302.070468 
L 558.112417 303.748834 
L 558.632828 25.763588 
L 559.062724 303.748948 
L 559.317449 83.325424 
L 559.590693 84.644784 
L 560.050634 79.845369 
L 561.063677 89.059762 
L 561.60922 76.686479 
L 563.051969 266.078566 
L 564.559912 78.353425 
L 564.789505 312.897703 
L 565.192379 28.651793 
L 565.739244 88.245499 
L 566.999832 63.749476 
L 567.813894 69.972833 
L 568.637405 83.992053 
L 569.168775 304.275124 
L 569.620969 88.245613 
L 571.449586 78.353258 
L 573.147061 306.258347 
L 573.814864 52.940815 
L 575.011392 24.271363 
L 575.092269 91.491807 
L 575.685431 84.81757 
L 576.003082 89.059841 
L 576.780863 73.337656 
L 577.014991 83.001212 
L 577.088876 80.015992 
L 577.837746 77.52007 
L 578.110234 316.857169 
L 578.809594 82.499828 
L 579.140283 89.872204 
L 579.875358 83.325353 
L 579.943575 72.189793 
L 580.690176 85.792428 
L 580.858544 52.65173 
L 581.454352 287.655519 
L 581.861761 83.824049 
L 583.000655 75.540412 
L 583.596462 73.337647 
L 584.624055 73.338689 
L 584.83872 300.38825 
L 585.111397 88.245849 
L 585.287135 84.149075 
L 585.356674 290.216785 
L 585.567559 77.205291 
L 585.799986 44.317536 
L 586.211364 72.189793 
L 586.211364 72.189793 
" clip-path="url(#p1324f2e0c8)" style="fill: none; stroke: #1f77b4; stroke-opacity: 0.1; stroke-width: 1.5; stroke-linecap: round"/>
   </g>
   <g id="line2d_14">
    <path d="M 78.938636 313.413669 
L 80.388 313.544958 
L 81.720583 309.780453 
L 81.894998 309.749797 
L 82.156715 305.990948 
L 82.793906 302.351304 
L 83.00857 298.110178 
L 84.189981 298.241939 
L 84.419574 294.491661 
L 85.995922 290.927631 
L 86.641806 291.148251 
L 86.963046 287.834778 
L 88.587959 284.600731 
L 89.568878 284.928031 
L 90.492729 281.661199 
L 90.867258 278.464245 
L 91.114802 275.026974 
L 91.812084 275.431389 
L 92.668475 271.682722 
L 93.052452 268.661879 
L 93.178492 265.623127 
L 93.249543 266.123667 
L 93.539416 262.961787 
L 94.855748 257.202472 
L 95.248229 254.404282 
L 96.12635 251.452588 
L 96.593472 248.438978 
L 96.976316 249.213837 
L 98.151113 245.520445 
L 98.555121 246.142357 
L 98.96253 243.546966 
L 99.545299 240.774731 
L 99.86465 238.186289 
L 100.01072 235.205755 
L 101.459895 232.706355 
L 101.812315 230.346591 
L 102.737111 225.593538 
L 102.913038 226.85696 
L 103.631673 227.974529 
L 104.55628 225.583631 
L 105.248082 227.119356 
L 105.897177 224.348729 
L 107.168725 221.918876 
L 107.4654 223.436277 
L 108.242803 221.117749 
L 111.820483 218.744006 
L 111.90854 215.645334 
L 113.236966 213.469247 
L 113.727898 206.782181 
L 114.893436 204.628858 
L 115.160255 205.654829 
L 115.253037 202.758066 
L 116.039321 200.794991 
L 117.412343 202.074571 
L 117.592805 200.258048 
L 119.13873 202.117219 
L 119.273273 200.286594 
L 119.553886 198.47496 
L 120.216776 195.576589 
L 120.680308 197.403069 
L 121.091875 200.63854 
L 121.555406 202.325869 
L 121.951478 200.38358 
L 122.705449 198.283647 
L 123.632513 194.412359 
L 123.928054 192.466466 
L 124.360974 194.231958 
L 124.532743 192.316606 
L 124.93335 190.555876 
L 125.013471 188.78347 
L 125.435619 190.484066 
L 126.090762 188.121482 
L 127.538614 189.930281 
L 127.702258 188.276429 
L 128.654265 186.690005 
L 129.251773 188.592026 
L 129.313375 186.973691 
L 129.493459 185.352998 
L 129.701321 186.997813 
L 129.835298 185.251602 
L 130.771243 187.301933 
L 130.99819 185.632175 
L 131.286173 187.717118 
L 131.501404 186.191155 
L 131.703975 183.827164 
L 132.009343 186.04992 
L 132.403525 184.22329 
L 132.801674 186.479488 
L 134.866309 184.659534 
L 135.527687 181.270139 
L 135.599305 179.772827 
L 136.17924 178.219433 
L 137.188503 174.157457 
L 137.45759 172.656099 
L 137.846858 174.666135 
L 138.192664 172.235292 
L 138.868971 170.885157 
L 139.178874 169.530392 
L 139.252382 168.064582 
L 139.328535 170.34581 
L 139.546979 165.708145 
L 140.375024 163.032135 
L 140.52733 161.590735 
L 140.913197 160.145869 
L 141.081188 157.80441 
L 142.038297 154.408715 
L 142.115017 156.973648 
L 142.196461 155.92929 
L 144.089893 154.340232 
L 144.423227 156.763679 
L 147.092929 159.207031 
L 147.473127 161.535541 
L 147.621275 160.429075 
L 148.120522 158.986436 
L 149.177027 156.56831 
L 149.502236 155.231124 
L 150.035496 157.722747 
L 150.190258 160.483032 
L 150.608438 162.581039 
L 150.785688 161.105941 
L 151.886977 163.560194 
L 151.990152 162.366875 
L 152.773036 161.019471 
L 152.992235 159.551212 
L 153.691785 158.203872 
L 153.982602 156.431733 
L 154.280034 155.396333 
L 154.989976 154.150371 
L 155.072932 152.911275 
L 155.494324 155.468731 
L 155.556305 158.057452 
L 155.916284 160.171284 
L 156.852418 162.610611 
L 157.507182 159.634215 
L 158.167616 158.411208 
L 158.409114 157.262621 
L 159.041014 159.763815 
L 159.987352 162.043049 
L 160.575034 159.765831 
L 161.584297 162.280607 
L 162.055765 160.986581 
L 162.750024 157.248633 
L 163.038007 156.142762 
L 163.160645 154.911858 
L 163.558417 157.679016 
L 163.648932 160.293691 
L 164.324671 158.925285 
L 165.113035 156.379371 
L 165.176338 155.321671 
L 165.931821 157.816172 
L 166.321089 156.650363 
L 167.502311 155.573354 
L 169.156324 154.224871 
L 169.241926 152.870869 
L 169.560143 151.680359 
L 169.695442 149.57177 
L 171.063929 148.405498 
L 172.006865 147.40878 
L 172.094545 146.305779 
L 172.554487 145.3438 
L 172.689786 144.346417 
L 173.106265 143.321475 
L 175.257446 141.455015 
L 175.393123 140.559637 
L 176.116104 139.586308 
L 176.929033 138.710695 
L 177.429791 136.907336 
L 178.934521 135.674949 
L 179.396541 134.232442 
L 179.918274 133.404618 
L 180.380672 136.077485 
L 181.221757 135.150843 
L 181.902221 132.4201 
L 182.556607 131.594974 
L 182.811144 134.018355 
L 183.295462 132.43169 
L 183.377661 131.413241 
L 184.883904 130.310391 
L 186.03867 132.822384 
L 187.287731 131.963254 
L 187.555306 135.00581 
L 187.843856 132.799853 
L 189.603689 131.83034 
L 190.017145 134.782195 
L 190.557397 133.244973 
L 190.701766 135.892373 
L 191.693267 132.898727 
L 193.68874 132.049293 
L 193.759602 131.349928 
L 194.526423 130.689011 
L 195.188747 133.368053 
L 195.263577 136.055557 
L 195.630358 141.524637 
L 196.443854 140.655167 
L 196.928172 139.829176 
L 198.06631 142.455169 
L 198.377347 139.801387 
L 200.173083 142.566531 
L 200.260385 141.708948 
L 201.539491 140.863378 
L 201.626226 139.702354 
L 202.339759 141.873358 
L 202.807448 141.091887 
L 203.145129 140.191389 
L 203.806886 139.262474 
L 204.307833 141.938895 
L 204.393245 141.038713 
L 204.772498 140.068441 
L 205.412523 139.14457 
L 206.115663 138.411934 
L 206.928781 136.149536 
L 207.193332 135.152471 
L 207.58638 134.391624 
L 207.817673 132.5392 
L 208.153276 135.396392 
L 208.786687 134.668591 
L 209.397045 137.037305 
L 210.463943 135.233819 
L 211.147808 134.29347 
L 211.457144 137.232196 
L 211.789723 134.445341 
L 212.050306 133.573219 
L 212.650271 132.848665 
L 213.316563 131.10902 
L 214.050693 130.482441 
L 214.386295 129.825869 
L 214.727944 128.336369 
L 215.100395 131.38729 
L 215.325641 129.684909 
L 215.427305 132.362993 
L 215.486829 131.549809 
L 217.011779 134.18509 
L 217.686573 137.070489 
L 218.144247 136.250777 
L 218.712466 135.592598 
L 218.768967 134.807662 
L 220.036357 133.256207 
L 221.690748 131.589126 
L 221.978164 130.941183 
L 222.696421 130.082854 
L 223.048274 128.878638 
L 223.489697 131.81959 
L 223.837582 131.139643 
L 224.902212 130.208903 
L 225.1473 133.132629 
L 225.552064 132.238078 
L 225.732526 130.465102 
L 228.326074 129.764919 
L 228.807935 128.884608 
L 229.884659 127.587926 
L 230.200798 126.293358 
L 230.364253 129.278844 
L 230.530543 128.692252 
L 231.026766 128.007829 
L 231.600842 126.269841 
L 232.748617 129.443962 
L 232.919442 128.004286 
L 233.802665 130.987131 
L 233.877118 133.865778 
L 233.965175 133.027754 
L 235.067977 132.189895 
L 235.355204 131.322258 
L 235.63714 134.320863 
L 236.276599 133.436966 
L 236.600674 132.741552 
L 237.370708 135.577344 
L 238.447243 132.088181 
L 239.954241 130.49044 
L 240.857495 133.420359 
L 240.937427 136.07892 
L 241.18894 135.24524 
L 241.442342 132.837786 
L 241.605041 135.662762 
L 242.609014 132.853004 
L 242.746014 131.938412 
L 243.875648 130.928136 
L 244.18026 130.045383 
L 244.684986 132.763143 
L 246.183859 132.035239 
L 246.469952 137.259672 
L 246.741684 136.476408 
L 246.872826 134.676387 
L 247.229781 133.726481 
L 247.853745 136.284887 
L 248.175742 135.349553 
L 248.495849 133.513549 
L 248.788556 132.615579 
L 249.51645 131.71868 
L 249.871516 127.206383 
L 250.377943 125.118 
L 251.285732 123.193313 
L 252.267029 125.921777 
L 252.627385 128.506192 
L 252.763062 127.677216 
L 253.124553 126.998448 
L 253.191258 125.910871 
L 253.346398 125.220594 
L 254.007588 120.220557 
L 254.574483 119.70551 
L 254.801809 119.179996 
L 255.187298 118.69557 
L 256.6223 118.162813 
L 257.776689 117.204489 
L 258.571855 116.075126 
L 258.64215 115.666685 
L 259.452055 114.952491 
L 259.546349 118.100372 
L 259.717929 117.688812 
L 260.7733 120.888245 
L 261.497982 124.062273 
L 262.233246 123.220739 
L 263.598142 122.572331 
L 265.047128 125.197999 
L 265.271996 123.912457 
L 266.401253 121.324031 
L 267.144453 120.868923 
L 267.721364 120.317005 
L 267.787502 119.456966 
L 268.628397 122.526139 
L 269.257463 121.984207 
L 269.675832 121.290805 
L 269.88804 119.198304 
L 270.065289 121.507349 
L 270.491217 121.026047 
L 272.465715 120.251679 
L 272.529963 119.611286 
L 273.23556 118.981488 
L 273.747467 117.022289 
L 274.842142 119.951892 
L 275.704013 118.789805 
L 276.156207 116.905254 
L 277.19665 116.295492 
L 277.498049 115.761551 
L 277.852926 114.733838 
L 278.555121 117.951756 
L 278.616346 117.417711 
L 279.379954 116.881443 
L 279.528481 119.841453 
L 280.468583 119.221549 
L 280.625046 118.340903 
L 281.765074 116.791172 
L 283.603517 115.718888 
L 283.681371 115.194481 
L 284.331411 113.716284 
L 284.74978 113.142665 
L 285.162102 112.822786 
L 285.554016 112.170149 
L 287.342006 111.772361 
L 287.905689 109.837662 
L 288.333318 109.410462 
L 289.268696 109.102161 
L 289.797987 108.808976 
L 291.020593 107.812322 
L 292.167234 106.193266 
L 292.617538 105.839946 
L 293.273437 109.010484 
L 293.355825 108.59996 
L 293.435758 111.670999 
L 293.515312 111.281463 
L 294.241506 110.898396 
L 295.999261 110.575521 
L 296.056328 113.834612 
L 296.138339 113.466673 
L 296.633428 113.128109 
L 297.456372 115.997081 
L 297.587136 118.503997 
L 298.550481 121.523533 
L 298.621721 120.386177 
L 299.017225 119.23694 
L 299.231323 118.153266 
L 300.706763 117.423335 
L 301.309563 116.749668 
L 302.227367 116.017574 
L 302.302197 119.159083 
L 302.946002 122.416396 
L 303.017998 121.712742 
L 303.686557 120.7214 
L 304.455834 119.455481 
L 305.711886 118.789761 
L 306.072054 117.503278 
L 306.931846 120.595101 
L 308.340582 119.377183 
L 309.78012 122.35193 
L 310.35722 125.556468 
L 310.453592 125.048429 
L 310.6932 127.592231 
L 312.059041 126.803027 
L 312.898047 124.560821 
L 313.021063 127.687855 
L 313.331911 125.338613 
L 313.621406 124.712816 
L 313.703039 124.124526 
L 314.591175 126.953034 
L 314.903724 126.448536 
L 315.557355 125.84177 
L 315.769941 125.271896 
L 315.851385 128.387177 
L 316.417147 131.324227 
L 317.569079 130.500817 
L 317.847614 129.772931 
L 317.995007 129.046579 
L 319.146183 128.480852 
L 320.108583 127.721067 
L 321.820042 127.069484 
L 322.939472 129.750535 
L 323.023562 129.024553 
L 323.522997 128.145643 
L 323.618235 127.568048 
L 323.968955 126.712852 
L 324.327422 129.512638 
L 324.625609 128.694496 
L 324.775081 131.780569 
L 325.983514 130.058579 
L 326.830834 129.338003 
L 327.354646 128.519976 
L 327.424752 127.646399 
L 327.964247 126.665213 
L 328.178723 129.730025 
L 330.023024 132.508019 
L 330.272458 131.640379 
L 330.816678 130.701362 
L 331.044759 133.491324 
L 331.286068 130.904962 
L 331.348237 133.194258 
L 332.867329 136.205963 
L 333.237134 139.154202 
L 333.866767 141.888158 
L 334.204636 139.664833 
L 334.740542 138.481695 
L 335.768891 136.680782 
L 335.921386 135.602836 
L 336.953136 133.744442 
L 337.367915 132.262349 
L 337.442745 131.491753 
L 337.816708 129.802118 
L 338.691995 128.103455 
L 339.637388 127.404099 
L 339.948425 126.507345 
L 340.981498 125.527681 
L 341.517592 123.319512 
L 341.875304 121.650098 
L 343.121719 121.070952 
L 343.487744 120.351103 
L 344.839413 119.587883 
L 345.129852 119.096715 
L 345.367004 121.708536 
L 345.751926 120.964359 
L 346.26251 120.503826 
L 346.581673 119.889305 
L 346.716594 119.092081 
L 347.151781 118.164752 
L 347.229823 117.479152 
L 347.698268 116.62405 
L 348.257983 119.849608 
L 348.713012 119.40554 
L 348.952809 122.64454 
L 349.381193 121.879708 
L 350.187319 124.74307 
L 350.357199 123.990045 
L 351.110981 123.42389 
L 351.338117 122.325746 
L 351.501194 125.068998 
L 351.867409 124.085057 
L 353.093227 127.247307 
L 353.24232 130.340581 
L 353.73174 129.549826 
L 353.992323 132.286409 
L 354.135181 131.517914 
L 355.165609 130.746004 
L 356.096452 133.713015 
L 356.495546 133.066425 
L 357.424122 135.981325 
L 357.500842 134.987426 
L 357.910896 137.773794 
L 357.988561 136.955145 
L 359.063584 135.060349 
L 359.365551 134.136792 
L 359.494425 137.146539 
L 359.649755 136.210654 
L 359.892008 138.75476 
L 360.124246 137.904014 
L 361.370094 136.916808 
L 362.181511 135.865913 
L 362.236122 134.734892 
L 362.704378 133.706182 
L 363.198522 131.951949 
L 364.934357 134.564351 
L 365.401291 133.211444 
L 365.570037 132.315594 
L 367.160368 131.382285 
L 367.755042 128.809928 
L 367.827983 127.915591 
L 368.506179 125.943277 
L 368.670579 125.358297 
L 369.854635 124.147982 
L 370.181923 123.541064 
L 370.730111 123.011319 
L 371.322517 121.707894 
L 372.275847 120.905275 
L 372.646786 119.626026 
L 373.537001 118.860929 
L 373.841802 118.421869 
L 374.312137 117.282202 
L 375.12242 116.707313 
L 375.26301 119.851245 
L 375.409836 119.192807 
L 377.574244 117.641514 
L 377.935357 116.906107 
L 378.477498 116.486028 
L 380.428753 119.283324 
L 380.483742 122.480921 
L 380.547613 121.32672 
L 381.046103 120.712622 
L 381.805365 119.143217 
L 383.238289 117.32642 
L 384.091845 116.731814 
L 384.501522 115.944994 
L 384.944645 115.414063 
L 386.309353 114.635064 
L 386.632105 113.924706 
L 387.868694 113.02218 
L 388.231885 112.583208 
L 388.531962 111.976057 
L 388.5981 111.37894 
L 389.489071 110.93705 
L 389.551241 110.412129 
L 390.345273 109.909691 
L 390.589038 109.195193 
L 391.105291 108.833035 
L 391.35019 108.398008 
L 391.438815 107.717673 
L 391.502685 106.36306 
L 391.946753 105.433588 
L 393.617206 104.985805 
L 394.968119 104.760658 
L 395.363246 104.32417 
L 395.434296 103.836668 
L 395.576776 107.374456 
L 396.200551 106.974307 
L 400.758015 106.686052 
L 401.80356 106.327636 
L 401.896909 109.766682 
L 402.848916 109.356844 
L 403.226468 108.240482 
L 403.494043 108.018657 
L 403.567551 107.234159 
L 403.737619 110.463364 
L 405.47062 113.571471 
L 406.06416 112.483039 
L 406.330223 111.721164 
L 406.71609 111.246454 
L 407.541301 110.83927 
L 408.194932 113.941164 
L 408.417533 113.483981 
L 408.498032 112.009392 
L 409.157521 111.380975 
L 409.603857 114.854435 
L 410.861043 114.387645 
L 412.36634 112.827423 
L 412.527528 111.504868 
L 413.222164 111.158539 
L 413.967254 110.389161 
L 414.345563 113.801855 
L 414.809661 113.102074 
L 415.47104 112.691231 
L 416.019417 115.945727 
L 416.294172 115.171899 
L 416.911333 114.753723 
L 418.060809 114.124501 
L 419.318184 112.712405 
L 419.401895 111.275235 
L 420.974842 110.717301 
L 421.035311 110.305319 
L 421.17609 113.681185 
L 421.666455 113.042056 
L 421.872994 115.553051 
L 423.868656 114.935282 
L 424.296852 114.451087 
L 424.843528 111.636292 
L 425.448595 110.95836 
L 425.599578 110.474306 
L 426.880574 109.968043 
L 426.954648 109.527664 
L 428.357148 109.135347 
L 428.683302 107.169971 
L 429.232246 110.526662 
L 429.384741 109.936632 
L 430.251903 107.877448 
L 431.234144 107.317351 
L 431.400812 110.644086 
L 432.169334 110.354136 
L 432.386266 113.379135 
L 433.503995 111.36115 
L 433.671607 110.90877 
L 433.843755 113.310495 
L 434.872671 112.663649 
L 436.22245 112.066004 
L 437.392712 115.369207 
L 438.369662 114.42442 
L 438.97265 117.49499 
L 439.286332 116.998039 
L 439.811467 119.885171 
L 439.95149 118.65825 
L 440.705084 118.112515 
L 442.239293 117.618846 
L 442.572816 120.653737 
L 442.920135 119.954595 
L 443.370061 122.964774 
L 444.196028 125.883462 
L 444.563377 124.203924 
L 445.035601 127.152635 
L 445.355897 126.373527 
L 445.436963 125.743311 
L 445.997434 125.082966 
L 446.20454 124.4064 
L 446.414669 123.29575 
L 446.63916 122.689423 
L 446.799403 121.355976 
L 447.351559 120.642293 
L 447.587955 119.832622 
L 447.65995 122.844818 
L 448.250656 120.609929 
L 449.154477 119.355625 
L 449.275603 118.658925 
L 449.512377 121.878011 
L 451.071907 121.387051 
L 451.217977 124.13167 
L 451.683777 123.522629 
L 452.208533 126.581512 
L 453.061334 125.672949 
L 454.522224 124.846429 
L 454.669806 124.254914 
L 455.943054 123.509997 
L 456.180772 122.818481 
L 456.390713 120.673138 
L 457.930402 119.943105 
L 459.830447 119.183552 
L 460.070811 118.631633 
L 461.658308 117.644654 
L 462.293799 117.019874 
L 462.367117 119.921384 
L 462.595954 123.166097 
L 462.765456 122.559446 
L 462.845955 121.8259 
L 463.988817 124.95695 
L 464.617127 124.238784 
L 466.333498 123.681977 
L 466.802132 123.17816 
L 467.050999 122.625425 
L 467.682143 121.740282 
L 468.68536 121.224773 
L 468.811022 120.694143 
L 468.878482 119.068124 
L 469.427427 122.35091 
L 472.032313 128.552222 
L 472.584658 131.681488 
L 472.959187 130.755654 
L 473.040065 133.670067 
L 473.537043 131.82957 
L 474.590525 130.970327 
L 474.768719 130.193868 
L 475.443325 128.474499 
L 477.273453 131.343194 
L 477.688799 130.614954 
L 478.692205 129.611758 
L 479.007588 132.558923 
L 480.407631 131.648943 
L 481.02706 134.68309 
L 481.370031 133.654576 
L 482.824686 132.754158 
L 483.065617 135.51019 
L 483.127975 134.631298 
L 483.259117 137.215646 
L 483.469247 135.755933 
L 483.763277 138.406246 
L 484.677113 136.689692 
L 485.098127 135.030265 
L 485.406896 137.846282 
L 487.096435 137.104749 
L 488.049198 136.308335 
L 488.657099 138.907298 
L 490.090968 137.201139 
L 490.160129 136.405414 
L 491.272567 135.539078 
L 491.487232 134.524817 
L 492.253486 133.719323 
L 492.335308 132.05032 
L 492.543548 131.132235 
L 493.885201 133.473578 
L 494.17205 132.766291 
L 495.18018 131.949082 
L 495.828142 129.248241 
L 496.509551 132.283772 
L 497.166772 130.59728 
L 498.270896 129.881368 
L 498.512772 128.366005 
L 498.928495 127.68698 
L 501.156585 127.04852 
L 501.805491 126.380143 
L 502.345932 125.444551 
L 502.631648 123.740013 
L 503.542271 122.404181 
L 503.944956 121.648505 
L 504.343862 120.388649 
L 505.430601 119.884245 
L 506.669646 118.739992 
L 508.48787 115.78027 
L 508.721809 114.365627 
L 509.396226 113.960777 
L 509.533037 113.454403 
L 510.002616 112.860447 
L 510.903035 116.153206 
L 511.930817 115.145768 
L 512.062337 118.207624 
L 512.83256 121.354355 
L 512.981275 119.749677 
L 514.159096 119.120312 
L 515.00207 117.577226 
L 515.140959 116.901335 
L 515.614506 115.893031 
L 516.378871 118.572085 
L 516.603551 117.948561 
L 519.180848 121.140823 
L 519.701447 124.294029 
L 519.954283 123.600529 
L 520.269477 123.069799 
L 522.242463 121.950461 
L 522.793864 121.004019 
L 523.408946 120.243852 
L 524.193907 119.619984 
L 524.416886 119.060851 
L 525.595652 117.34918 
L 525.761374 116.677059 
L 526.53103 116.174661 
L 526.602081 115.734334 
L 527.955261 115.293434 
L 528.200349 114.655315 
L 529.622502 113.591347 
L 530.543518 113.170068 
L 530.746278 116.427584 
L 530.901041 115.986429 
L 531.454142 115.3092 
L 532.809212 114.177028 
L 532.996099 113.776426 
L 533.137067 117.095401 
L 533.403508 116.602661 
L 533.534083 116.090903 
L 534.292211 115.369698 
L 535.082653 114.826413 
L 535.165042 113.870725 
L 535.825853 113.474075 
L 536.201139 112.058676 
L 537.587766 111.662731 
L 537.951524 111.098443 
L 538.416 109.480019 
L 539.096653 109.034076 
L 540.478934 108.415552 
L 541.203994 107.179589 
L 541.912425 110.397782 
L 542.605171 109.606891 
L 542.682269 108.946748 
L 542.99633 108.631466 
L 543.454192 107.945603 
L 543.598562 106.195054 
L 543.829855 105.923032 
L 544.053023 105.272945 
L 545.064176 108.340434 
L 545.459492 111.453968 
L 545.684927 111.083816 
L 546.887124 110.665777 
L 546.948916 110.28968 
L 547.260331 113.660395 
L 547.642041 113.104287 
L 548.200244 111.617001 
L 548.830632 111.270981 
L 548.982938 110.890394 
L 549.766199 109.455405 
L 550.188915 108.968798 
L 550.32497 108.390639 
L 550.750708 108.044173 
L 550.90018 107.548236 
L 551.057021 110.464886 
L 551.966133 108.936529 
L 552.139792 112.266796 
L 552.305892 111.70624 
L 552.924187 114.429833 
L 554.066671 113.997037 
L 554.388857 113.338843 
L 554.79362 112.82642 
L 555.04211 112.140861 
L 556.184783 111.786182 
L 556.989586 111.233569 
L 557.063471 114.594077 
L 557.189133 113.934713 
L 557.648319 113.371253 
L 557.727306 116.490248 
L 558.112417 119.585432 
L 558.632828 118.034657 
L 559.062724 121.104315 
L 559.590693 119.887555 
L 560.050634 119.225701 
L 561.063677 118.72709 
L 561.60922 118.032204 
L 563.051969 120.479251 
L 564.559912 119.782957 
L 564.789505 122.974936 
L 565.10999 122.354919 
L 565.192379 120.806107 
L 565.739244 120.267915 
L 566.999832 119.333726 
L 567.813894 118.517844 
L 568.637405 117.947169 
L 569.168775 121.02697 
L 569.620969 120.48513 
L 571.449586 119.788735 
L 573.147061 122.870877 
L 573.814864 121.715009 
L 575.011392 120.10437 
L 575.092269 119.631435 
L 575.685431 119.055999 
L 576.003082 118.560195 
L 576.780863 117.812715 
L 577.014991 117.237318 
L 577.088876 116.62209 
L 577.837746 115.975775 
L 578.110234 119.296129 
L 578.743267 118.769409 
L 578.809594 118.169912 
L 579.140283 117.702181 
L 579.875358 117.133969 
L 579.943575 116.39109 
L 580.690176 115.885327 
L 580.858544 114.107501 
L 581.454352 116.976064 
L 581.780695 116.554828 
L 581.861761 116.013823 
L 583.000655 115.344841 
L 583.596462 114.650507 
L 584.624055 113.967667 
L 584.83872 117.048999 
L 585.111397 116.572914 
L 585.287135 116.036983 
L 585.356674 118.915988 
L 585.567559 118.226555 
L 585.799986 117.004918 
L 586.211364 116.264172 
L 586.211364 116.264172 
" clip-path="url(#p1324f2e0c8)" style="fill: none; stroke: #1f77b4; stroke-width: 1.5; stroke-linecap: round"/>
   </g>
   <g id="patch_3">
    <path d="M 53.575 339.84 
L 53.575 7.2 
" style="fill: none; stroke: #000000; stroke-linejoin: miter; stroke-linecap: square"/>
   </g>
   <g id="patch_4">
    <path d="M 611.575 339.84 
L 611.575 7.2 
" style="fill: none; stroke: #000000; stroke-linejoin: miter; stroke-linecap: square"/>
   </g>
   <g id="patch_5">
    <path d="M 53.575 339.84 
L 611.575 339.84 
" style="fill: none; stroke: #000000; stroke-linejoin: miter; stroke-linecap: square"/>
   </g>
   <g id="patch_6">
    <path d="M 53.575 7.2 
L 611.575 7.2 
" style="fill: none; stroke: #000000; stroke-linejoin: miter; stroke-linecap: square"/>
   </g>
   <g id="legend_1">
    <g id="patch_7">
     <path d="M 60.575 42.817187 
L 177.575 42.817187 
Q 179.575 42.817187 179.575 40.817187 
L 179.575 14.2 
Q 179.575 12.2 177.575 12.2 
L 60.575 12.2 
Q 58.575 12.2 58.575 14.2 
L 58.575 40.817187 
Q 58.575 42.817187 60.575 42.817187 
z
" style="fill: #ffffff; opacity: 0.8; stroke: #000000; stroke-linejoin: miter"/>
    </g>
    <g id="line2d_15">
     <path d="M 62.575 20.5125 
L 72.575 20.5125 
L 82.575 20.5125 
" style="fill: none; stroke: #1f77b4; stroke-opacity: 0.1; stroke-width: 1.5; stroke-linecap: round"/>
    </g>
    <g id="text_16">
     <!-- Reward (Original) -->
     <g style="fill: #262626" transform="translate(90.575 24.0125) scale(0.1 -0.1)">
      <defs>
       <path id="SimHei-20" transform="scale(0.015625)"/>
       <path id="SimHei-28" d="M 2975 -200 
L 2700 -475 
Q 2075 125 1762 775 
Q 1450 1425 1450 2250 
Q 1450 3075 1762 3725 
Q 2075 4375 2700 5000 
L 2975 4725 
Q 2400 4175 2112 3587 
Q 1825 3000 1825 2250 
Q 1825 1500 2112 912 
Q 2400 325 2975 -200 
z
" transform="scale(0.015625)"/>
       <path id="SimHei-4f" d="M 2950 2275 
Q 2950 1100 2587 587 
Q 2225 75 1575 75 
Q 925 75 550 587 
Q 175 1100 175 2275 
Q 175 3450 550 3950 
Q 925 4450 1575 4450 
Q 2225 4450 2587 3950 
Q 2950 3450 2950 2275 
z
M 2350 2275 
Q 2350 3325 2125 3650 
Q 1900 3975 1575 3975 
Q 1250 3975 1012 3650 
Q 775 3325 775 2275 
Q 775 1225 1012 887 
Q 1250 550 1575 550 
Q 1900 550 2125 887 
Q 2350 1225 2350 2275 
z
" transform="scale(0.015625)"/>
       <path id="SimHei-69" d="M 1800 3725 
L 1300 3725 
L 1300 4375 
L 1800 4375 
L 1800 3725 
z
M 1800 125 
L 1300 125 
L 1300 2925 
L 1800 2925 
L 1800 125 
z
" transform="scale(0.015625)"/>
       <path id="SimHei-67" d="M 2975 2500 
Q 2800 2550 2637 2562 
Q 2475 2575 2300 2525 
Q 2375 2450 2425 2337 
Q 2475 2225 2475 2000 
Q 2475 1575 2187 1300 
Q 1900 1025 1475 1025 
Q 1375 1025 1212 1062 
Q 1050 1100 950 1150 
Q 875 1100 850 1050 
Q 825 1000 825 925 
Q 825 800 1000 737 
Q 1175 675 1625 675 
Q 2350 675 2612 475 
Q 2875 275 2875 -25 
Q 2875 -425 2487 -612 
Q 2100 -800 1575 -800 
Q 900 -800 575 -625 
Q 250 -450 250 -150 
Q 250 0 375 150 
Q 500 300 700 400 
Q 550 475 462 587 
Q 375 700 375 875 
Q 375 1025 487 1137 
Q 600 1250 750 1325 
Q 625 1450 550 1625 
Q 475 1800 475 2000 
Q 475 2425 762 2700 
Q 1050 2975 1475 2975 
Q 1700 2975 1862 2912 
Q 2025 2850 2150 2725 
Q 2350 2875 2550 2937 
Q 2750 3000 2975 2975 
L 2975 2500 
z
M 1975 2000 
Q 1975 2250 1850 2400 
Q 1725 2550 1475 2550 
Q 1225 2550 1100 2400 
Q 975 2250 975 2000 
Q 975 1750 1100 1600 
Q 1225 1450 1475 1450 
Q 1725 1450 1850 1600 
Q 1975 1750 1975 2000 
z
M 2400 -75 
Q 2400 25 2287 125 
Q 2175 225 1725 225 
Q 1625 225 1450 237 
Q 1275 250 1050 275 
Q 850 200 775 100 
Q 700 0 700 -100 
Q 700 -250 900 -350 
Q 1100 -450 1600 -450 
Q 2025 -450 2212 -337 
Q 2400 -225 2400 -75 
z
" transform="scale(0.015625)"/>
       <path id="SimHei-6e" d="M 2800 125 
L 2300 125 
L 2300 1925 
Q 2300 2225 2150 2400 
Q 2000 2575 1750 2575 
Q 1425 2575 1137 2237 
Q 850 1900 850 1400 
L 850 125 
L 350 125 
L 350 2925 
L 850 2925 
L 850 2400 
Q 1050 2675 1287 2825 
Q 1525 2975 1900 2975 
Q 2350 2975 2575 2725 
Q 2800 2475 2800 2100 
L 2800 125 
z
" transform="scale(0.015625)"/>
       <path id="SimHei-6c" d="M 1825 125 
L 1325 125 
L 1325 4400 
L 1825 4400 
L 1825 125 
z
" transform="scale(0.015625)"/>
       <path id="SimHei-29" d="M 1675 2250 
Q 1675 1425 1362 775 
Q 1050 125 425 -475 
L 150 -200 
Q 725 325 1012 912 
Q 1300 1500 1300 2250 
Q 1300 3000 1012 3587 
Q 725 4175 150 4725 
L 425 5000 
Q 1050 4375 1362 3725 
Q 1675 3075 1675 2250 
z
" transform="scale(0.015625)"/>
      </defs>
      <use xlink:href="#SimHei-52"/>
      <use xlink:href="#SimHei-65" x="50"/>
      <use xlink:href="#SimHei-77" x="100"/>
      <use xlink:href="#SimHei-61" x="150"/>
      <use xlink:href="#SimHei-72" x="200"/>
      <use xlink:href="#SimHei-64" x="250"/>
      <use xlink:href="#SimHei-20" x="300"/>
      <use xlink:href="#SimHei-28" x="350"/>
      <use xlink:href="#SimHei-4f" x="400"/>
      <use xlink:href="#SimHei-72" x="450"/>
      <use xlink:href="#SimHei-69" x="500"/>
      <use xlink:href="#SimHei-67" x="550"/>
      <use xlink:href="#SimHei-69" x="600"/>
      <use xlink:href="#SimHei-6e" x="650"/>
      <use xlink:href="#SimHei-61" x="700"/>
      <use xlink:href="#SimHei-6c" x="750"/>
      <use xlink:href="#SimHei-29" x="800"/>
     </g>
    </g>
    <g id="line2d_16">
     <path d="M 62.575 34.067187 
L 72.575 34.067187 
L 82.575 34.067187 
" style="fill: none; stroke: #1f77b4; stroke-width: 1.5; stroke-linecap: round"/>
    </g>
    <g id="text_17">
     <!-- Reward (Smooth) -->
     <g style="fill: #262626" transform="translate(90.575 37.567187) scale(0.1 -0.1)">
      <defs>
       <path id="SimHei-6d" d="M 3050 125 
L 2550 125 
L 2550 2150 
Q 2550 2300 2500 2400 
Q 2450 2500 2300 2500 
Q 2125 2500 1975 2312 
Q 1825 2125 1825 1825 
L 1825 125 
L 1325 125 
L 1325 2150 
Q 1325 2300 1275 2400 
Q 1225 2500 1075 2500 
Q 900 2500 750 2312 
Q 600 2125 600 1825 
L 600 125 
L 100 125 
L 100 2925 
L 600 2925 
L 600 2550 
Q 725 2750 900 2862 
Q 1075 2975 1275 2975 
Q 1475 2975 1612 2862 
Q 1750 2750 1800 2550 
Q 1925 2750 2087 2862 
Q 2250 2975 2450 2975 
Q 2750 2975 2900 2812 
Q 3050 2650 3050 2350 
L 3050 125 
z
" transform="scale(0.015625)"/>
       <path id="SimHei-6f" d="M 2925 1525 
Q 2925 875 2525 475 
Q 2125 75 1575 75 
Q 1025 75 625 475 
Q 225 875 225 1525 
Q 225 2175 625 2575 
Q 1025 2975 1575 2975 
Q 2125 2975 2525 2575 
Q 2925 2175 2925 1525 
z
M 2375 1525 
Q 2375 2025 2125 2275 
Q 1875 2525 1575 2525 
Q 1275 2525 1025 2275 
Q 775 2025 775 1525 
Q 775 1025 1025 775 
Q 1275 525 1575 525 
Q 1875 525 2125 775 
Q 2375 1025 2375 1525 
z
" transform="scale(0.015625)"/>
       <path id="SimHei-68" d="M 2800 125 
L 2300 125 
L 2300 1925 
Q 2300 2225 2150 2400 
Q 2000 2575 1750 2575 
Q 1425 2575 1137 2237 
Q 850 1900 850 1400 
L 850 125 
L 350 125 
L 350 4400 
L 850 4400 
L 850 2400 
Q 1050 2675 1287 2825 
Q 1525 2975 1900 2975 
Q 2350 2975 2575 2725 
Q 2800 2475 2800 2100 
L 2800 125 
z
" transform="scale(0.015625)"/>
      </defs>
      <use xlink:href="#SimHei-52"/>
      <use xlink:href="#SimHei-65" x="50"/>
      <use xlink:href="#SimHei-77" x="100"/>
      <use xlink:href="#SimHei-61" x="150"/>
      <use xlink:href="#SimHei-72" x="200"/>
      <use xlink:href="#SimHei-64" x="250"/>
      <use xlink:href="#SimHei-20" x="300"/>
      <use xlink:href="#SimHei-28" x="350"/>
      <use xlink:href="#SimHei-53" x="400"/>
      <use xlink:href="#SimHei-6d" x="450"/>
      <use xlink:href="#SimHei-6f" x="500"/>
      <use xlink:href="#SimHei-6f" x="550"/>
      <use xlink:href="#SimHei-74" x="600"/>
      <use xlink:href="#SimHei-68" x="650"/>
      <use xlink:href="#SimHei-29" x="700"/>
     </g>
    </g>
   </g>
  </g>
 </g>
 <defs>
  <clipPath id="p1324f2e0c8">
   <rect x="53.575" y="7.2" width="558" height="332.64"/>
  </clipPath>
 </defs>
</svg>
